G04 #@! TF.GenerationSoftware,KiCad,Pcbnew,(5.1.4-0-10_14)*
G04 #@! TF.CreationDate,2020-03-06T11:16:09+09:00*
G04 #@! TF.ProjectId,ReadoutBoard_v3_2,52656164-6f75-4744-926f-6172645f7633,rev?*
G04 #@! TF.SameCoordinates,Original*
G04 #@! TF.FileFunction,Copper,L2,Bot*
G04 #@! TF.FilePolarity,Positive*
%FSLAX46Y46*%
G04 Gerber Fmt 4.6, Leading zero omitted, Abs format (unit mm)*
G04 Created by KiCad (PCBNEW (5.1.4-0-10_14)) date 2020-03-06 11:16:09*
%MOMM*%
%LPD*%
G04 APERTURE LIST*
%ADD10O,1.200000X2.300000*%
%ADD11O,1.200000X2.800000*%
%ADD12C,1.800000*%
%ADD13R,1.700000X1.700000*%
%ADD14O,1.700000X1.700000*%
%ADD15R,3.000000X3.000000*%
%ADD16C,3.000000*%
%ADD17R,2.030000X1.730000*%
%ADD18O,2.030000X1.730000*%
%ADD19C,1.500000*%
%ADD20C,2.000000*%
%ADD21C,0.800000*%
%ADD22C,0.250000*%
%ADD23C,0.254000*%
G04 APERTURE END LIST*
D10*
X110393400Y-119810000D03*
D11*
X126903400Y-113030000D03*
D12*
X118643400Y-120710000D03*
D11*
X110393400Y-113030000D03*
D10*
X126903400Y-119810000D03*
D13*
X112395000Y-97523300D03*
D14*
X112395000Y-100063300D03*
D13*
X118808500Y-93776800D03*
D14*
X121348500Y-93776800D03*
D15*
X103759000Y-90805000D03*
D16*
X103759000Y-95885000D03*
D17*
X103505000Y-110261400D03*
D18*
X103505000Y-112801400D03*
X103505000Y-115341400D03*
D19*
X159715200Y-90576400D03*
X159715200Y-85496400D03*
X164795200Y-85496400D03*
X164795200Y-90576400D03*
X162255200Y-88036400D03*
X150037800Y-88036400D03*
X152577800Y-90576400D03*
X152577800Y-85496400D03*
X147497800Y-85496400D03*
X147497800Y-90576400D03*
D14*
X103505000Y-104711500D03*
D13*
X103505000Y-102171500D03*
X164566600Y-110515400D03*
D14*
X164566600Y-113055400D03*
X164566600Y-115595400D03*
D20*
X113411000Y-85979000D03*
X119202200Y-85979000D03*
X124917200Y-85979000D03*
X130606800Y-85979000D03*
X136601200Y-85979000D03*
D21*
X140152002Y-115067198D03*
X143052800Y-114554000D03*
X141401800Y-87172800D03*
X124256800Y-98450400D03*
X159410400Y-98044000D03*
X160401000Y-100406200D03*
X155117800Y-107619800D03*
X159823685Y-103479600D03*
X133781800Y-102362000D03*
X141249400Y-101041200D03*
X121564400Y-105029000D03*
X107823000Y-112242600D03*
X157378400Y-111960200D03*
X158597600Y-106273600D03*
X141046200Y-99508100D03*
X136372600Y-98399600D03*
X156845000Y-95046800D03*
X152984200Y-110871000D03*
X151155400Y-104419400D03*
X148463000Y-106502200D03*
X143154400Y-111861600D03*
X139427001Y-111461601D03*
D22*
X140152002Y-115067198D02*
X142539602Y-115067198D01*
X142539602Y-115067198D02*
X143052800Y-114554000D01*
X143052800Y-114554000D02*
X143052800Y-114554000D01*
X141401800Y-87172800D02*
X139877800Y-87172800D01*
X139877800Y-87172800D02*
X137998200Y-89052400D01*
X137998200Y-89052400D02*
X137998200Y-89712800D01*
X137998200Y-89712800D02*
X139217400Y-90932000D01*
X139573000Y-90576400D02*
X147497800Y-90576400D01*
X139217400Y-90932000D02*
X139573000Y-90576400D01*
X123917201Y-86978999D02*
X123917201Y-87080599D01*
X124917200Y-85979000D02*
X123917201Y-86978999D01*
X123917201Y-87080599D02*
X124333000Y-87496398D01*
X124333000Y-87496398D02*
X124333000Y-97586800D01*
X124256800Y-98450400D02*
X124256800Y-98450400D01*
X159810399Y-98443999D02*
X159810399Y-99815599D01*
X159410400Y-98044000D02*
X159810399Y-98443999D01*
X159810399Y-99815599D02*
X160401000Y-100406200D01*
X160401000Y-100406200D02*
X160401000Y-100406200D01*
X124256800Y-97663000D02*
X124256800Y-98450400D01*
X124333000Y-97586800D02*
X124256800Y-97663000D01*
X155683485Y-107619800D02*
X159823685Y-103479600D01*
X155117800Y-107619800D02*
X155683485Y-107619800D01*
X159823685Y-103479600D02*
X159823685Y-103479600D01*
X133781800Y-102362000D02*
X139928600Y-102362000D01*
X139928600Y-102362000D02*
X141249400Y-101041200D01*
X141249400Y-101041200D02*
X141249400Y-101041200D01*
X121564400Y-105029000D02*
X121564400Y-105029000D01*
X115036600Y-105029000D02*
X107823000Y-112242600D01*
X121564400Y-105029000D02*
X115036600Y-105029000D01*
X157378400Y-111960200D02*
X157378400Y-107492800D01*
X157378400Y-107492800D02*
X158597600Y-106273600D01*
X158597600Y-106273600D02*
X158597600Y-106273600D01*
X141046200Y-98942415D02*
X140503385Y-98399600D01*
X141046200Y-99508100D02*
X141046200Y-98942415D01*
X140503385Y-98399600D02*
X136728200Y-98399600D01*
X136728200Y-98399600D02*
X136372600Y-98399600D01*
X136372600Y-98399600D02*
X136372600Y-98399600D01*
X162255200Y-89636600D02*
X156845000Y-95046800D01*
X162255200Y-88036400D02*
X162255200Y-89636600D01*
X152984200Y-110305315D02*
X152984200Y-110871000D01*
X152984200Y-105175198D02*
X152984200Y-110305315D01*
X150037800Y-102228798D02*
X152984200Y-105175198D01*
X150037800Y-88036400D02*
X150037800Y-102228798D01*
X151155400Y-104985085D02*
X149638285Y-106502200D01*
X151155400Y-104419400D02*
X151155400Y-104985085D01*
X149638285Y-106502200D02*
X149098000Y-106502200D01*
X149098000Y-106502200D02*
X148463000Y-106502200D01*
X148463000Y-106502200D02*
X148463000Y-106502200D01*
X142754401Y-111461601D02*
X139427001Y-111461601D01*
X143154400Y-111861600D02*
X142754401Y-111461601D01*
X139427001Y-111461601D02*
X139427001Y-111461601D01*
D23*
G36*
X172340001Y-123340000D02*
G01*
X98660000Y-123340000D01*
X98660000Y-120297123D01*
X99830497Y-120297123D01*
X99830497Y-120724477D01*
X99913870Y-121143621D01*
X100077412Y-121538445D01*
X100314837Y-121893777D01*
X100617023Y-122195963D01*
X100972355Y-122433388D01*
X101367179Y-122596930D01*
X101786323Y-122680303D01*
X102213677Y-122680303D01*
X102632821Y-122596930D01*
X103027645Y-122433388D01*
X103382977Y-122195963D01*
X103685163Y-121893777D01*
X103922588Y-121538445D01*
X104086130Y-121143621D01*
X104169503Y-120724477D01*
X104169503Y-120297123D01*
X104086130Y-119877979D01*
X103922588Y-119483155D01*
X103732947Y-119199336D01*
X109158400Y-119199336D01*
X109158400Y-120420665D01*
X109176270Y-120602102D01*
X109246889Y-120834901D01*
X109361568Y-121049449D01*
X109515899Y-121237502D01*
X109703952Y-121391833D01*
X109918500Y-121506511D01*
X110151299Y-121577130D01*
X110393400Y-121600975D01*
X110635502Y-121577130D01*
X110868301Y-121506511D01*
X111082849Y-121391833D01*
X111270902Y-121237502D01*
X111425233Y-121049449D01*
X111539911Y-120834901D01*
X111610530Y-120602102D01*
X111614793Y-120558816D01*
X117108400Y-120558816D01*
X117108400Y-120861184D01*
X117167389Y-121157743D01*
X117283101Y-121437095D01*
X117451088Y-121688505D01*
X117664895Y-121902312D01*
X117916305Y-122070299D01*
X118195657Y-122186011D01*
X118492216Y-122245000D01*
X118794584Y-122245000D01*
X119091143Y-122186011D01*
X119370495Y-122070299D01*
X119621905Y-121902312D01*
X119835712Y-121688505D01*
X120003699Y-121437095D01*
X120119411Y-121157743D01*
X120178400Y-120861184D01*
X120178400Y-120558816D01*
X120119411Y-120262257D01*
X120003699Y-119982905D01*
X119835712Y-119731495D01*
X119621905Y-119517688D01*
X119370495Y-119349701D01*
X119091143Y-119233989D01*
X118916930Y-119199336D01*
X125668400Y-119199336D01*
X125668400Y-120420665D01*
X125686270Y-120602102D01*
X125756889Y-120834901D01*
X125871568Y-121049449D01*
X126025899Y-121237502D01*
X126213952Y-121391833D01*
X126428500Y-121506511D01*
X126661299Y-121577130D01*
X126903400Y-121600975D01*
X127145502Y-121577130D01*
X127378301Y-121506511D01*
X127592849Y-121391833D01*
X127780902Y-121237502D01*
X127935233Y-121049449D01*
X128049911Y-120834901D01*
X128120530Y-120602102D01*
X128138400Y-120420665D01*
X128138400Y-120297123D01*
X166830497Y-120297123D01*
X166830497Y-120724477D01*
X166913870Y-121143621D01*
X167077412Y-121538445D01*
X167314837Y-121893777D01*
X167617023Y-122195963D01*
X167972355Y-122433388D01*
X168367179Y-122596930D01*
X168786323Y-122680303D01*
X169213677Y-122680303D01*
X169632821Y-122596930D01*
X170027645Y-122433388D01*
X170382977Y-122195963D01*
X170685163Y-121893777D01*
X170922588Y-121538445D01*
X171086130Y-121143621D01*
X171169503Y-120724477D01*
X171169503Y-120297123D01*
X171086130Y-119877979D01*
X170922588Y-119483155D01*
X170685163Y-119127823D01*
X170382977Y-118825637D01*
X170027645Y-118588212D01*
X169632821Y-118424670D01*
X169213677Y-118341297D01*
X168786323Y-118341297D01*
X168367179Y-118424670D01*
X167972355Y-118588212D01*
X167617023Y-118825637D01*
X167314837Y-119127823D01*
X167077412Y-119483155D01*
X166913870Y-119877979D01*
X166830497Y-120297123D01*
X128138400Y-120297123D01*
X128138400Y-119199335D01*
X128120530Y-119017898D01*
X128049911Y-118785099D01*
X127935233Y-118570551D01*
X127780902Y-118382498D01*
X127592848Y-118228167D01*
X127378300Y-118113489D01*
X127145501Y-118042870D01*
X126903400Y-118019025D01*
X126661298Y-118042870D01*
X126428499Y-118113489D01*
X126213951Y-118228167D01*
X126025898Y-118382498D01*
X125871567Y-118570552D01*
X125756889Y-118785100D01*
X125686270Y-119017899D01*
X125668400Y-119199336D01*
X118916930Y-119199336D01*
X118794584Y-119175000D01*
X118492216Y-119175000D01*
X118195657Y-119233989D01*
X117916305Y-119349701D01*
X117664895Y-119517688D01*
X117451088Y-119731495D01*
X117283101Y-119982905D01*
X117167389Y-120262257D01*
X117108400Y-120558816D01*
X111614793Y-120558816D01*
X111628400Y-120420665D01*
X111628400Y-119199335D01*
X111610530Y-119017898D01*
X111539911Y-118785099D01*
X111425233Y-118570551D01*
X111270902Y-118382498D01*
X111082848Y-118228167D01*
X110868300Y-118113489D01*
X110635501Y-118042870D01*
X110393400Y-118019025D01*
X110151298Y-118042870D01*
X109918499Y-118113489D01*
X109703951Y-118228167D01*
X109515898Y-118382498D01*
X109361567Y-118570552D01*
X109246889Y-118785100D01*
X109176270Y-119017899D01*
X109158400Y-119199336D01*
X103732947Y-119199336D01*
X103685163Y-119127823D01*
X103382977Y-118825637D01*
X103027645Y-118588212D01*
X102632821Y-118424670D01*
X102213677Y-118341297D01*
X101786323Y-118341297D01*
X101367179Y-118424670D01*
X100972355Y-118588212D01*
X100617023Y-118825637D01*
X100314837Y-119127823D01*
X100077412Y-119483155D01*
X99913870Y-119877979D01*
X99830497Y-120297123D01*
X98660000Y-120297123D01*
X98660000Y-115341400D01*
X101847743Y-115341400D01*
X101876705Y-115635451D01*
X101962476Y-115918202D01*
X102101762Y-116178787D01*
X102289208Y-116407192D01*
X102517613Y-116594638D01*
X102778198Y-116733924D01*
X103060949Y-116819695D01*
X103281320Y-116841400D01*
X103728680Y-116841400D01*
X103949051Y-116819695D01*
X104231802Y-116733924D01*
X104492387Y-116594638D01*
X104720792Y-116407192D01*
X104908238Y-116178787D01*
X105047524Y-115918202D01*
X105133295Y-115635451D01*
X105137239Y-115595400D01*
X163074415Y-115595400D01*
X163103087Y-115886511D01*
X163188001Y-116166434D01*
X163325894Y-116424414D01*
X163511466Y-116650534D01*
X163737586Y-116836106D01*
X163995566Y-116973999D01*
X164275489Y-117058913D01*
X164493650Y-117080400D01*
X164639550Y-117080400D01*
X164857711Y-117058913D01*
X165137634Y-116973999D01*
X165395614Y-116836106D01*
X165621734Y-116650534D01*
X165807306Y-116424414D01*
X165945199Y-116166434D01*
X166030113Y-115886511D01*
X166058785Y-115595400D01*
X166030113Y-115304289D01*
X165945199Y-115024366D01*
X165807306Y-114766386D01*
X165621734Y-114540266D01*
X165395614Y-114354694D01*
X165331077Y-114320199D01*
X165447955Y-114250578D01*
X165664188Y-114055669D01*
X165838241Y-113822320D01*
X165963425Y-113559499D01*
X166008076Y-113412290D01*
X165886755Y-113182400D01*
X164693600Y-113182400D01*
X164693600Y-113202400D01*
X164439600Y-113202400D01*
X164439600Y-113182400D01*
X163246445Y-113182400D01*
X163125124Y-113412290D01*
X163169775Y-113559499D01*
X163294959Y-113822320D01*
X163469012Y-114055669D01*
X163685245Y-114250578D01*
X163802123Y-114320199D01*
X163737586Y-114354694D01*
X163511466Y-114540266D01*
X163325894Y-114766386D01*
X163188001Y-115024366D01*
X163103087Y-115304289D01*
X163074415Y-115595400D01*
X105137239Y-115595400D01*
X105162257Y-115341400D01*
X105133295Y-115047349D01*
X105047524Y-114764598D01*
X104908238Y-114504013D01*
X104720792Y-114275608D01*
X104492387Y-114088162D01*
X104454297Y-114067802D01*
X104656972Y-113919210D01*
X104855793Y-113702257D01*
X105008469Y-113450684D01*
X105109131Y-113174159D01*
X105111346Y-113160646D01*
X104990224Y-112928400D01*
X103632000Y-112928400D01*
X103632000Y-112948400D01*
X103378000Y-112948400D01*
X103378000Y-112928400D01*
X102019776Y-112928400D01*
X101898654Y-113160646D01*
X101900869Y-113174159D01*
X102001531Y-113450684D01*
X102154207Y-113702257D01*
X102353028Y-113919210D01*
X102555703Y-114067802D01*
X102517613Y-114088162D01*
X102289208Y-114275608D01*
X102101762Y-114504013D01*
X101962476Y-114764598D01*
X101876705Y-115047349D01*
X101847743Y-115341400D01*
X98660000Y-115341400D01*
X98660000Y-109396400D01*
X101851928Y-109396400D01*
X101851928Y-111126400D01*
X101864188Y-111250882D01*
X101900498Y-111370580D01*
X101959463Y-111480894D01*
X102038815Y-111577585D01*
X102135506Y-111656937D01*
X102245820Y-111715902D01*
X102306537Y-111734320D01*
X102154207Y-111900543D01*
X102001531Y-112152116D01*
X101900869Y-112428641D01*
X101898654Y-112442154D01*
X102019776Y-112674400D01*
X103378000Y-112674400D01*
X103378000Y-112654400D01*
X103632000Y-112654400D01*
X103632000Y-112674400D01*
X104990224Y-112674400D01*
X105111346Y-112442154D01*
X105109131Y-112428641D01*
X105008469Y-112152116D01*
X105001518Y-112140661D01*
X106788000Y-112140661D01*
X106788000Y-112344539D01*
X106827774Y-112544498D01*
X106905795Y-112732856D01*
X107019063Y-112902374D01*
X107163226Y-113046537D01*
X107332744Y-113159805D01*
X107521102Y-113237826D01*
X107721061Y-113277600D01*
X107924939Y-113277600D01*
X108124898Y-113237826D01*
X108313256Y-113159805D01*
X108482774Y-113046537D01*
X108626937Y-112902374D01*
X108740205Y-112732856D01*
X108818226Y-112544498D01*
X108858000Y-112344539D01*
X108858000Y-112282401D01*
X109186619Y-111953782D01*
X109176270Y-111987899D01*
X109158400Y-112169336D01*
X109158400Y-113890665D01*
X109176270Y-114072102D01*
X109246890Y-114304901D01*
X109361568Y-114519449D01*
X109515899Y-114707502D01*
X109703952Y-114861833D01*
X109918500Y-114976511D01*
X110151299Y-115047130D01*
X110393400Y-115070975D01*
X110635502Y-115047130D01*
X110868301Y-114976511D01*
X111082849Y-114861833D01*
X111270902Y-114707502D01*
X111425233Y-114519449D01*
X111539911Y-114304901D01*
X111610530Y-114072102D01*
X111628400Y-113890665D01*
X111628400Y-112169336D01*
X125668400Y-112169336D01*
X125668400Y-113890665D01*
X125686270Y-114072102D01*
X125756890Y-114304901D01*
X125871568Y-114519449D01*
X126025899Y-114707502D01*
X126213952Y-114861833D01*
X126428500Y-114976511D01*
X126661299Y-115047130D01*
X126903400Y-115070975D01*
X127145502Y-115047130D01*
X127378301Y-114976511D01*
X127592849Y-114861833D01*
X127780902Y-114707502D01*
X127935233Y-114519449D01*
X128049911Y-114304901D01*
X128120530Y-114072102D01*
X128138400Y-113890665D01*
X128138400Y-112169335D01*
X128120530Y-111987898D01*
X128049911Y-111755099D01*
X127935233Y-111540551D01*
X127786782Y-111359662D01*
X138392001Y-111359662D01*
X138392001Y-111563540D01*
X138431775Y-111763499D01*
X138509796Y-111951857D01*
X138623064Y-112121375D01*
X138767227Y-112265538D01*
X138936745Y-112378806D01*
X139125103Y-112456827D01*
X139325062Y-112496601D01*
X139528940Y-112496601D01*
X139728899Y-112456827D01*
X139917257Y-112378806D01*
X140086775Y-112265538D01*
X140130712Y-112221601D01*
X142183241Y-112221601D01*
X142237195Y-112351856D01*
X142350463Y-112521374D01*
X142494626Y-112665537D01*
X142664144Y-112778805D01*
X142852502Y-112856826D01*
X143052461Y-112896600D01*
X143256339Y-112896600D01*
X143456298Y-112856826D01*
X143644656Y-112778805D01*
X143814174Y-112665537D01*
X143958337Y-112521374D01*
X144071605Y-112351856D01*
X144149626Y-112163498D01*
X144189400Y-111963539D01*
X144189400Y-111759661D01*
X144149626Y-111559702D01*
X144071605Y-111371344D01*
X143958337Y-111201826D01*
X143814174Y-111057663D01*
X143644656Y-110944395D01*
X143456298Y-110866374D01*
X143256339Y-110826600D01*
X143178626Y-110826600D01*
X143046648Y-110756055D01*
X142903387Y-110712598D01*
X142791734Y-110701601D01*
X142791723Y-110701601D01*
X142754401Y-110697925D01*
X142717079Y-110701601D01*
X140130712Y-110701601D01*
X140086775Y-110657664D01*
X139917257Y-110544396D01*
X139728899Y-110466375D01*
X139528940Y-110426601D01*
X139325062Y-110426601D01*
X139125103Y-110466375D01*
X138936745Y-110544396D01*
X138767227Y-110657664D01*
X138623064Y-110801827D01*
X138509796Y-110971345D01*
X138431775Y-111159703D01*
X138392001Y-111359662D01*
X127786782Y-111359662D01*
X127780902Y-111352498D01*
X127592848Y-111198167D01*
X127378300Y-111083489D01*
X127145501Y-111012870D01*
X126903400Y-110989025D01*
X126661298Y-111012870D01*
X126428499Y-111083489D01*
X126213951Y-111198167D01*
X126025898Y-111352498D01*
X125871567Y-111540552D01*
X125756889Y-111755100D01*
X125686270Y-111987899D01*
X125668400Y-112169336D01*
X111628400Y-112169336D01*
X111628400Y-112169335D01*
X111610530Y-111987898D01*
X111539911Y-111755099D01*
X111425233Y-111540551D01*
X111270902Y-111352498D01*
X111082848Y-111198167D01*
X110868300Y-111083489D01*
X110635501Y-111012870D01*
X110393400Y-110989025D01*
X110151298Y-111012870D01*
X110117182Y-111023219D01*
X114740140Y-106400261D01*
X147428000Y-106400261D01*
X147428000Y-106604139D01*
X147467774Y-106804098D01*
X147545795Y-106992456D01*
X147659063Y-107161974D01*
X147803226Y-107306137D01*
X147972744Y-107419405D01*
X148161102Y-107497426D01*
X148361061Y-107537200D01*
X148564939Y-107537200D01*
X148764898Y-107497426D01*
X148953256Y-107419405D01*
X149122774Y-107306137D01*
X149166711Y-107262200D01*
X149600963Y-107262200D01*
X149638285Y-107265876D01*
X149675607Y-107262200D01*
X149675618Y-107262200D01*
X149787271Y-107251203D01*
X149930532Y-107207746D01*
X150062561Y-107137174D01*
X150178286Y-107042201D01*
X150202089Y-107013197D01*
X151666403Y-105548884D01*
X151695401Y-105525086D01*
X151790374Y-105409361D01*
X151860946Y-105277332D01*
X151895994Y-105161793D01*
X152224200Y-105490000D01*
X152224201Y-110167288D01*
X152180263Y-110211226D01*
X152066995Y-110380744D01*
X151988974Y-110569102D01*
X151949200Y-110769061D01*
X151949200Y-110972939D01*
X151988974Y-111172898D01*
X152066995Y-111361256D01*
X152180263Y-111530774D01*
X152324426Y-111674937D01*
X152493944Y-111788205D01*
X152682302Y-111866226D01*
X152882261Y-111906000D01*
X153086139Y-111906000D01*
X153286098Y-111866226D01*
X153474456Y-111788205D01*
X153643974Y-111674937D01*
X153788137Y-111530774D01*
X153901405Y-111361256D01*
X153979426Y-111172898D01*
X154019200Y-110972939D01*
X154019200Y-110769061D01*
X153979426Y-110569102D01*
X153901405Y-110380744D01*
X153788137Y-110211226D01*
X153744200Y-110167289D01*
X153744200Y-107517861D01*
X154082800Y-107517861D01*
X154082800Y-107721739D01*
X154122574Y-107921698D01*
X154200595Y-108110056D01*
X154313863Y-108279574D01*
X154458026Y-108423737D01*
X154627544Y-108537005D01*
X154815902Y-108615026D01*
X155015861Y-108654800D01*
X155219739Y-108654800D01*
X155419698Y-108615026D01*
X155608056Y-108537005D01*
X155777574Y-108423737D01*
X155832524Y-108368787D01*
X155975732Y-108325346D01*
X156107761Y-108254774D01*
X156223486Y-108159801D01*
X156247289Y-108130797D01*
X156618401Y-107759685D01*
X156618400Y-111256489D01*
X156574463Y-111300426D01*
X156461195Y-111469944D01*
X156383174Y-111658302D01*
X156343400Y-111858261D01*
X156343400Y-112062139D01*
X156383174Y-112262098D01*
X156461195Y-112450456D01*
X156574463Y-112619974D01*
X156718626Y-112764137D01*
X156888144Y-112877405D01*
X157076502Y-112955426D01*
X157276461Y-112995200D01*
X157480339Y-112995200D01*
X157680298Y-112955426D01*
X157868656Y-112877405D01*
X158038174Y-112764137D01*
X158182337Y-112619974D01*
X158295605Y-112450456D01*
X158373626Y-112262098D01*
X158413400Y-112062139D01*
X158413400Y-111858261D01*
X158373626Y-111658302D01*
X158295605Y-111469944D01*
X158182337Y-111300426D01*
X158138400Y-111256489D01*
X158138400Y-109665400D01*
X163078528Y-109665400D01*
X163078528Y-111365400D01*
X163090788Y-111489882D01*
X163127098Y-111609580D01*
X163186063Y-111719894D01*
X163265415Y-111816585D01*
X163362106Y-111895937D01*
X163472420Y-111954902D01*
X163553066Y-111979366D01*
X163469012Y-112055131D01*
X163294959Y-112288480D01*
X163169775Y-112551301D01*
X163125124Y-112698510D01*
X163246445Y-112928400D01*
X164439600Y-112928400D01*
X164439600Y-112908400D01*
X164693600Y-112908400D01*
X164693600Y-112928400D01*
X165886755Y-112928400D01*
X166008076Y-112698510D01*
X165963425Y-112551301D01*
X165838241Y-112288480D01*
X165664188Y-112055131D01*
X165580134Y-111979366D01*
X165660780Y-111954902D01*
X165771094Y-111895937D01*
X165867785Y-111816585D01*
X165947137Y-111719894D01*
X166006102Y-111609580D01*
X166042412Y-111489882D01*
X166054672Y-111365400D01*
X166054672Y-109665400D01*
X166042412Y-109540918D01*
X166006102Y-109421220D01*
X165947137Y-109310906D01*
X165867785Y-109214215D01*
X165771094Y-109134863D01*
X165660780Y-109075898D01*
X165541082Y-109039588D01*
X165416600Y-109027328D01*
X163716600Y-109027328D01*
X163592118Y-109039588D01*
X163472420Y-109075898D01*
X163362106Y-109134863D01*
X163265415Y-109214215D01*
X163186063Y-109310906D01*
X163127098Y-109421220D01*
X163090788Y-109540918D01*
X163078528Y-109665400D01*
X158138400Y-109665400D01*
X158138400Y-107807601D01*
X158637402Y-107308600D01*
X158699539Y-107308600D01*
X158899498Y-107268826D01*
X159087856Y-107190805D01*
X159257374Y-107077537D01*
X159401537Y-106933374D01*
X159514805Y-106763856D01*
X159592826Y-106575498D01*
X159632600Y-106375539D01*
X159632600Y-106171661D01*
X159592826Y-105971702D01*
X159514805Y-105783344D01*
X159401537Y-105613826D01*
X159257374Y-105469663D01*
X159087856Y-105356395D01*
X159041071Y-105337016D01*
X159863487Y-104514600D01*
X159925624Y-104514600D01*
X160125583Y-104474826D01*
X160313941Y-104396805D01*
X160483459Y-104283537D01*
X160627622Y-104139374D01*
X160740890Y-103969856D01*
X160818911Y-103781498D01*
X160858685Y-103581539D01*
X160858685Y-103377661D01*
X160818911Y-103177702D01*
X160740890Y-102989344D01*
X160627622Y-102819826D01*
X160483459Y-102675663D01*
X160313941Y-102562395D01*
X160125583Y-102484374D01*
X159925624Y-102444600D01*
X159721746Y-102444600D01*
X159521787Y-102484374D01*
X159333429Y-102562395D01*
X159163911Y-102675663D01*
X159019748Y-102819826D01*
X158906480Y-102989344D01*
X158828459Y-103177702D01*
X158788685Y-103377661D01*
X158788685Y-103439798D01*
X155549955Y-106678529D01*
X155419698Y-106624574D01*
X155219739Y-106584800D01*
X155015861Y-106584800D01*
X154815902Y-106624574D01*
X154627544Y-106702595D01*
X154458026Y-106815863D01*
X154313863Y-106960026D01*
X154200595Y-107129544D01*
X154122574Y-107317902D01*
X154082800Y-107517861D01*
X153744200Y-107517861D01*
X153744200Y-105212521D01*
X153747876Y-105175198D01*
X153744200Y-105137875D01*
X153744200Y-105137865D01*
X153733203Y-105026212D01*
X153689746Y-104882951D01*
X153619174Y-104750922D01*
X153524201Y-104635197D01*
X153495204Y-104611400D01*
X150797800Y-101913997D01*
X150797800Y-94944861D01*
X155810000Y-94944861D01*
X155810000Y-95148739D01*
X155849774Y-95348698D01*
X155927795Y-95537056D01*
X156041063Y-95706574D01*
X156185226Y-95850737D01*
X156354744Y-95964005D01*
X156543102Y-96042026D01*
X156743061Y-96081800D01*
X156946939Y-96081800D01*
X157146898Y-96042026D01*
X157335256Y-95964005D01*
X157504774Y-95850737D01*
X157648937Y-95706574D01*
X157762205Y-95537056D01*
X157840226Y-95348698D01*
X157880000Y-95148739D01*
X157880000Y-95086601D01*
X161433208Y-91533393D01*
X164017812Y-91533393D01*
X164083337Y-91772260D01*
X164330316Y-91888160D01*
X164595160Y-91953650D01*
X164867692Y-91966212D01*
X165137438Y-91925365D01*
X165394032Y-91832677D01*
X165507063Y-91772260D01*
X165572588Y-91533393D01*
X164795200Y-90756005D01*
X164017812Y-91533393D01*
X161433208Y-91533393D01*
X162317709Y-90648892D01*
X163405388Y-90648892D01*
X163446235Y-90918638D01*
X163538923Y-91175232D01*
X163599340Y-91288263D01*
X163838207Y-91353788D01*
X164615595Y-90576400D01*
X164974805Y-90576400D01*
X165752193Y-91353788D01*
X165991060Y-91288263D01*
X166106960Y-91041284D01*
X166172450Y-90776440D01*
X166185012Y-90503908D01*
X166144165Y-90234162D01*
X166051477Y-89977568D01*
X165991060Y-89864537D01*
X165752193Y-89799012D01*
X164974805Y-90576400D01*
X164615595Y-90576400D01*
X163838207Y-89799012D01*
X163599340Y-89864537D01*
X163483440Y-90111516D01*
X163417950Y-90376360D01*
X163405388Y-90648892D01*
X162317709Y-90648892D01*
X162766203Y-90200399D01*
X162795201Y-90176601D01*
X162890174Y-90060876D01*
X162960746Y-89928847D01*
X163004203Y-89785586D01*
X163015200Y-89673933D01*
X163015200Y-89673924D01*
X163018876Y-89636601D01*
X163017183Y-89619407D01*
X164017812Y-89619407D01*
X164795200Y-90396795D01*
X165572588Y-89619407D01*
X165507063Y-89380540D01*
X165260084Y-89264640D01*
X164995240Y-89199150D01*
X164722708Y-89186588D01*
X164452962Y-89227435D01*
X164196368Y-89320123D01*
X164083337Y-89380540D01*
X164017812Y-89619407D01*
X163017183Y-89619407D01*
X163015200Y-89599278D01*
X163015200Y-89194309D01*
X163138086Y-89112199D01*
X163330999Y-88919286D01*
X163482571Y-88692443D01*
X163586975Y-88440389D01*
X163640200Y-88172811D01*
X163640200Y-87899989D01*
X163586975Y-87632411D01*
X163482571Y-87380357D01*
X163330999Y-87153514D01*
X163138086Y-86960601D01*
X162911243Y-86809029D01*
X162659189Y-86704625D01*
X162391611Y-86651400D01*
X162118789Y-86651400D01*
X161851211Y-86704625D01*
X161599157Y-86809029D01*
X161372314Y-86960601D01*
X161179401Y-87153514D01*
X161027829Y-87380357D01*
X160923425Y-87632411D01*
X160870200Y-87899989D01*
X160870200Y-88172811D01*
X160923425Y-88440389D01*
X161027829Y-88692443D01*
X161179401Y-88919286D01*
X161372314Y-89112199D01*
X161495201Y-89194309D01*
X161495201Y-89321797D01*
X160925481Y-89891517D01*
X160911060Y-89864537D01*
X160672193Y-89799012D01*
X159894805Y-90576400D01*
X159908948Y-90590543D01*
X159729343Y-90770148D01*
X159715200Y-90756005D01*
X158937812Y-91533393D01*
X159003337Y-91772260D01*
X159031515Y-91785483D01*
X156805199Y-94011800D01*
X156743061Y-94011800D01*
X156543102Y-94051574D01*
X156354744Y-94129595D01*
X156185226Y-94242863D01*
X156041063Y-94387026D01*
X155927795Y-94556544D01*
X155849774Y-94744902D01*
X155810000Y-94944861D01*
X150797800Y-94944861D01*
X150797800Y-91533393D01*
X151800412Y-91533393D01*
X151865937Y-91772260D01*
X152112916Y-91888160D01*
X152377760Y-91953650D01*
X152650292Y-91966212D01*
X152920038Y-91925365D01*
X153176632Y-91832677D01*
X153289663Y-91772260D01*
X153355188Y-91533393D01*
X152577800Y-90756005D01*
X151800412Y-91533393D01*
X150797800Y-91533393D01*
X150797800Y-90648892D01*
X151187988Y-90648892D01*
X151228835Y-90918638D01*
X151321523Y-91175232D01*
X151381940Y-91288263D01*
X151620807Y-91353788D01*
X152398195Y-90576400D01*
X152757405Y-90576400D01*
X153534793Y-91353788D01*
X153773660Y-91288263D01*
X153889560Y-91041284D01*
X153955050Y-90776440D01*
X153960929Y-90648892D01*
X158325388Y-90648892D01*
X158366235Y-90918638D01*
X158458923Y-91175232D01*
X158519340Y-91288263D01*
X158758207Y-91353788D01*
X159535595Y-90576400D01*
X158758207Y-89799012D01*
X158519340Y-89864537D01*
X158403440Y-90111516D01*
X158337950Y-90376360D01*
X158325388Y-90648892D01*
X153960929Y-90648892D01*
X153967612Y-90503908D01*
X153926765Y-90234162D01*
X153834077Y-89977568D01*
X153773660Y-89864537D01*
X153534793Y-89799012D01*
X152757405Y-90576400D01*
X152398195Y-90576400D01*
X151620807Y-89799012D01*
X151381940Y-89864537D01*
X151266040Y-90111516D01*
X151200550Y-90376360D01*
X151187988Y-90648892D01*
X150797800Y-90648892D01*
X150797800Y-89619407D01*
X151800412Y-89619407D01*
X152577800Y-90396795D01*
X153355188Y-89619407D01*
X158937812Y-89619407D01*
X159715200Y-90396795D01*
X160492588Y-89619407D01*
X160427063Y-89380540D01*
X160180084Y-89264640D01*
X159915240Y-89199150D01*
X159642708Y-89186588D01*
X159372962Y-89227435D01*
X159116368Y-89320123D01*
X159003337Y-89380540D01*
X158937812Y-89619407D01*
X153355188Y-89619407D01*
X153289663Y-89380540D01*
X153042684Y-89264640D01*
X152777840Y-89199150D01*
X152505308Y-89186588D01*
X152235562Y-89227435D01*
X151978968Y-89320123D01*
X151865937Y-89380540D01*
X151800412Y-89619407D01*
X150797800Y-89619407D01*
X150797800Y-89194309D01*
X150920686Y-89112199D01*
X151113599Y-88919286D01*
X151265171Y-88692443D01*
X151369575Y-88440389D01*
X151422800Y-88172811D01*
X151422800Y-87899989D01*
X151369575Y-87632411D01*
X151265171Y-87380357D01*
X151113599Y-87153514D01*
X150920686Y-86960601D01*
X150693843Y-86809029D01*
X150441789Y-86704625D01*
X150174211Y-86651400D01*
X149901389Y-86651400D01*
X149633811Y-86704625D01*
X149381757Y-86809029D01*
X149154914Y-86960601D01*
X148962001Y-87153514D01*
X148810429Y-87380357D01*
X148706025Y-87632411D01*
X148652800Y-87899989D01*
X148652800Y-88172811D01*
X148706025Y-88440389D01*
X148810429Y-88692443D01*
X148962001Y-88919286D01*
X149154914Y-89112199D01*
X149277800Y-89194309D01*
X149277801Y-102191466D01*
X149274124Y-102228798D01*
X149288798Y-102377783D01*
X149332254Y-102521044D01*
X149402826Y-102653074D01*
X149457423Y-102719600D01*
X149497800Y-102768799D01*
X149526798Y-102792597D01*
X150422645Y-103688444D01*
X150351463Y-103759626D01*
X150238195Y-103929144D01*
X150160174Y-104117502D01*
X150120400Y-104317461D01*
X150120400Y-104521339D01*
X150160174Y-104721298D01*
X150214129Y-104851555D01*
X149323484Y-105742200D01*
X149166711Y-105742200D01*
X149122774Y-105698263D01*
X148953256Y-105584995D01*
X148764898Y-105506974D01*
X148564939Y-105467200D01*
X148361061Y-105467200D01*
X148161102Y-105506974D01*
X147972744Y-105584995D01*
X147803226Y-105698263D01*
X147659063Y-105842426D01*
X147545795Y-106011944D01*
X147467774Y-106200302D01*
X147428000Y-106400261D01*
X114740140Y-106400261D01*
X115351402Y-105789000D01*
X120860689Y-105789000D01*
X120904626Y-105832937D01*
X121074144Y-105946205D01*
X121262502Y-106024226D01*
X121462461Y-106064000D01*
X121666339Y-106064000D01*
X121866298Y-106024226D01*
X122054656Y-105946205D01*
X122224174Y-105832937D01*
X122368337Y-105688774D01*
X122481605Y-105519256D01*
X122559626Y-105330898D01*
X122599400Y-105130939D01*
X122599400Y-104927061D01*
X122559626Y-104727102D01*
X122481605Y-104538744D01*
X122368337Y-104369226D01*
X122224174Y-104225063D01*
X122054656Y-104111795D01*
X121866298Y-104033774D01*
X121666339Y-103994000D01*
X121462461Y-103994000D01*
X121262502Y-104033774D01*
X121074144Y-104111795D01*
X120904626Y-104225063D01*
X120860689Y-104269000D01*
X115073923Y-104269000D01*
X115036600Y-104265324D01*
X114999277Y-104269000D01*
X114999267Y-104269000D01*
X114887614Y-104279997D01*
X114764110Y-104317461D01*
X114744353Y-104323454D01*
X114612323Y-104394026D01*
X114528683Y-104462668D01*
X114496599Y-104488999D01*
X114472801Y-104517997D01*
X107783199Y-111207600D01*
X107721061Y-111207600D01*
X107521102Y-111247374D01*
X107332744Y-111325395D01*
X107163226Y-111438663D01*
X107019063Y-111582826D01*
X106905795Y-111752344D01*
X106827774Y-111940702D01*
X106788000Y-112140661D01*
X105001518Y-112140661D01*
X104855793Y-111900543D01*
X104703463Y-111734320D01*
X104764180Y-111715902D01*
X104874494Y-111656937D01*
X104971185Y-111577585D01*
X105050537Y-111480894D01*
X105109502Y-111370580D01*
X105145812Y-111250882D01*
X105158072Y-111126400D01*
X105158072Y-109396400D01*
X105145812Y-109271918D01*
X105109502Y-109152220D01*
X105050537Y-109041906D01*
X104971185Y-108945215D01*
X104874494Y-108865863D01*
X104764180Y-108806898D01*
X104644482Y-108770588D01*
X104520000Y-108758328D01*
X102490000Y-108758328D01*
X102365518Y-108770588D01*
X102245820Y-108806898D01*
X102135506Y-108865863D01*
X102038815Y-108945215D01*
X101959463Y-109041906D01*
X101900498Y-109152220D01*
X101864188Y-109271918D01*
X101851928Y-109396400D01*
X98660000Y-109396400D01*
X98660000Y-105068390D01*
X102063524Y-105068390D01*
X102108175Y-105215599D01*
X102233359Y-105478420D01*
X102407412Y-105711769D01*
X102623645Y-105906678D01*
X102873748Y-106055657D01*
X103148109Y-106152981D01*
X103378000Y-106032314D01*
X103378000Y-104838500D01*
X103632000Y-104838500D01*
X103632000Y-106032314D01*
X103861891Y-106152981D01*
X104136252Y-106055657D01*
X104386355Y-105906678D01*
X104602588Y-105711769D01*
X104776641Y-105478420D01*
X104901825Y-105215599D01*
X104946476Y-105068390D01*
X104825155Y-104838500D01*
X103632000Y-104838500D01*
X103378000Y-104838500D01*
X102184845Y-104838500D01*
X102063524Y-105068390D01*
X98660000Y-105068390D01*
X98660000Y-101321500D01*
X102016928Y-101321500D01*
X102016928Y-103021500D01*
X102029188Y-103145982D01*
X102065498Y-103265680D01*
X102124463Y-103375994D01*
X102203815Y-103472685D01*
X102300506Y-103552037D01*
X102410820Y-103611002D01*
X102491466Y-103635466D01*
X102407412Y-103711231D01*
X102233359Y-103944580D01*
X102108175Y-104207401D01*
X102063524Y-104354610D01*
X102184845Y-104584500D01*
X103378000Y-104584500D01*
X103378000Y-104564500D01*
X103632000Y-104564500D01*
X103632000Y-104584500D01*
X104825155Y-104584500D01*
X104946476Y-104354610D01*
X104901825Y-104207401D01*
X104776641Y-103944580D01*
X104602588Y-103711231D01*
X104518534Y-103635466D01*
X104599180Y-103611002D01*
X104709494Y-103552037D01*
X104806185Y-103472685D01*
X104885537Y-103375994D01*
X104944502Y-103265680D01*
X104980812Y-103145982D01*
X104993072Y-103021500D01*
X104993072Y-102260061D01*
X132746800Y-102260061D01*
X132746800Y-102463939D01*
X132786574Y-102663898D01*
X132864595Y-102852256D01*
X132977863Y-103021774D01*
X133122026Y-103165937D01*
X133291544Y-103279205D01*
X133479902Y-103357226D01*
X133679861Y-103397000D01*
X133883739Y-103397000D01*
X134083698Y-103357226D01*
X134272056Y-103279205D01*
X134441574Y-103165937D01*
X134485511Y-103122000D01*
X139891278Y-103122000D01*
X139928600Y-103125676D01*
X139965922Y-103122000D01*
X139965933Y-103122000D01*
X140077586Y-103111003D01*
X140220847Y-103067546D01*
X140352876Y-102996974D01*
X140468601Y-102902001D01*
X140492404Y-102872997D01*
X141289202Y-102076200D01*
X141351339Y-102076200D01*
X141551298Y-102036426D01*
X141739656Y-101958405D01*
X141909174Y-101845137D01*
X142053337Y-101700974D01*
X142166605Y-101531456D01*
X142244626Y-101343098D01*
X142284400Y-101143139D01*
X142284400Y-100939261D01*
X142244626Y-100739302D01*
X142166605Y-100550944D01*
X142053337Y-100381426D01*
X141909174Y-100237263D01*
X141832188Y-100185823D01*
X141850137Y-100167874D01*
X141963405Y-99998356D01*
X142041426Y-99809998D01*
X142081200Y-99610039D01*
X142081200Y-99406161D01*
X142041426Y-99206202D01*
X141963405Y-99017844D01*
X141850137Y-98848326D01*
X141795187Y-98793376D01*
X141751746Y-98650168D01*
X141681174Y-98518139D01*
X141586201Y-98402414D01*
X141557202Y-98378615D01*
X141067188Y-97888602D01*
X141043386Y-97859599D01*
X140927661Y-97764626D01*
X140795632Y-97694054D01*
X140652371Y-97650597D01*
X140540718Y-97639600D01*
X140540707Y-97639600D01*
X140503385Y-97635924D01*
X140466063Y-97639600D01*
X137076311Y-97639600D01*
X137032374Y-97595663D01*
X136862856Y-97482395D01*
X136674498Y-97404374D01*
X136474539Y-97364600D01*
X136270661Y-97364600D01*
X136070702Y-97404374D01*
X135882344Y-97482395D01*
X135712826Y-97595663D01*
X135568663Y-97739826D01*
X135455395Y-97909344D01*
X135377374Y-98097702D01*
X135337600Y-98297661D01*
X135337600Y-98501539D01*
X135377374Y-98701498D01*
X135455395Y-98889856D01*
X135568663Y-99059374D01*
X135712826Y-99203537D01*
X135882344Y-99316805D01*
X136070702Y-99394826D01*
X136270661Y-99434600D01*
X136474539Y-99434600D01*
X136674498Y-99394826D01*
X136862856Y-99316805D01*
X137032374Y-99203537D01*
X137076311Y-99159600D01*
X140070277Y-99159600D01*
X140050974Y-99206202D01*
X140011200Y-99406161D01*
X140011200Y-99610039D01*
X140050974Y-99809998D01*
X140128995Y-99998356D01*
X140242263Y-100167874D01*
X140386426Y-100312037D01*
X140463412Y-100363477D01*
X140445463Y-100381426D01*
X140332195Y-100550944D01*
X140254174Y-100739302D01*
X140214400Y-100939261D01*
X140214400Y-101001398D01*
X139613799Y-101602000D01*
X134485511Y-101602000D01*
X134441574Y-101558063D01*
X134272056Y-101444795D01*
X134083698Y-101366774D01*
X133883739Y-101327000D01*
X133679861Y-101327000D01*
X133479902Y-101366774D01*
X133291544Y-101444795D01*
X133122026Y-101558063D01*
X132977863Y-101702226D01*
X132864595Y-101871744D01*
X132786574Y-102060102D01*
X132746800Y-102260061D01*
X104993072Y-102260061D01*
X104993072Y-101321500D01*
X104980812Y-101197018D01*
X104944502Y-101077320D01*
X104885537Y-100967006D01*
X104806185Y-100870315D01*
X104709494Y-100790963D01*
X104599180Y-100731998D01*
X104479482Y-100695688D01*
X104355000Y-100683428D01*
X102655000Y-100683428D01*
X102530518Y-100695688D01*
X102410820Y-100731998D01*
X102300506Y-100790963D01*
X102203815Y-100870315D01*
X102124463Y-100967006D01*
X102065498Y-101077320D01*
X102029188Y-101197018D01*
X102016928Y-101321500D01*
X98660000Y-101321500D01*
X98660000Y-100063300D01*
X110902815Y-100063300D01*
X110931487Y-100354411D01*
X111016401Y-100634334D01*
X111154294Y-100892314D01*
X111339866Y-101118434D01*
X111565986Y-101304006D01*
X111823966Y-101441899D01*
X112103889Y-101526813D01*
X112322050Y-101548300D01*
X112467950Y-101548300D01*
X112686111Y-101526813D01*
X112966034Y-101441899D01*
X113224014Y-101304006D01*
X113450134Y-101118434D01*
X113635706Y-100892314D01*
X113773599Y-100634334D01*
X113858513Y-100354411D01*
X113887185Y-100063300D01*
X113858513Y-99772189D01*
X113773599Y-99492266D01*
X113635706Y-99234286D01*
X113450134Y-99008166D01*
X113420313Y-98983693D01*
X113489180Y-98962802D01*
X113599494Y-98903837D01*
X113696185Y-98824485D01*
X113775537Y-98727794D01*
X113834502Y-98617480D01*
X113870812Y-98497782D01*
X113883072Y-98373300D01*
X113883072Y-96673300D01*
X113870812Y-96548818D01*
X113834502Y-96429120D01*
X113775537Y-96318806D01*
X113696185Y-96222115D01*
X113599494Y-96142763D01*
X113489180Y-96083798D01*
X113369482Y-96047488D01*
X113245000Y-96035228D01*
X111545000Y-96035228D01*
X111420518Y-96047488D01*
X111300820Y-96083798D01*
X111190506Y-96142763D01*
X111093815Y-96222115D01*
X111014463Y-96318806D01*
X110955498Y-96429120D01*
X110919188Y-96548818D01*
X110906928Y-96673300D01*
X110906928Y-98373300D01*
X110919188Y-98497782D01*
X110955498Y-98617480D01*
X111014463Y-98727794D01*
X111093815Y-98824485D01*
X111190506Y-98903837D01*
X111300820Y-98962802D01*
X111369687Y-98983693D01*
X111339866Y-99008166D01*
X111154294Y-99234286D01*
X111016401Y-99492266D01*
X110931487Y-99772189D01*
X110902815Y-100063300D01*
X98660000Y-100063300D01*
X98660000Y-95674721D01*
X101624000Y-95674721D01*
X101624000Y-96095279D01*
X101706047Y-96507756D01*
X101866988Y-96896302D01*
X102100637Y-97245983D01*
X102398017Y-97543363D01*
X102747698Y-97777012D01*
X103136244Y-97937953D01*
X103548721Y-98020000D01*
X103969279Y-98020000D01*
X104381756Y-97937953D01*
X104770302Y-97777012D01*
X105119983Y-97543363D01*
X105417363Y-97245983D01*
X105651012Y-96896302D01*
X105811953Y-96507756D01*
X105894000Y-96095279D01*
X105894000Y-95674721D01*
X105811953Y-95262244D01*
X105651012Y-94873698D01*
X105417363Y-94524017D01*
X105119983Y-94226637D01*
X104770302Y-93992988D01*
X104381756Y-93832047D01*
X103969279Y-93750000D01*
X103548721Y-93750000D01*
X103136244Y-93832047D01*
X102747698Y-93992988D01*
X102398017Y-94226637D01*
X102100637Y-94524017D01*
X101866988Y-94873698D01*
X101706047Y-95262244D01*
X101624000Y-95674721D01*
X98660000Y-95674721D01*
X98660000Y-89305000D01*
X101620928Y-89305000D01*
X101620928Y-92305000D01*
X101633188Y-92429482D01*
X101669498Y-92549180D01*
X101728463Y-92659494D01*
X101807815Y-92756185D01*
X101904506Y-92835537D01*
X102014820Y-92894502D01*
X102134518Y-92930812D01*
X102259000Y-92943072D01*
X105259000Y-92943072D01*
X105383482Y-92930812D01*
X105396707Y-92926800D01*
X117320428Y-92926800D01*
X117320428Y-94626800D01*
X117332688Y-94751282D01*
X117368998Y-94870980D01*
X117427963Y-94981294D01*
X117507315Y-95077985D01*
X117604006Y-95157337D01*
X117714320Y-95216302D01*
X117834018Y-95252612D01*
X117958500Y-95264872D01*
X119658500Y-95264872D01*
X119782982Y-95252612D01*
X119902680Y-95216302D01*
X120012994Y-95157337D01*
X120109685Y-95077985D01*
X120189037Y-94981294D01*
X120248002Y-94870980D01*
X120268893Y-94802113D01*
X120293366Y-94831934D01*
X120519486Y-95017506D01*
X120777466Y-95155399D01*
X121057389Y-95240313D01*
X121275550Y-95261800D01*
X121421450Y-95261800D01*
X121639611Y-95240313D01*
X121919534Y-95155399D01*
X122177514Y-95017506D01*
X122403634Y-94831934D01*
X122589206Y-94605814D01*
X122727099Y-94347834D01*
X122812013Y-94067911D01*
X122840685Y-93776800D01*
X122812013Y-93485689D01*
X122727099Y-93205766D01*
X122589206Y-92947786D01*
X122403634Y-92721666D01*
X122177514Y-92536094D01*
X121919534Y-92398201D01*
X121639611Y-92313287D01*
X121421450Y-92291800D01*
X121275550Y-92291800D01*
X121057389Y-92313287D01*
X120777466Y-92398201D01*
X120519486Y-92536094D01*
X120293366Y-92721666D01*
X120268893Y-92751487D01*
X120248002Y-92682620D01*
X120189037Y-92572306D01*
X120109685Y-92475615D01*
X120012994Y-92396263D01*
X119902680Y-92337298D01*
X119782982Y-92300988D01*
X119658500Y-92288728D01*
X117958500Y-92288728D01*
X117834018Y-92300988D01*
X117714320Y-92337298D01*
X117604006Y-92396263D01*
X117507315Y-92475615D01*
X117427963Y-92572306D01*
X117368998Y-92682620D01*
X117332688Y-92802318D01*
X117320428Y-92926800D01*
X105396707Y-92926800D01*
X105503180Y-92894502D01*
X105613494Y-92835537D01*
X105710185Y-92756185D01*
X105789537Y-92659494D01*
X105848502Y-92549180D01*
X105884812Y-92429482D01*
X105897072Y-92305000D01*
X105897072Y-91533393D01*
X146720412Y-91533393D01*
X146785937Y-91772260D01*
X147032916Y-91888160D01*
X147297760Y-91953650D01*
X147570292Y-91966212D01*
X147840038Y-91925365D01*
X148096632Y-91832677D01*
X148209663Y-91772260D01*
X148275188Y-91533393D01*
X147497800Y-90756005D01*
X146720412Y-91533393D01*
X105897072Y-91533393D01*
X105897072Y-90648892D01*
X146107988Y-90648892D01*
X146148835Y-90918638D01*
X146241523Y-91175232D01*
X146301940Y-91288263D01*
X146540807Y-91353788D01*
X147318195Y-90576400D01*
X147677405Y-90576400D01*
X148454793Y-91353788D01*
X148693660Y-91288263D01*
X148809560Y-91041284D01*
X148875050Y-90776440D01*
X148887612Y-90503908D01*
X148846765Y-90234162D01*
X148754077Y-89977568D01*
X148693660Y-89864537D01*
X148454793Y-89799012D01*
X147677405Y-90576400D01*
X147318195Y-90576400D01*
X146540807Y-89799012D01*
X146301940Y-89864537D01*
X146186040Y-90111516D01*
X146120550Y-90376360D01*
X146107988Y-90648892D01*
X105897072Y-90648892D01*
X105897072Y-89619407D01*
X146720412Y-89619407D01*
X147497800Y-90396795D01*
X148275188Y-89619407D01*
X148209663Y-89380540D01*
X147962684Y-89264640D01*
X147697840Y-89199150D01*
X147425308Y-89186588D01*
X147155562Y-89227435D01*
X146898968Y-89320123D01*
X146785937Y-89380540D01*
X146720412Y-89619407D01*
X105897072Y-89619407D01*
X105897072Y-89305000D01*
X105884812Y-89180518D01*
X105848502Y-89060820D01*
X105789537Y-88950506D01*
X105710185Y-88853815D01*
X105613494Y-88774463D01*
X105503180Y-88715498D01*
X105383482Y-88679188D01*
X105259000Y-88666928D01*
X102259000Y-88666928D01*
X102134518Y-88679188D01*
X102014820Y-88715498D01*
X101904506Y-88774463D01*
X101807815Y-88853815D01*
X101728463Y-88950506D01*
X101669498Y-89060820D01*
X101633188Y-89180518D01*
X101620928Y-89305000D01*
X98660000Y-89305000D01*
X98660000Y-84786323D01*
X99830497Y-84786323D01*
X99830497Y-85213677D01*
X99913870Y-85632821D01*
X100077412Y-86027645D01*
X100314837Y-86382977D01*
X100617023Y-86685163D01*
X100972355Y-86922588D01*
X101367179Y-87086130D01*
X101786323Y-87169503D01*
X102213677Y-87169503D01*
X102632821Y-87086130D01*
X103027645Y-86922588D01*
X103382977Y-86685163D01*
X103685163Y-86382977D01*
X103922588Y-86027645D01*
X104009439Y-85817967D01*
X111776000Y-85817967D01*
X111776000Y-86140033D01*
X111838832Y-86455912D01*
X111962082Y-86753463D01*
X112141013Y-87021252D01*
X112368748Y-87248987D01*
X112636537Y-87427918D01*
X112934088Y-87551168D01*
X113249967Y-87614000D01*
X113572033Y-87614000D01*
X113887912Y-87551168D01*
X114185463Y-87427918D01*
X114453252Y-87248987D01*
X114680987Y-87021252D01*
X114859918Y-86753463D01*
X114983168Y-86455912D01*
X115046000Y-86140033D01*
X115046000Y-85817967D01*
X117567200Y-85817967D01*
X117567200Y-86140033D01*
X117630032Y-86455912D01*
X117753282Y-86753463D01*
X117932213Y-87021252D01*
X118159948Y-87248987D01*
X118427737Y-87427918D01*
X118725288Y-87551168D01*
X119041167Y-87614000D01*
X119363233Y-87614000D01*
X119679112Y-87551168D01*
X119976663Y-87427918D01*
X120244452Y-87248987D01*
X120379026Y-87114413D01*
X123961392Y-87114413D01*
X124057156Y-87378814D01*
X124346771Y-87519704D01*
X124658308Y-87601384D01*
X124979795Y-87620718D01*
X125298875Y-87576961D01*
X125603288Y-87471795D01*
X125777244Y-87378814D01*
X125873008Y-87114413D01*
X124917200Y-86158605D01*
X123961392Y-87114413D01*
X120379026Y-87114413D01*
X120472187Y-87021252D01*
X120651118Y-86753463D01*
X120774368Y-86455912D01*
X120837200Y-86140033D01*
X120837200Y-86041595D01*
X123275482Y-86041595D01*
X123319239Y-86360675D01*
X123424405Y-86665088D01*
X123517386Y-86839044D01*
X123781787Y-86934808D01*
X124737595Y-85979000D01*
X125096805Y-85979000D01*
X126052613Y-86934808D01*
X126317014Y-86839044D01*
X126457904Y-86549429D01*
X126539584Y-86237892D01*
X126558918Y-85916405D01*
X126545419Y-85817967D01*
X128971800Y-85817967D01*
X128971800Y-86140033D01*
X129034632Y-86455912D01*
X129157882Y-86753463D01*
X129336813Y-87021252D01*
X129564548Y-87248987D01*
X129832337Y-87427918D01*
X130129888Y-87551168D01*
X130445767Y-87614000D01*
X130767833Y-87614000D01*
X131083712Y-87551168D01*
X131381263Y-87427918D01*
X131649052Y-87248987D01*
X131876787Y-87021252D01*
X132055718Y-86753463D01*
X132178968Y-86455912D01*
X132241800Y-86140033D01*
X132241800Y-85817967D01*
X134966200Y-85817967D01*
X134966200Y-86140033D01*
X135029032Y-86455912D01*
X135152282Y-86753463D01*
X135331213Y-87021252D01*
X135558948Y-87248987D01*
X135826737Y-87427918D01*
X136124288Y-87551168D01*
X136440167Y-87614000D01*
X136762233Y-87614000D01*
X137078112Y-87551168D01*
X137375663Y-87427918D01*
X137643452Y-87248987D01*
X137871187Y-87021252D01*
X138050118Y-86753463D01*
X138173368Y-86455912D01*
X138173869Y-86453393D01*
X146720412Y-86453393D01*
X146785937Y-86692260D01*
X147032916Y-86808160D01*
X147297760Y-86873650D01*
X147570292Y-86886212D01*
X147840038Y-86845365D01*
X148096632Y-86752677D01*
X148209663Y-86692260D01*
X148275188Y-86453393D01*
X151800412Y-86453393D01*
X151865937Y-86692260D01*
X152112916Y-86808160D01*
X152377760Y-86873650D01*
X152650292Y-86886212D01*
X152920038Y-86845365D01*
X153176632Y-86752677D01*
X153289663Y-86692260D01*
X153355188Y-86453393D01*
X158937812Y-86453393D01*
X159003337Y-86692260D01*
X159250316Y-86808160D01*
X159515160Y-86873650D01*
X159787692Y-86886212D01*
X160057438Y-86845365D01*
X160314032Y-86752677D01*
X160427063Y-86692260D01*
X160492588Y-86453393D01*
X164017812Y-86453393D01*
X164083337Y-86692260D01*
X164330316Y-86808160D01*
X164595160Y-86873650D01*
X164867692Y-86886212D01*
X165137438Y-86845365D01*
X165394032Y-86752677D01*
X165507063Y-86692260D01*
X165572588Y-86453393D01*
X164795200Y-85676005D01*
X164017812Y-86453393D01*
X160492588Y-86453393D01*
X159715200Y-85676005D01*
X158937812Y-86453393D01*
X153355188Y-86453393D01*
X152577800Y-85676005D01*
X151800412Y-86453393D01*
X148275188Y-86453393D01*
X147497800Y-85676005D01*
X146720412Y-86453393D01*
X138173869Y-86453393D01*
X138236200Y-86140033D01*
X138236200Y-85817967D01*
X138186657Y-85568892D01*
X146107988Y-85568892D01*
X146148835Y-85838638D01*
X146241523Y-86095232D01*
X146301940Y-86208263D01*
X146540807Y-86273788D01*
X147318195Y-85496400D01*
X147677405Y-85496400D01*
X148454793Y-86273788D01*
X148693660Y-86208263D01*
X148809560Y-85961284D01*
X148875050Y-85696440D01*
X148880929Y-85568892D01*
X151187988Y-85568892D01*
X151228835Y-85838638D01*
X151321523Y-86095232D01*
X151381940Y-86208263D01*
X151620807Y-86273788D01*
X152398195Y-85496400D01*
X152757405Y-85496400D01*
X153534793Y-86273788D01*
X153773660Y-86208263D01*
X153889560Y-85961284D01*
X153955050Y-85696440D01*
X153960929Y-85568892D01*
X158325388Y-85568892D01*
X158366235Y-85838638D01*
X158458923Y-86095232D01*
X158519340Y-86208263D01*
X158758207Y-86273788D01*
X159535595Y-85496400D01*
X159894805Y-85496400D01*
X160672193Y-86273788D01*
X160911060Y-86208263D01*
X161026960Y-85961284D01*
X161092450Y-85696440D01*
X161098329Y-85568892D01*
X163405388Y-85568892D01*
X163446235Y-85838638D01*
X163538923Y-86095232D01*
X163599340Y-86208263D01*
X163838207Y-86273788D01*
X164615595Y-85496400D01*
X164974805Y-85496400D01*
X165752193Y-86273788D01*
X165991060Y-86208263D01*
X166106960Y-85961284D01*
X166172450Y-85696440D01*
X166185012Y-85423908D01*
X166144165Y-85154162D01*
X166051477Y-84897568D01*
X165992015Y-84786323D01*
X166830497Y-84786323D01*
X166830497Y-85213677D01*
X166913870Y-85632821D01*
X167077412Y-86027645D01*
X167314837Y-86382977D01*
X167617023Y-86685163D01*
X167972355Y-86922588D01*
X168367179Y-87086130D01*
X168786323Y-87169503D01*
X169213677Y-87169503D01*
X169632821Y-87086130D01*
X170027645Y-86922588D01*
X170382977Y-86685163D01*
X170685163Y-86382977D01*
X170922588Y-86027645D01*
X171086130Y-85632821D01*
X171169503Y-85213677D01*
X171169503Y-84786323D01*
X171086130Y-84367179D01*
X170922588Y-83972355D01*
X170685163Y-83617023D01*
X170382977Y-83314837D01*
X170027645Y-83077412D01*
X169632821Y-82913870D01*
X169213677Y-82830497D01*
X168786323Y-82830497D01*
X168367179Y-82913870D01*
X167972355Y-83077412D01*
X167617023Y-83314837D01*
X167314837Y-83617023D01*
X167077412Y-83972355D01*
X166913870Y-84367179D01*
X166830497Y-84786323D01*
X165992015Y-84786323D01*
X165991060Y-84784537D01*
X165752193Y-84719012D01*
X164974805Y-85496400D01*
X164615595Y-85496400D01*
X163838207Y-84719012D01*
X163599340Y-84784537D01*
X163483440Y-85031516D01*
X163417950Y-85296360D01*
X163405388Y-85568892D01*
X161098329Y-85568892D01*
X161105012Y-85423908D01*
X161064165Y-85154162D01*
X160971477Y-84897568D01*
X160911060Y-84784537D01*
X160672193Y-84719012D01*
X159894805Y-85496400D01*
X159535595Y-85496400D01*
X158758207Y-84719012D01*
X158519340Y-84784537D01*
X158403440Y-85031516D01*
X158337950Y-85296360D01*
X158325388Y-85568892D01*
X153960929Y-85568892D01*
X153967612Y-85423908D01*
X153926765Y-85154162D01*
X153834077Y-84897568D01*
X153773660Y-84784537D01*
X153534793Y-84719012D01*
X152757405Y-85496400D01*
X152398195Y-85496400D01*
X151620807Y-84719012D01*
X151381940Y-84784537D01*
X151266040Y-85031516D01*
X151200550Y-85296360D01*
X151187988Y-85568892D01*
X148880929Y-85568892D01*
X148887612Y-85423908D01*
X148846765Y-85154162D01*
X148754077Y-84897568D01*
X148693660Y-84784537D01*
X148454793Y-84719012D01*
X147677405Y-85496400D01*
X147318195Y-85496400D01*
X146540807Y-84719012D01*
X146301940Y-84784537D01*
X146186040Y-85031516D01*
X146120550Y-85296360D01*
X146107988Y-85568892D01*
X138186657Y-85568892D01*
X138173368Y-85502088D01*
X138050118Y-85204537D01*
X137871187Y-84936748D01*
X137643452Y-84709013D01*
X137389619Y-84539407D01*
X146720412Y-84539407D01*
X147497800Y-85316795D01*
X148275188Y-84539407D01*
X151800412Y-84539407D01*
X152577800Y-85316795D01*
X153355188Y-84539407D01*
X158937812Y-84539407D01*
X159715200Y-85316795D01*
X160492588Y-84539407D01*
X164017812Y-84539407D01*
X164795200Y-85316795D01*
X165572588Y-84539407D01*
X165507063Y-84300540D01*
X165260084Y-84184640D01*
X164995240Y-84119150D01*
X164722708Y-84106588D01*
X164452962Y-84147435D01*
X164196368Y-84240123D01*
X164083337Y-84300540D01*
X164017812Y-84539407D01*
X160492588Y-84539407D01*
X160427063Y-84300540D01*
X160180084Y-84184640D01*
X159915240Y-84119150D01*
X159642708Y-84106588D01*
X159372962Y-84147435D01*
X159116368Y-84240123D01*
X159003337Y-84300540D01*
X158937812Y-84539407D01*
X153355188Y-84539407D01*
X153289663Y-84300540D01*
X153042684Y-84184640D01*
X152777840Y-84119150D01*
X152505308Y-84106588D01*
X152235562Y-84147435D01*
X151978968Y-84240123D01*
X151865937Y-84300540D01*
X151800412Y-84539407D01*
X148275188Y-84539407D01*
X148209663Y-84300540D01*
X147962684Y-84184640D01*
X147697840Y-84119150D01*
X147425308Y-84106588D01*
X147155562Y-84147435D01*
X146898968Y-84240123D01*
X146785937Y-84300540D01*
X146720412Y-84539407D01*
X137389619Y-84539407D01*
X137375663Y-84530082D01*
X137078112Y-84406832D01*
X136762233Y-84344000D01*
X136440167Y-84344000D01*
X136124288Y-84406832D01*
X135826737Y-84530082D01*
X135558948Y-84709013D01*
X135331213Y-84936748D01*
X135152282Y-85204537D01*
X135029032Y-85502088D01*
X134966200Y-85817967D01*
X132241800Y-85817967D01*
X132178968Y-85502088D01*
X132055718Y-85204537D01*
X131876787Y-84936748D01*
X131649052Y-84709013D01*
X131381263Y-84530082D01*
X131083712Y-84406832D01*
X130767833Y-84344000D01*
X130445767Y-84344000D01*
X130129888Y-84406832D01*
X129832337Y-84530082D01*
X129564548Y-84709013D01*
X129336813Y-84936748D01*
X129157882Y-85204537D01*
X129034632Y-85502088D01*
X128971800Y-85817967D01*
X126545419Y-85817967D01*
X126515161Y-85597325D01*
X126409995Y-85292912D01*
X126317014Y-85118956D01*
X126052613Y-85023192D01*
X125096805Y-85979000D01*
X124737595Y-85979000D01*
X123781787Y-85023192D01*
X123517386Y-85118956D01*
X123376496Y-85408571D01*
X123294816Y-85720108D01*
X123275482Y-86041595D01*
X120837200Y-86041595D01*
X120837200Y-85817967D01*
X120774368Y-85502088D01*
X120651118Y-85204537D01*
X120472187Y-84936748D01*
X120379026Y-84843587D01*
X123961392Y-84843587D01*
X124917200Y-85799395D01*
X125873008Y-84843587D01*
X125777244Y-84579186D01*
X125487629Y-84438296D01*
X125176092Y-84356616D01*
X124854605Y-84337282D01*
X124535525Y-84381039D01*
X124231112Y-84486205D01*
X124057156Y-84579186D01*
X123961392Y-84843587D01*
X120379026Y-84843587D01*
X120244452Y-84709013D01*
X119976663Y-84530082D01*
X119679112Y-84406832D01*
X119363233Y-84344000D01*
X119041167Y-84344000D01*
X118725288Y-84406832D01*
X118427737Y-84530082D01*
X118159948Y-84709013D01*
X117932213Y-84936748D01*
X117753282Y-85204537D01*
X117630032Y-85502088D01*
X117567200Y-85817967D01*
X115046000Y-85817967D01*
X114983168Y-85502088D01*
X114859918Y-85204537D01*
X114680987Y-84936748D01*
X114453252Y-84709013D01*
X114185463Y-84530082D01*
X113887912Y-84406832D01*
X113572033Y-84344000D01*
X113249967Y-84344000D01*
X112934088Y-84406832D01*
X112636537Y-84530082D01*
X112368748Y-84709013D01*
X112141013Y-84936748D01*
X111962082Y-85204537D01*
X111838832Y-85502088D01*
X111776000Y-85817967D01*
X104009439Y-85817967D01*
X104086130Y-85632821D01*
X104169503Y-85213677D01*
X104169503Y-84786323D01*
X104086130Y-84367179D01*
X103922588Y-83972355D01*
X103685163Y-83617023D01*
X103382977Y-83314837D01*
X103027645Y-83077412D01*
X102632821Y-82913870D01*
X102213677Y-82830497D01*
X101786323Y-82830497D01*
X101367179Y-82913870D01*
X100972355Y-83077412D01*
X100617023Y-83314837D01*
X100314837Y-83617023D01*
X100077412Y-83972355D01*
X99913870Y-84367179D01*
X99830497Y-84786323D01*
X98660000Y-84786323D01*
X98660000Y-81660000D01*
X172340000Y-81660000D01*
X172340001Y-123340000D01*
X172340001Y-123340000D01*
G37*
X172340001Y-123340000D02*
X98660000Y-123340000D01*
X98660000Y-120297123D01*
X99830497Y-120297123D01*
X99830497Y-120724477D01*
X99913870Y-121143621D01*
X100077412Y-121538445D01*
X100314837Y-121893777D01*
X100617023Y-122195963D01*
X100972355Y-122433388D01*
X101367179Y-122596930D01*
X101786323Y-122680303D01*
X102213677Y-122680303D01*
X102632821Y-122596930D01*
X103027645Y-122433388D01*
X103382977Y-122195963D01*
X103685163Y-121893777D01*
X103922588Y-121538445D01*
X104086130Y-121143621D01*
X104169503Y-120724477D01*
X104169503Y-120297123D01*
X104086130Y-119877979D01*
X103922588Y-119483155D01*
X103732947Y-119199336D01*
X109158400Y-119199336D01*
X109158400Y-120420665D01*
X109176270Y-120602102D01*
X109246889Y-120834901D01*
X109361568Y-121049449D01*
X109515899Y-121237502D01*
X109703952Y-121391833D01*
X109918500Y-121506511D01*
X110151299Y-121577130D01*
X110393400Y-121600975D01*
X110635502Y-121577130D01*
X110868301Y-121506511D01*
X111082849Y-121391833D01*
X111270902Y-121237502D01*
X111425233Y-121049449D01*
X111539911Y-120834901D01*
X111610530Y-120602102D01*
X111614793Y-120558816D01*
X117108400Y-120558816D01*
X117108400Y-120861184D01*
X117167389Y-121157743D01*
X117283101Y-121437095D01*
X117451088Y-121688505D01*
X117664895Y-121902312D01*
X117916305Y-122070299D01*
X118195657Y-122186011D01*
X118492216Y-122245000D01*
X118794584Y-122245000D01*
X119091143Y-122186011D01*
X119370495Y-122070299D01*
X119621905Y-121902312D01*
X119835712Y-121688505D01*
X120003699Y-121437095D01*
X120119411Y-121157743D01*
X120178400Y-120861184D01*
X120178400Y-120558816D01*
X120119411Y-120262257D01*
X120003699Y-119982905D01*
X119835712Y-119731495D01*
X119621905Y-119517688D01*
X119370495Y-119349701D01*
X119091143Y-119233989D01*
X118916930Y-119199336D01*
X125668400Y-119199336D01*
X125668400Y-120420665D01*
X125686270Y-120602102D01*
X125756889Y-120834901D01*
X125871568Y-121049449D01*
X126025899Y-121237502D01*
X126213952Y-121391833D01*
X126428500Y-121506511D01*
X126661299Y-121577130D01*
X126903400Y-121600975D01*
X127145502Y-121577130D01*
X127378301Y-121506511D01*
X127592849Y-121391833D01*
X127780902Y-121237502D01*
X127935233Y-121049449D01*
X128049911Y-120834901D01*
X128120530Y-120602102D01*
X128138400Y-120420665D01*
X128138400Y-120297123D01*
X166830497Y-120297123D01*
X166830497Y-120724477D01*
X166913870Y-121143621D01*
X167077412Y-121538445D01*
X167314837Y-121893777D01*
X167617023Y-122195963D01*
X167972355Y-122433388D01*
X168367179Y-122596930D01*
X168786323Y-122680303D01*
X169213677Y-122680303D01*
X169632821Y-122596930D01*
X170027645Y-122433388D01*
X170382977Y-122195963D01*
X170685163Y-121893777D01*
X170922588Y-121538445D01*
X171086130Y-121143621D01*
X171169503Y-120724477D01*
X171169503Y-120297123D01*
X171086130Y-119877979D01*
X170922588Y-119483155D01*
X170685163Y-119127823D01*
X170382977Y-118825637D01*
X170027645Y-118588212D01*
X169632821Y-118424670D01*
X169213677Y-118341297D01*
X168786323Y-118341297D01*
X168367179Y-118424670D01*
X167972355Y-118588212D01*
X167617023Y-118825637D01*
X167314837Y-119127823D01*
X167077412Y-119483155D01*
X166913870Y-119877979D01*
X166830497Y-120297123D01*
X128138400Y-120297123D01*
X128138400Y-119199335D01*
X128120530Y-119017898D01*
X128049911Y-118785099D01*
X127935233Y-118570551D01*
X127780902Y-118382498D01*
X127592848Y-118228167D01*
X127378300Y-118113489D01*
X127145501Y-118042870D01*
X126903400Y-118019025D01*
X126661298Y-118042870D01*
X126428499Y-118113489D01*
X126213951Y-118228167D01*
X126025898Y-118382498D01*
X125871567Y-118570552D01*
X125756889Y-118785100D01*
X125686270Y-119017899D01*
X125668400Y-119199336D01*
X118916930Y-119199336D01*
X118794584Y-119175000D01*
X118492216Y-119175000D01*
X118195657Y-119233989D01*
X117916305Y-119349701D01*
X117664895Y-119517688D01*
X117451088Y-119731495D01*
X117283101Y-119982905D01*
X117167389Y-120262257D01*
X117108400Y-120558816D01*
X111614793Y-120558816D01*
X111628400Y-120420665D01*
X111628400Y-119199335D01*
X111610530Y-119017898D01*
X111539911Y-118785099D01*
X111425233Y-118570551D01*
X111270902Y-118382498D01*
X111082848Y-118228167D01*
X110868300Y-118113489D01*
X110635501Y-118042870D01*
X110393400Y-118019025D01*
X110151298Y-118042870D01*
X109918499Y-118113489D01*
X109703951Y-118228167D01*
X109515898Y-118382498D01*
X109361567Y-118570552D01*
X109246889Y-118785100D01*
X109176270Y-119017899D01*
X109158400Y-119199336D01*
X103732947Y-119199336D01*
X103685163Y-119127823D01*
X103382977Y-118825637D01*
X103027645Y-118588212D01*
X102632821Y-118424670D01*
X102213677Y-118341297D01*
X101786323Y-118341297D01*
X101367179Y-118424670D01*
X100972355Y-118588212D01*
X100617023Y-118825637D01*
X100314837Y-119127823D01*
X100077412Y-119483155D01*
X99913870Y-119877979D01*
X99830497Y-120297123D01*
X98660000Y-120297123D01*
X98660000Y-115341400D01*
X101847743Y-115341400D01*
X101876705Y-115635451D01*
X101962476Y-115918202D01*
X102101762Y-116178787D01*
X102289208Y-116407192D01*
X102517613Y-116594638D01*
X102778198Y-116733924D01*
X103060949Y-116819695D01*
X103281320Y-116841400D01*
X103728680Y-116841400D01*
X103949051Y-116819695D01*
X104231802Y-116733924D01*
X104492387Y-116594638D01*
X104720792Y-116407192D01*
X104908238Y-116178787D01*
X105047524Y-115918202D01*
X105133295Y-115635451D01*
X105137239Y-115595400D01*
X163074415Y-115595400D01*
X163103087Y-115886511D01*
X163188001Y-116166434D01*
X163325894Y-116424414D01*
X163511466Y-116650534D01*
X163737586Y-116836106D01*
X163995566Y-116973999D01*
X164275489Y-117058913D01*
X164493650Y-117080400D01*
X164639550Y-117080400D01*
X164857711Y-117058913D01*
X165137634Y-116973999D01*
X165395614Y-116836106D01*
X165621734Y-116650534D01*
X165807306Y-116424414D01*
X165945199Y-116166434D01*
X166030113Y-115886511D01*
X166058785Y-115595400D01*
X166030113Y-115304289D01*
X165945199Y-115024366D01*
X165807306Y-114766386D01*
X165621734Y-114540266D01*
X165395614Y-114354694D01*
X165331077Y-114320199D01*
X165447955Y-114250578D01*
X165664188Y-114055669D01*
X165838241Y-113822320D01*
X165963425Y-113559499D01*
X166008076Y-113412290D01*
X165886755Y-113182400D01*
X164693600Y-113182400D01*
X164693600Y-113202400D01*
X164439600Y-113202400D01*
X164439600Y-113182400D01*
X163246445Y-113182400D01*
X163125124Y-113412290D01*
X163169775Y-113559499D01*
X163294959Y-113822320D01*
X163469012Y-114055669D01*
X163685245Y-114250578D01*
X163802123Y-114320199D01*
X163737586Y-114354694D01*
X163511466Y-114540266D01*
X163325894Y-114766386D01*
X163188001Y-115024366D01*
X163103087Y-115304289D01*
X163074415Y-115595400D01*
X105137239Y-115595400D01*
X105162257Y-115341400D01*
X105133295Y-115047349D01*
X105047524Y-114764598D01*
X104908238Y-114504013D01*
X104720792Y-114275608D01*
X104492387Y-114088162D01*
X104454297Y-114067802D01*
X104656972Y-113919210D01*
X104855793Y-113702257D01*
X105008469Y-113450684D01*
X105109131Y-113174159D01*
X105111346Y-113160646D01*
X104990224Y-112928400D01*
X103632000Y-112928400D01*
X103632000Y-112948400D01*
X103378000Y-112948400D01*
X103378000Y-112928400D01*
X102019776Y-112928400D01*
X101898654Y-113160646D01*
X101900869Y-113174159D01*
X102001531Y-113450684D01*
X102154207Y-113702257D01*
X102353028Y-113919210D01*
X102555703Y-114067802D01*
X102517613Y-114088162D01*
X102289208Y-114275608D01*
X102101762Y-114504013D01*
X101962476Y-114764598D01*
X101876705Y-115047349D01*
X101847743Y-115341400D01*
X98660000Y-115341400D01*
X98660000Y-109396400D01*
X101851928Y-109396400D01*
X101851928Y-111126400D01*
X101864188Y-111250882D01*
X101900498Y-111370580D01*
X101959463Y-111480894D01*
X102038815Y-111577585D01*
X102135506Y-111656937D01*
X102245820Y-111715902D01*
X102306537Y-111734320D01*
X102154207Y-111900543D01*
X102001531Y-112152116D01*
X101900869Y-112428641D01*
X101898654Y-112442154D01*
X102019776Y-112674400D01*
X103378000Y-112674400D01*
X103378000Y-112654400D01*
X103632000Y-112654400D01*
X103632000Y-112674400D01*
X104990224Y-112674400D01*
X105111346Y-112442154D01*
X105109131Y-112428641D01*
X105008469Y-112152116D01*
X105001518Y-112140661D01*
X106788000Y-112140661D01*
X106788000Y-112344539D01*
X106827774Y-112544498D01*
X106905795Y-112732856D01*
X107019063Y-112902374D01*
X107163226Y-113046537D01*
X107332744Y-113159805D01*
X107521102Y-113237826D01*
X107721061Y-113277600D01*
X107924939Y-113277600D01*
X108124898Y-113237826D01*
X108313256Y-113159805D01*
X108482774Y-113046537D01*
X108626937Y-112902374D01*
X108740205Y-112732856D01*
X108818226Y-112544498D01*
X108858000Y-112344539D01*
X108858000Y-112282401D01*
X109186619Y-111953782D01*
X109176270Y-111987899D01*
X109158400Y-112169336D01*
X109158400Y-113890665D01*
X109176270Y-114072102D01*
X109246890Y-114304901D01*
X109361568Y-114519449D01*
X109515899Y-114707502D01*
X109703952Y-114861833D01*
X109918500Y-114976511D01*
X110151299Y-115047130D01*
X110393400Y-115070975D01*
X110635502Y-115047130D01*
X110868301Y-114976511D01*
X111082849Y-114861833D01*
X111270902Y-114707502D01*
X111425233Y-114519449D01*
X111539911Y-114304901D01*
X111610530Y-114072102D01*
X111628400Y-113890665D01*
X111628400Y-112169336D01*
X125668400Y-112169336D01*
X125668400Y-113890665D01*
X125686270Y-114072102D01*
X125756890Y-114304901D01*
X125871568Y-114519449D01*
X126025899Y-114707502D01*
X126213952Y-114861833D01*
X126428500Y-114976511D01*
X126661299Y-115047130D01*
X126903400Y-115070975D01*
X127145502Y-115047130D01*
X127378301Y-114976511D01*
X127592849Y-114861833D01*
X127780902Y-114707502D01*
X127935233Y-114519449D01*
X128049911Y-114304901D01*
X128120530Y-114072102D01*
X128138400Y-113890665D01*
X128138400Y-112169335D01*
X128120530Y-111987898D01*
X128049911Y-111755099D01*
X127935233Y-111540551D01*
X127786782Y-111359662D01*
X138392001Y-111359662D01*
X138392001Y-111563540D01*
X138431775Y-111763499D01*
X138509796Y-111951857D01*
X138623064Y-112121375D01*
X138767227Y-112265538D01*
X138936745Y-112378806D01*
X139125103Y-112456827D01*
X139325062Y-112496601D01*
X139528940Y-112496601D01*
X139728899Y-112456827D01*
X139917257Y-112378806D01*
X140086775Y-112265538D01*
X140130712Y-112221601D01*
X142183241Y-112221601D01*
X142237195Y-112351856D01*
X142350463Y-112521374D01*
X142494626Y-112665537D01*
X142664144Y-112778805D01*
X142852502Y-112856826D01*
X143052461Y-112896600D01*
X143256339Y-112896600D01*
X143456298Y-112856826D01*
X143644656Y-112778805D01*
X143814174Y-112665537D01*
X143958337Y-112521374D01*
X144071605Y-112351856D01*
X144149626Y-112163498D01*
X144189400Y-111963539D01*
X144189400Y-111759661D01*
X144149626Y-111559702D01*
X144071605Y-111371344D01*
X143958337Y-111201826D01*
X143814174Y-111057663D01*
X143644656Y-110944395D01*
X143456298Y-110866374D01*
X143256339Y-110826600D01*
X143178626Y-110826600D01*
X143046648Y-110756055D01*
X142903387Y-110712598D01*
X142791734Y-110701601D01*
X142791723Y-110701601D01*
X142754401Y-110697925D01*
X142717079Y-110701601D01*
X140130712Y-110701601D01*
X140086775Y-110657664D01*
X139917257Y-110544396D01*
X139728899Y-110466375D01*
X139528940Y-110426601D01*
X139325062Y-110426601D01*
X139125103Y-110466375D01*
X138936745Y-110544396D01*
X138767227Y-110657664D01*
X138623064Y-110801827D01*
X138509796Y-110971345D01*
X138431775Y-111159703D01*
X138392001Y-111359662D01*
X127786782Y-111359662D01*
X127780902Y-111352498D01*
X127592848Y-111198167D01*
X127378300Y-111083489D01*
X127145501Y-111012870D01*
X126903400Y-110989025D01*
X126661298Y-111012870D01*
X126428499Y-111083489D01*
X126213951Y-111198167D01*
X126025898Y-111352498D01*
X125871567Y-111540552D01*
X125756889Y-111755100D01*
X125686270Y-111987899D01*
X125668400Y-112169336D01*
X111628400Y-112169336D01*
X111628400Y-112169335D01*
X111610530Y-111987898D01*
X111539911Y-111755099D01*
X111425233Y-111540551D01*
X111270902Y-111352498D01*
X111082848Y-111198167D01*
X110868300Y-111083489D01*
X110635501Y-111012870D01*
X110393400Y-110989025D01*
X110151298Y-111012870D01*
X110117182Y-111023219D01*
X114740140Y-106400261D01*
X147428000Y-106400261D01*
X147428000Y-106604139D01*
X147467774Y-106804098D01*
X147545795Y-106992456D01*
X147659063Y-107161974D01*
X147803226Y-107306137D01*
X147972744Y-107419405D01*
X148161102Y-107497426D01*
X148361061Y-107537200D01*
X148564939Y-107537200D01*
X148764898Y-107497426D01*
X148953256Y-107419405D01*
X149122774Y-107306137D01*
X149166711Y-107262200D01*
X149600963Y-107262200D01*
X149638285Y-107265876D01*
X149675607Y-107262200D01*
X149675618Y-107262200D01*
X149787271Y-107251203D01*
X149930532Y-107207746D01*
X150062561Y-107137174D01*
X150178286Y-107042201D01*
X150202089Y-107013197D01*
X151666403Y-105548884D01*
X151695401Y-105525086D01*
X151790374Y-105409361D01*
X151860946Y-105277332D01*
X151895994Y-105161793D01*
X152224200Y-105490000D01*
X152224201Y-110167288D01*
X152180263Y-110211226D01*
X152066995Y-110380744D01*
X151988974Y-110569102D01*
X151949200Y-110769061D01*
X151949200Y-110972939D01*
X151988974Y-111172898D01*
X152066995Y-111361256D01*
X152180263Y-111530774D01*
X152324426Y-111674937D01*
X152493944Y-111788205D01*
X152682302Y-111866226D01*
X152882261Y-111906000D01*
X153086139Y-111906000D01*
X153286098Y-111866226D01*
X153474456Y-111788205D01*
X153643974Y-111674937D01*
X153788137Y-111530774D01*
X153901405Y-111361256D01*
X153979426Y-111172898D01*
X154019200Y-110972939D01*
X154019200Y-110769061D01*
X153979426Y-110569102D01*
X153901405Y-110380744D01*
X153788137Y-110211226D01*
X153744200Y-110167289D01*
X153744200Y-107517861D01*
X154082800Y-107517861D01*
X154082800Y-107721739D01*
X154122574Y-107921698D01*
X154200595Y-108110056D01*
X154313863Y-108279574D01*
X154458026Y-108423737D01*
X154627544Y-108537005D01*
X154815902Y-108615026D01*
X155015861Y-108654800D01*
X155219739Y-108654800D01*
X155419698Y-108615026D01*
X155608056Y-108537005D01*
X155777574Y-108423737D01*
X155832524Y-108368787D01*
X155975732Y-108325346D01*
X156107761Y-108254774D01*
X156223486Y-108159801D01*
X156247289Y-108130797D01*
X156618401Y-107759685D01*
X156618400Y-111256489D01*
X156574463Y-111300426D01*
X156461195Y-111469944D01*
X156383174Y-111658302D01*
X156343400Y-111858261D01*
X156343400Y-112062139D01*
X156383174Y-112262098D01*
X156461195Y-112450456D01*
X156574463Y-112619974D01*
X156718626Y-112764137D01*
X156888144Y-112877405D01*
X157076502Y-112955426D01*
X157276461Y-112995200D01*
X157480339Y-112995200D01*
X157680298Y-112955426D01*
X157868656Y-112877405D01*
X158038174Y-112764137D01*
X158182337Y-112619974D01*
X158295605Y-112450456D01*
X158373626Y-112262098D01*
X158413400Y-112062139D01*
X158413400Y-111858261D01*
X158373626Y-111658302D01*
X158295605Y-111469944D01*
X158182337Y-111300426D01*
X158138400Y-111256489D01*
X158138400Y-109665400D01*
X163078528Y-109665400D01*
X163078528Y-111365400D01*
X163090788Y-111489882D01*
X163127098Y-111609580D01*
X163186063Y-111719894D01*
X163265415Y-111816585D01*
X163362106Y-111895937D01*
X163472420Y-111954902D01*
X163553066Y-111979366D01*
X163469012Y-112055131D01*
X163294959Y-112288480D01*
X163169775Y-112551301D01*
X163125124Y-112698510D01*
X163246445Y-112928400D01*
X164439600Y-112928400D01*
X164439600Y-112908400D01*
X164693600Y-112908400D01*
X164693600Y-112928400D01*
X165886755Y-112928400D01*
X166008076Y-112698510D01*
X165963425Y-112551301D01*
X165838241Y-112288480D01*
X165664188Y-112055131D01*
X165580134Y-111979366D01*
X165660780Y-111954902D01*
X165771094Y-111895937D01*
X165867785Y-111816585D01*
X165947137Y-111719894D01*
X166006102Y-111609580D01*
X166042412Y-111489882D01*
X166054672Y-111365400D01*
X166054672Y-109665400D01*
X166042412Y-109540918D01*
X166006102Y-109421220D01*
X165947137Y-109310906D01*
X165867785Y-109214215D01*
X165771094Y-109134863D01*
X165660780Y-109075898D01*
X165541082Y-109039588D01*
X165416600Y-109027328D01*
X163716600Y-109027328D01*
X163592118Y-109039588D01*
X163472420Y-109075898D01*
X163362106Y-109134863D01*
X163265415Y-109214215D01*
X163186063Y-109310906D01*
X163127098Y-109421220D01*
X163090788Y-109540918D01*
X163078528Y-109665400D01*
X158138400Y-109665400D01*
X158138400Y-107807601D01*
X158637402Y-107308600D01*
X158699539Y-107308600D01*
X158899498Y-107268826D01*
X159087856Y-107190805D01*
X159257374Y-107077537D01*
X159401537Y-106933374D01*
X159514805Y-106763856D01*
X159592826Y-106575498D01*
X159632600Y-106375539D01*
X159632600Y-106171661D01*
X159592826Y-105971702D01*
X159514805Y-105783344D01*
X159401537Y-105613826D01*
X159257374Y-105469663D01*
X159087856Y-105356395D01*
X159041071Y-105337016D01*
X159863487Y-104514600D01*
X159925624Y-104514600D01*
X160125583Y-104474826D01*
X160313941Y-104396805D01*
X160483459Y-104283537D01*
X160627622Y-104139374D01*
X160740890Y-103969856D01*
X160818911Y-103781498D01*
X160858685Y-103581539D01*
X160858685Y-103377661D01*
X160818911Y-103177702D01*
X160740890Y-102989344D01*
X160627622Y-102819826D01*
X160483459Y-102675663D01*
X160313941Y-102562395D01*
X160125583Y-102484374D01*
X159925624Y-102444600D01*
X159721746Y-102444600D01*
X159521787Y-102484374D01*
X159333429Y-102562395D01*
X159163911Y-102675663D01*
X159019748Y-102819826D01*
X158906480Y-102989344D01*
X158828459Y-103177702D01*
X158788685Y-103377661D01*
X158788685Y-103439798D01*
X155549955Y-106678529D01*
X155419698Y-106624574D01*
X155219739Y-106584800D01*
X155015861Y-106584800D01*
X154815902Y-106624574D01*
X154627544Y-106702595D01*
X154458026Y-106815863D01*
X154313863Y-106960026D01*
X154200595Y-107129544D01*
X154122574Y-107317902D01*
X154082800Y-107517861D01*
X153744200Y-107517861D01*
X153744200Y-105212521D01*
X153747876Y-105175198D01*
X153744200Y-105137875D01*
X153744200Y-105137865D01*
X153733203Y-105026212D01*
X153689746Y-104882951D01*
X153619174Y-104750922D01*
X153524201Y-104635197D01*
X153495204Y-104611400D01*
X150797800Y-101913997D01*
X150797800Y-94944861D01*
X155810000Y-94944861D01*
X155810000Y-95148739D01*
X155849774Y-95348698D01*
X155927795Y-95537056D01*
X156041063Y-95706574D01*
X156185226Y-95850737D01*
X156354744Y-95964005D01*
X156543102Y-96042026D01*
X156743061Y-96081800D01*
X156946939Y-96081800D01*
X157146898Y-96042026D01*
X157335256Y-95964005D01*
X157504774Y-95850737D01*
X157648937Y-95706574D01*
X157762205Y-95537056D01*
X157840226Y-95348698D01*
X157880000Y-95148739D01*
X157880000Y-95086601D01*
X161433208Y-91533393D01*
X164017812Y-91533393D01*
X164083337Y-91772260D01*
X164330316Y-91888160D01*
X164595160Y-91953650D01*
X164867692Y-91966212D01*
X165137438Y-91925365D01*
X165394032Y-91832677D01*
X165507063Y-91772260D01*
X165572588Y-91533393D01*
X164795200Y-90756005D01*
X164017812Y-91533393D01*
X161433208Y-91533393D01*
X162317709Y-90648892D01*
X163405388Y-90648892D01*
X163446235Y-90918638D01*
X163538923Y-91175232D01*
X163599340Y-91288263D01*
X163838207Y-91353788D01*
X164615595Y-90576400D01*
X164974805Y-90576400D01*
X165752193Y-91353788D01*
X165991060Y-91288263D01*
X166106960Y-91041284D01*
X166172450Y-90776440D01*
X166185012Y-90503908D01*
X166144165Y-90234162D01*
X166051477Y-89977568D01*
X165991060Y-89864537D01*
X165752193Y-89799012D01*
X164974805Y-90576400D01*
X164615595Y-90576400D01*
X163838207Y-89799012D01*
X163599340Y-89864537D01*
X163483440Y-90111516D01*
X163417950Y-90376360D01*
X163405388Y-90648892D01*
X162317709Y-90648892D01*
X162766203Y-90200399D01*
X162795201Y-90176601D01*
X162890174Y-90060876D01*
X162960746Y-89928847D01*
X163004203Y-89785586D01*
X163015200Y-89673933D01*
X163015200Y-89673924D01*
X163018876Y-89636601D01*
X163017183Y-89619407D01*
X164017812Y-89619407D01*
X164795200Y-90396795D01*
X165572588Y-89619407D01*
X165507063Y-89380540D01*
X165260084Y-89264640D01*
X164995240Y-89199150D01*
X164722708Y-89186588D01*
X164452962Y-89227435D01*
X164196368Y-89320123D01*
X164083337Y-89380540D01*
X164017812Y-89619407D01*
X163017183Y-89619407D01*
X163015200Y-89599278D01*
X163015200Y-89194309D01*
X163138086Y-89112199D01*
X163330999Y-88919286D01*
X163482571Y-88692443D01*
X163586975Y-88440389D01*
X163640200Y-88172811D01*
X163640200Y-87899989D01*
X163586975Y-87632411D01*
X163482571Y-87380357D01*
X163330999Y-87153514D01*
X163138086Y-86960601D01*
X162911243Y-86809029D01*
X162659189Y-86704625D01*
X162391611Y-86651400D01*
X162118789Y-86651400D01*
X161851211Y-86704625D01*
X161599157Y-86809029D01*
X161372314Y-86960601D01*
X161179401Y-87153514D01*
X161027829Y-87380357D01*
X160923425Y-87632411D01*
X160870200Y-87899989D01*
X160870200Y-88172811D01*
X160923425Y-88440389D01*
X161027829Y-88692443D01*
X161179401Y-88919286D01*
X161372314Y-89112199D01*
X161495201Y-89194309D01*
X161495201Y-89321797D01*
X160925481Y-89891517D01*
X160911060Y-89864537D01*
X160672193Y-89799012D01*
X159894805Y-90576400D01*
X159908948Y-90590543D01*
X159729343Y-90770148D01*
X159715200Y-90756005D01*
X158937812Y-91533393D01*
X159003337Y-91772260D01*
X159031515Y-91785483D01*
X156805199Y-94011800D01*
X156743061Y-94011800D01*
X156543102Y-94051574D01*
X156354744Y-94129595D01*
X156185226Y-94242863D01*
X156041063Y-94387026D01*
X155927795Y-94556544D01*
X155849774Y-94744902D01*
X155810000Y-94944861D01*
X150797800Y-94944861D01*
X150797800Y-91533393D01*
X151800412Y-91533393D01*
X151865937Y-91772260D01*
X152112916Y-91888160D01*
X152377760Y-91953650D01*
X152650292Y-91966212D01*
X152920038Y-91925365D01*
X153176632Y-91832677D01*
X153289663Y-91772260D01*
X153355188Y-91533393D01*
X152577800Y-90756005D01*
X151800412Y-91533393D01*
X150797800Y-91533393D01*
X150797800Y-90648892D01*
X151187988Y-90648892D01*
X151228835Y-90918638D01*
X151321523Y-91175232D01*
X151381940Y-91288263D01*
X151620807Y-91353788D01*
X152398195Y-90576400D01*
X152757405Y-90576400D01*
X153534793Y-91353788D01*
X153773660Y-91288263D01*
X153889560Y-91041284D01*
X153955050Y-90776440D01*
X153960929Y-90648892D01*
X158325388Y-90648892D01*
X158366235Y-90918638D01*
X158458923Y-91175232D01*
X158519340Y-91288263D01*
X158758207Y-91353788D01*
X159535595Y-90576400D01*
X158758207Y-89799012D01*
X158519340Y-89864537D01*
X158403440Y-90111516D01*
X158337950Y-90376360D01*
X158325388Y-90648892D01*
X153960929Y-90648892D01*
X153967612Y-90503908D01*
X153926765Y-90234162D01*
X153834077Y-89977568D01*
X153773660Y-89864537D01*
X153534793Y-89799012D01*
X152757405Y-90576400D01*
X152398195Y-90576400D01*
X151620807Y-89799012D01*
X151381940Y-89864537D01*
X151266040Y-90111516D01*
X151200550Y-90376360D01*
X151187988Y-90648892D01*
X150797800Y-90648892D01*
X150797800Y-89619407D01*
X151800412Y-89619407D01*
X152577800Y-90396795D01*
X153355188Y-89619407D01*
X158937812Y-89619407D01*
X159715200Y-90396795D01*
X160492588Y-89619407D01*
X160427063Y-89380540D01*
X160180084Y-89264640D01*
X159915240Y-89199150D01*
X159642708Y-89186588D01*
X159372962Y-89227435D01*
X159116368Y-89320123D01*
X159003337Y-89380540D01*
X158937812Y-89619407D01*
X153355188Y-89619407D01*
X153289663Y-89380540D01*
X153042684Y-89264640D01*
X152777840Y-89199150D01*
X152505308Y-89186588D01*
X152235562Y-89227435D01*
X151978968Y-89320123D01*
X151865937Y-89380540D01*
X151800412Y-89619407D01*
X150797800Y-89619407D01*
X150797800Y-89194309D01*
X150920686Y-89112199D01*
X151113599Y-88919286D01*
X151265171Y-88692443D01*
X151369575Y-88440389D01*
X151422800Y-88172811D01*
X151422800Y-87899989D01*
X151369575Y-87632411D01*
X151265171Y-87380357D01*
X151113599Y-87153514D01*
X150920686Y-86960601D01*
X150693843Y-86809029D01*
X150441789Y-86704625D01*
X150174211Y-86651400D01*
X149901389Y-86651400D01*
X149633811Y-86704625D01*
X149381757Y-86809029D01*
X149154914Y-86960601D01*
X148962001Y-87153514D01*
X148810429Y-87380357D01*
X148706025Y-87632411D01*
X148652800Y-87899989D01*
X148652800Y-88172811D01*
X148706025Y-88440389D01*
X148810429Y-88692443D01*
X148962001Y-88919286D01*
X149154914Y-89112199D01*
X149277800Y-89194309D01*
X149277801Y-102191466D01*
X149274124Y-102228798D01*
X149288798Y-102377783D01*
X149332254Y-102521044D01*
X149402826Y-102653074D01*
X149457423Y-102719600D01*
X149497800Y-102768799D01*
X149526798Y-102792597D01*
X150422645Y-103688444D01*
X150351463Y-103759626D01*
X150238195Y-103929144D01*
X150160174Y-104117502D01*
X150120400Y-104317461D01*
X150120400Y-104521339D01*
X150160174Y-104721298D01*
X150214129Y-104851555D01*
X149323484Y-105742200D01*
X149166711Y-105742200D01*
X149122774Y-105698263D01*
X148953256Y-105584995D01*
X148764898Y-105506974D01*
X148564939Y-105467200D01*
X148361061Y-105467200D01*
X148161102Y-105506974D01*
X147972744Y-105584995D01*
X147803226Y-105698263D01*
X147659063Y-105842426D01*
X147545795Y-106011944D01*
X147467774Y-106200302D01*
X147428000Y-106400261D01*
X114740140Y-106400261D01*
X115351402Y-105789000D01*
X120860689Y-105789000D01*
X120904626Y-105832937D01*
X121074144Y-105946205D01*
X121262502Y-106024226D01*
X121462461Y-106064000D01*
X121666339Y-106064000D01*
X121866298Y-106024226D01*
X122054656Y-105946205D01*
X122224174Y-105832937D01*
X122368337Y-105688774D01*
X122481605Y-105519256D01*
X122559626Y-105330898D01*
X122599400Y-105130939D01*
X122599400Y-104927061D01*
X122559626Y-104727102D01*
X122481605Y-104538744D01*
X122368337Y-104369226D01*
X122224174Y-104225063D01*
X122054656Y-104111795D01*
X121866298Y-104033774D01*
X121666339Y-103994000D01*
X121462461Y-103994000D01*
X121262502Y-104033774D01*
X121074144Y-104111795D01*
X120904626Y-104225063D01*
X120860689Y-104269000D01*
X115073923Y-104269000D01*
X115036600Y-104265324D01*
X114999277Y-104269000D01*
X114999267Y-104269000D01*
X114887614Y-104279997D01*
X114764110Y-104317461D01*
X114744353Y-104323454D01*
X114612323Y-104394026D01*
X114528683Y-104462668D01*
X114496599Y-104488999D01*
X114472801Y-104517997D01*
X107783199Y-111207600D01*
X107721061Y-111207600D01*
X107521102Y-111247374D01*
X107332744Y-111325395D01*
X107163226Y-111438663D01*
X107019063Y-111582826D01*
X106905795Y-111752344D01*
X106827774Y-111940702D01*
X106788000Y-112140661D01*
X105001518Y-112140661D01*
X104855793Y-111900543D01*
X104703463Y-111734320D01*
X104764180Y-111715902D01*
X104874494Y-111656937D01*
X104971185Y-111577585D01*
X105050537Y-111480894D01*
X105109502Y-111370580D01*
X105145812Y-111250882D01*
X105158072Y-111126400D01*
X105158072Y-109396400D01*
X105145812Y-109271918D01*
X105109502Y-109152220D01*
X105050537Y-109041906D01*
X104971185Y-108945215D01*
X104874494Y-108865863D01*
X104764180Y-108806898D01*
X104644482Y-108770588D01*
X104520000Y-108758328D01*
X102490000Y-108758328D01*
X102365518Y-108770588D01*
X102245820Y-108806898D01*
X102135506Y-108865863D01*
X102038815Y-108945215D01*
X101959463Y-109041906D01*
X101900498Y-109152220D01*
X101864188Y-109271918D01*
X101851928Y-109396400D01*
X98660000Y-109396400D01*
X98660000Y-105068390D01*
X102063524Y-105068390D01*
X102108175Y-105215599D01*
X102233359Y-105478420D01*
X102407412Y-105711769D01*
X102623645Y-105906678D01*
X102873748Y-106055657D01*
X103148109Y-106152981D01*
X103378000Y-106032314D01*
X103378000Y-104838500D01*
X103632000Y-104838500D01*
X103632000Y-106032314D01*
X103861891Y-106152981D01*
X104136252Y-106055657D01*
X104386355Y-105906678D01*
X104602588Y-105711769D01*
X104776641Y-105478420D01*
X104901825Y-105215599D01*
X104946476Y-105068390D01*
X104825155Y-104838500D01*
X103632000Y-104838500D01*
X103378000Y-104838500D01*
X102184845Y-104838500D01*
X102063524Y-105068390D01*
X98660000Y-105068390D01*
X98660000Y-101321500D01*
X102016928Y-101321500D01*
X102016928Y-103021500D01*
X102029188Y-103145982D01*
X102065498Y-103265680D01*
X102124463Y-103375994D01*
X102203815Y-103472685D01*
X102300506Y-103552037D01*
X102410820Y-103611002D01*
X102491466Y-103635466D01*
X102407412Y-103711231D01*
X102233359Y-103944580D01*
X102108175Y-104207401D01*
X102063524Y-104354610D01*
X102184845Y-104584500D01*
X103378000Y-104584500D01*
X103378000Y-104564500D01*
X103632000Y-104564500D01*
X103632000Y-104584500D01*
X104825155Y-104584500D01*
X104946476Y-104354610D01*
X104901825Y-104207401D01*
X104776641Y-103944580D01*
X104602588Y-103711231D01*
X104518534Y-103635466D01*
X104599180Y-103611002D01*
X104709494Y-103552037D01*
X104806185Y-103472685D01*
X104885537Y-103375994D01*
X104944502Y-103265680D01*
X104980812Y-103145982D01*
X104993072Y-103021500D01*
X104993072Y-102260061D01*
X132746800Y-102260061D01*
X132746800Y-102463939D01*
X132786574Y-102663898D01*
X132864595Y-102852256D01*
X132977863Y-103021774D01*
X133122026Y-103165937D01*
X133291544Y-103279205D01*
X133479902Y-103357226D01*
X133679861Y-103397000D01*
X133883739Y-103397000D01*
X134083698Y-103357226D01*
X134272056Y-103279205D01*
X134441574Y-103165937D01*
X134485511Y-103122000D01*
X139891278Y-103122000D01*
X139928600Y-103125676D01*
X139965922Y-103122000D01*
X139965933Y-103122000D01*
X140077586Y-103111003D01*
X140220847Y-103067546D01*
X140352876Y-102996974D01*
X140468601Y-102902001D01*
X140492404Y-102872997D01*
X141289202Y-102076200D01*
X141351339Y-102076200D01*
X141551298Y-102036426D01*
X141739656Y-101958405D01*
X141909174Y-101845137D01*
X142053337Y-101700974D01*
X142166605Y-101531456D01*
X142244626Y-101343098D01*
X142284400Y-101143139D01*
X142284400Y-100939261D01*
X142244626Y-100739302D01*
X142166605Y-100550944D01*
X142053337Y-100381426D01*
X141909174Y-100237263D01*
X141832188Y-100185823D01*
X141850137Y-100167874D01*
X141963405Y-99998356D01*
X142041426Y-99809998D01*
X142081200Y-99610039D01*
X142081200Y-99406161D01*
X142041426Y-99206202D01*
X141963405Y-99017844D01*
X141850137Y-98848326D01*
X141795187Y-98793376D01*
X141751746Y-98650168D01*
X141681174Y-98518139D01*
X141586201Y-98402414D01*
X141557202Y-98378615D01*
X141067188Y-97888602D01*
X141043386Y-97859599D01*
X140927661Y-97764626D01*
X140795632Y-97694054D01*
X140652371Y-97650597D01*
X140540718Y-97639600D01*
X140540707Y-97639600D01*
X140503385Y-97635924D01*
X140466063Y-97639600D01*
X137076311Y-97639600D01*
X137032374Y-97595663D01*
X136862856Y-97482395D01*
X136674498Y-97404374D01*
X136474539Y-97364600D01*
X136270661Y-97364600D01*
X136070702Y-97404374D01*
X135882344Y-97482395D01*
X135712826Y-97595663D01*
X135568663Y-97739826D01*
X135455395Y-97909344D01*
X135377374Y-98097702D01*
X135337600Y-98297661D01*
X135337600Y-98501539D01*
X135377374Y-98701498D01*
X135455395Y-98889856D01*
X135568663Y-99059374D01*
X135712826Y-99203537D01*
X135882344Y-99316805D01*
X136070702Y-99394826D01*
X136270661Y-99434600D01*
X136474539Y-99434600D01*
X136674498Y-99394826D01*
X136862856Y-99316805D01*
X137032374Y-99203537D01*
X137076311Y-99159600D01*
X140070277Y-99159600D01*
X140050974Y-99206202D01*
X140011200Y-99406161D01*
X140011200Y-99610039D01*
X140050974Y-99809998D01*
X140128995Y-99998356D01*
X140242263Y-100167874D01*
X140386426Y-100312037D01*
X140463412Y-100363477D01*
X140445463Y-100381426D01*
X140332195Y-100550944D01*
X140254174Y-100739302D01*
X140214400Y-100939261D01*
X140214400Y-101001398D01*
X139613799Y-101602000D01*
X134485511Y-101602000D01*
X134441574Y-101558063D01*
X134272056Y-101444795D01*
X134083698Y-101366774D01*
X133883739Y-101327000D01*
X133679861Y-101327000D01*
X133479902Y-101366774D01*
X133291544Y-101444795D01*
X133122026Y-101558063D01*
X132977863Y-101702226D01*
X132864595Y-101871744D01*
X132786574Y-102060102D01*
X132746800Y-102260061D01*
X104993072Y-102260061D01*
X104993072Y-101321500D01*
X104980812Y-101197018D01*
X104944502Y-101077320D01*
X104885537Y-100967006D01*
X104806185Y-100870315D01*
X104709494Y-100790963D01*
X104599180Y-100731998D01*
X104479482Y-100695688D01*
X104355000Y-100683428D01*
X102655000Y-100683428D01*
X102530518Y-100695688D01*
X102410820Y-100731998D01*
X102300506Y-100790963D01*
X102203815Y-100870315D01*
X102124463Y-100967006D01*
X102065498Y-101077320D01*
X102029188Y-101197018D01*
X102016928Y-101321500D01*
X98660000Y-101321500D01*
X98660000Y-100063300D01*
X110902815Y-100063300D01*
X110931487Y-100354411D01*
X111016401Y-100634334D01*
X111154294Y-100892314D01*
X111339866Y-101118434D01*
X111565986Y-101304006D01*
X111823966Y-101441899D01*
X112103889Y-101526813D01*
X112322050Y-101548300D01*
X112467950Y-101548300D01*
X112686111Y-101526813D01*
X112966034Y-101441899D01*
X113224014Y-101304006D01*
X113450134Y-101118434D01*
X113635706Y-100892314D01*
X113773599Y-100634334D01*
X113858513Y-100354411D01*
X113887185Y-100063300D01*
X113858513Y-99772189D01*
X113773599Y-99492266D01*
X113635706Y-99234286D01*
X113450134Y-99008166D01*
X113420313Y-98983693D01*
X113489180Y-98962802D01*
X113599494Y-98903837D01*
X113696185Y-98824485D01*
X113775537Y-98727794D01*
X113834502Y-98617480D01*
X113870812Y-98497782D01*
X113883072Y-98373300D01*
X113883072Y-96673300D01*
X113870812Y-96548818D01*
X113834502Y-96429120D01*
X113775537Y-96318806D01*
X113696185Y-96222115D01*
X113599494Y-96142763D01*
X113489180Y-96083798D01*
X113369482Y-96047488D01*
X113245000Y-96035228D01*
X111545000Y-96035228D01*
X111420518Y-96047488D01*
X111300820Y-96083798D01*
X111190506Y-96142763D01*
X111093815Y-96222115D01*
X111014463Y-96318806D01*
X110955498Y-96429120D01*
X110919188Y-96548818D01*
X110906928Y-96673300D01*
X110906928Y-98373300D01*
X110919188Y-98497782D01*
X110955498Y-98617480D01*
X111014463Y-98727794D01*
X111093815Y-98824485D01*
X111190506Y-98903837D01*
X111300820Y-98962802D01*
X111369687Y-98983693D01*
X111339866Y-99008166D01*
X111154294Y-99234286D01*
X111016401Y-99492266D01*
X110931487Y-99772189D01*
X110902815Y-100063300D01*
X98660000Y-100063300D01*
X98660000Y-95674721D01*
X101624000Y-95674721D01*
X101624000Y-96095279D01*
X101706047Y-96507756D01*
X101866988Y-96896302D01*
X102100637Y-97245983D01*
X102398017Y-97543363D01*
X102747698Y-97777012D01*
X103136244Y-97937953D01*
X103548721Y-98020000D01*
X103969279Y-98020000D01*
X104381756Y-97937953D01*
X104770302Y-97777012D01*
X105119983Y-97543363D01*
X105417363Y-97245983D01*
X105651012Y-96896302D01*
X105811953Y-96507756D01*
X105894000Y-96095279D01*
X105894000Y-95674721D01*
X105811953Y-95262244D01*
X105651012Y-94873698D01*
X105417363Y-94524017D01*
X105119983Y-94226637D01*
X104770302Y-93992988D01*
X104381756Y-93832047D01*
X103969279Y-93750000D01*
X103548721Y-93750000D01*
X103136244Y-93832047D01*
X102747698Y-93992988D01*
X102398017Y-94226637D01*
X102100637Y-94524017D01*
X101866988Y-94873698D01*
X101706047Y-95262244D01*
X101624000Y-95674721D01*
X98660000Y-95674721D01*
X98660000Y-89305000D01*
X101620928Y-89305000D01*
X101620928Y-92305000D01*
X101633188Y-92429482D01*
X101669498Y-92549180D01*
X101728463Y-92659494D01*
X101807815Y-92756185D01*
X101904506Y-92835537D01*
X102014820Y-92894502D01*
X102134518Y-92930812D01*
X102259000Y-92943072D01*
X105259000Y-92943072D01*
X105383482Y-92930812D01*
X105396707Y-92926800D01*
X117320428Y-92926800D01*
X117320428Y-94626800D01*
X117332688Y-94751282D01*
X117368998Y-94870980D01*
X117427963Y-94981294D01*
X117507315Y-95077985D01*
X117604006Y-95157337D01*
X117714320Y-95216302D01*
X117834018Y-95252612D01*
X117958500Y-95264872D01*
X119658500Y-95264872D01*
X119782982Y-95252612D01*
X119902680Y-95216302D01*
X120012994Y-95157337D01*
X120109685Y-95077985D01*
X120189037Y-94981294D01*
X120248002Y-94870980D01*
X120268893Y-94802113D01*
X120293366Y-94831934D01*
X120519486Y-95017506D01*
X120777466Y-95155399D01*
X121057389Y-95240313D01*
X121275550Y-95261800D01*
X121421450Y-95261800D01*
X121639611Y-95240313D01*
X121919534Y-95155399D01*
X122177514Y-95017506D01*
X122403634Y-94831934D01*
X122589206Y-94605814D01*
X122727099Y-94347834D01*
X122812013Y-94067911D01*
X122840685Y-93776800D01*
X122812013Y-93485689D01*
X122727099Y-93205766D01*
X122589206Y-92947786D01*
X122403634Y-92721666D01*
X122177514Y-92536094D01*
X121919534Y-92398201D01*
X121639611Y-92313287D01*
X121421450Y-92291800D01*
X121275550Y-92291800D01*
X121057389Y-92313287D01*
X120777466Y-92398201D01*
X120519486Y-92536094D01*
X120293366Y-92721666D01*
X120268893Y-92751487D01*
X120248002Y-92682620D01*
X120189037Y-92572306D01*
X120109685Y-92475615D01*
X120012994Y-92396263D01*
X119902680Y-92337298D01*
X119782982Y-92300988D01*
X119658500Y-92288728D01*
X117958500Y-92288728D01*
X117834018Y-92300988D01*
X117714320Y-92337298D01*
X117604006Y-92396263D01*
X117507315Y-92475615D01*
X117427963Y-92572306D01*
X117368998Y-92682620D01*
X117332688Y-92802318D01*
X117320428Y-92926800D01*
X105396707Y-92926800D01*
X105503180Y-92894502D01*
X105613494Y-92835537D01*
X105710185Y-92756185D01*
X105789537Y-92659494D01*
X105848502Y-92549180D01*
X105884812Y-92429482D01*
X105897072Y-92305000D01*
X105897072Y-91533393D01*
X146720412Y-91533393D01*
X146785937Y-91772260D01*
X147032916Y-91888160D01*
X147297760Y-91953650D01*
X147570292Y-91966212D01*
X147840038Y-91925365D01*
X148096632Y-91832677D01*
X148209663Y-91772260D01*
X148275188Y-91533393D01*
X147497800Y-90756005D01*
X146720412Y-91533393D01*
X105897072Y-91533393D01*
X105897072Y-90648892D01*
X146107988Y-90648892D01*
X146148835Y-90918638D01*
X146241523Y-91175232D01*
X146301940Y-91288263D01*
X146540807Y-91353788D01*
X147318195Y-90576400D01*
X147677405Y-90576400D01*
X148454793Y-91353788D01*
X148693660Y-91288263D01*
X148809560Y-91041284D01*
X148875050Y-90776440D01*
X148887612Y-90503908D01*
X148846765Y-90234162D01*
X148754077Y-89977568D01*
X148693660Y-89864537D01*
X148454793Y-89799012D01*
X147677405Y-90576400D01*
X147318195Y-90576400D01*
X146540807Y-89799012D01*
X146301940Y-89864537D01*
X146186040Y-90111516D01*
X146120550Y-90376360D01*
X146107988Y-90648892D01*
X105897072Y-90648892D01*
X105897072Y-89619407D01*
X146720412Y-89619407D01*
X147497800Y-90396795D01*
X148275188Y-89619407D01*
X148209663Y-89380540D01*
X147962684Y-89264640D01*
X147697840Y-89199150D01*
X147425308Y-89186588D01*
X147155562Y-89227435D01*
X146898968Y-89320123D01*
X146785937Y-89380540D01*
X146720412Y-89619407D01*
X105897072Y-89619407D01*
X105897072Y-89305000D01*
X105884812Y-89180518D01*
X105848502Y-89060820D01*
X105789537Y-88950506D01*
X105710185Y-88853815D01*
X105613494Y-88774463D01*
X105503180Y-88715498D01*
X105383482Y-88679188D01*
X105259000Y-88666928D01*
X102259000Y-88666928D01*
X102134518Y-88679188D01*
X102014820Y-88715498D01*
X101904506Y-88774463D01*
X101807815Y-88853815D01*
X101728463Y-88950506D01*
X101669498Y-89060820D01*
X101633188Y-89180518D01*
X101620928Y-89305000D01*
X98660000Y-89305000D01*
X98660000Y-84786323D01*
X99830497Y-84786323D01*
X99830497Y-85213677D01*
X99913870Y-85632821D01*
X100077412Y-86027645D01*
X100314837Y-86382977D01*
X100617023Y-86685163D01*
X100972355Y-86922588D01*
X101367179Y-87086130D01*
X101786323Y-87169503D01*
X102213677Y-87169503D01*
X102632821Y-87086130D01*
X103027645Y-86922588D01*
X103382977Y-86685163D01*
X103685163Y-86382977D01*
X103922588Y-86027645D01*
X104009439Y-85817967D01*
X111776000Y-85817967D01*
X111776000Y-86140033D01*
X111838832Y-86455912D01*
X111962082Y-86753463D01*
X112141013Y-87021252D01*
X112368748Y-87248987D01*
X112636537Y-87427918D01*
X112934088Y-87551168D01*
X113249967Y-87614000D01*
X113572033Y-87614000D01*
X113887912Y-87551168D01*
X114185463Y-87427918D01*
X114453252Y-87248987D01*
X114680987Y-87021252D01*
X114859918Y-86753463D01*
X114983168Y-86455912D01*
X115046000Y-86140033D01*
X115046000Y-85817967D01*
X117567200Y-85817967D01*
X117567200Y-86140033D01*
X117630032Y-86455912D01*
X117753282Y-86753463D01*
X117932213Y-87021252D01*
X118159948Y-87248987D01*
X118427737Y-87427918D01*
X118725288Y-87551168D01*
X119041167Y-87614000D01*
X119363233Y-87614000D01*
X119679112Y-87551168D01*
X119976663Y-87427918D01*
X120244452Y-87248987D01*
X120379026Y-87114413D01*
X123961392Y-87114413D01*
X124057156Y-87378814D01*
X124346771Y-87519704D01*
X124658308Y-87601384D01*
X124979795Y-87620718D01*
X125298875Y-87576961D01*
X125603288Y-87471795D01*
X125777244Y-87378814D01*
X125873008Y-87114413D01*
X124917200Y-86158605D01*
X123961392Y-87114413D01*
X120379026Y-87114413D01*
X120472187Y-87021252D01*
X120651118Y-86753463D01*
X120774368Y-86455912D01*
X120837200Y-86140033D01*
X120837200Y-86041595D01*
X123275482Y-86041595D01*
X123319239Y-86360675D01*
X123424405Y-86665088D01*
X123517386Y-86839044D01*
X123781787Y-86934808D01*
X124737595Y-85979000D01*
X125096805Y-85979000D01*
X126052613Y-86934808D01*
X126317014Y-86839044D01*
X126457904Y-86549429D01*
X126539584Y-86237892D01*
X126558918Y-85916405D01*
X126545419Y-85817967D01*
X128971800Y-85817967D01*
X128971800Y-86140033D01*
X129034632Y-86455912D01*
X129157882Y-86753463D01*
X129336813Y-87021252D01*
X129564548Y-87248987D01*
X129832337Y-87427918D01*
X130129888Y-87551168D01*
X130445767Y-87614000D01*
X130767833Y-87614000D01*
X131083712Y-87551168D01*
X131381263Y-87427918D01*
X131649052Y-87248987D01*
X131876787Y-87021252D01*
X132055718Y-86753463D01*
X132178968Y-86455912D01*
X132241800Y-86140033D01*
X132241800Y-85817967D01*
X134966200Y-85817967D01*
X134966200Y-86140033D01*
X135029032Y-86455912D01*
X135152282Y-86753463D01*
X135331213Y-87021252D01*
X135558948Y-87248987D01*
X135826737Y-87427918D01*
X136124288Y-87551168D01*
X136440167Y-87614000D01*
X136762233Y-87614000D01*
X137078112Y-87551168D01*
X137375663Y-87427918D01*
X137643452Y-87248987D01*
X137871187Y-87021252D01*
X138050118Y-86753463D01*
X138173368Y-86455912D01*
X138173869Y-86453393D01*
X146720412Y-86453393D01*
X146785937Y-86692260D01*
X147032916Y-86808160D01*
X147297760Y-86873650D01*
X147570292Y-86886212D01*
X147840038Y-86845365D01*
X148096632Y-86752677D01*
X148209663Y-86692260D01*
X148275188Y-86453393D01*
X151800412Y-86453393D01*
X151865937Y-86692260D01*
X152112916Y-86808160D01*
X152377760Y-86873650D01*
X152650292Y-86886212D01*
X152920038Y-86845365D01*
X153176632Y-86752677D01*
X153289663Y-86692260D01*
X153355188Y-86453393D01*
X158937812Y-86453393D01*
X159003337Y-86692260D01*
X159250316Y-86808160D01*
X159515160Y-86873650D01*
X159787692Y-86886212D01*
X160057438Y-86845365D01*
X160314032Y-86752677D01*
X160427063Y-86692260D01*
X160492588Y-86453393D01*
X164017812Y-86453393D01*
X164083337Y-86692260D01*
X164330316Y-86808160D01*
X164595160Y-86873650D01*
X164867692Y-86886212D01*
X165137438Y-86845365D01*
X165394032Y-86752677D01*
X165507063Y-86692260D01*
X165572588Y-86453393D01*
X164795200Y-85676005D01*
X164017812Y-86453393D01*
X160492588Y-86453393D01*
X159715200Y-85676005D01*
X158937812Y-86453393D01*
X153355188Y-86453393D01*
X152577800Y-85676005D01*
X151800412Y-86453393D01*
X148275188Y-86453393D01*
X147497800Y-85676005D01*
X146720412Y-86453393D01*
X138173869Y-86453393D01*
X138236200Y-86140033D01*
X138236200Y-85817967D01*
X138186657Y-85568892D01*
X146107988Y-85568892D01*
X146148835Y-85838638D01*
X146241523Y-86095232D01*
X146301940Y-86208263D01*
X146540807Y-86273788D01*
X147318195Y-85496400D01*
X147677405Y-85496400D01*
X148454793Y-86273788D01*
X148693660Y-86208263D01*
X148809560Y-85961284D01*
X148875050Y-85696440D01*
X148880929Y-85568892D01*
X151187988Y-85568892D01*
X151228835Y-85838638D01*
X151321523Y-86095232D01*
X151381940Y-86208263D01*
X151620807Y-86273788D01*
X152398195Y-85496400D01*
X152757405Y-85496400D01*
X153534793Y-86273788D01*
X153773660Y-86208263D01*
X153889560Y-85961284D01*
X153955050Y-85696440D01*
X153960929Y-85568892D01*
X158325388Y-85568892D01*
X158366235Y-85838638D01*
X158458923Y-86095232D01*
X158519340Y-86208263D01*
X158758207Y-86273788D01*
X159535595Y-85496400D01*
X159894805Y-85496400D01*
X160672193Y-86273788D01*
X160911060Y-86208263D01*
X161026960Y-85961284D01*
X161092450Y-85696440D01*
X161098329Y-85568892D01*
X163405388Y-85568892D01*
X163446235Y-85838638D01*
X163538923Y-86095232D01*
X163599340Y-86208263D01*
X163838207Y-86273788D01*
X164615595Y-85496400D01*
X164974805Y-85496400D01*
X165752193Y-86273788D01*
X165991060Y-86208263D01*
X166106960Y-85961284D01*
X166172450Y-85696440D01*
X166185012Y-85423908D01*
X166144165Y-85154162D01*
X166051477Y-84897568D01*
X165992015Y-84786323D01*
X166830497Y-84786323D01*
X166830497Y-85213677D01*
X166913870Y-85632821D01*
X167077412Y-86027645D01*
X167314837Y-86382977D01*
X167617023Y-86685163D01*
X167972355Y-86922588D01*
X168367179Y-87086130D01*
X168786323Y-87169503D01*
X169213677Y-87169503D01*
X169632821Y-87086130D01*
X170027645Y-86922588D01*
X170382977Y-86685163D01*
X170685163Y-86382977D01*
X170922588Y-86027645D01*
X171086130Y-85632821D01*
X171169503Y-85213677D01*
X171169503Y-84786323D01*
X171086130Y-84367179D01*
X170922588Y-83972355D01*
X170685163Y-83617023D01*
X170382977Y-83314837D01*
X170027645Y-83077412D01*
X169632821Y-82913870D01*
X169213677Y-82830497D01*
X168786323Y-82830497D01*
X168367179Y-82913870D01*
X167972355Y-83077412D01*
X167617023Y-83314837D01*
X167314837Y-83617023D01*
X167077412Y-83972355D01*
X166913870Y-84367179D01*
X166830497Y-84786323D01*
X165992015Y-84786323D01*
X165991060Y-84784537D01*
X165752193Y-84719012D01*
X164974805Y-85496400D01*
X164615595Y-85496400D01*
X163838207Y-84719012D01*
X163599340Y-84784537D01*
X163483440Y-85031516D01*
X163417950Y-85296360D01*
X163405388Y-85568892D01*
X161098329Y-85568892D01*
X161105012Y-85423908D01*
X161064165Y-85154162D01*
X160971477Y-84897568D01*
X160911060Y-84784537D01*
X160672193Y-84719012D01*
X159894805Y-85496400D01*
X159535595Y-85496400D01*
X158758207Y-84719012D01*
X158519340Y-84784537D01*
X158403440Y-85031516D01*
X158337950Y-85296360D01*
X158325388Y-85568892D01*
X153960929Y-85568892D01*
X153967612Y-85423908D01*
X153926765Y-85154162D01*
X153834077Y-84897568D01*
X153773660Y-84784537D01*
X153534793Y-84719012D01*
X152757405Y-85496400D01*
X152398195Y-85496400D01*
X151620807Y-84719012D01*
X151381940Y-84784537D01*
X151266040Y-85031516D01*
X151200550Y-85296360D01*
X151187988Y-85568892D01*
X148880929Y-85568892D01*
X148887612Y-85423908D01*
X148846765Y-85154162D01*
X148754077Y-84897568D01*
X148693660Y-84784537D01*
X148454793Y-84719012D01*
X147677405Y-85496400D01*
X147318195Y-85496400D01*
X146540807Y-84719012D01*
X146301940Y-84784537D01*
X146186040Y-85031516D01*
X146120550Y-85296360D01*
X146107988Y-85568892D01*
X138186657Y-85568892D01*
X138173368Y-85502088D01*
X138050118Y-85204537D01*
X137871187Y-84936748D01*
X137643452Y-84709013D01*
X137389619Y-84539407D01*
X146720412Y-84539407D01*
X147497800Y-85316795D01*
X148275188Y-84539407D01*
X151800412Y-84539407D01*
X152577800Y-85316795D01*
X153355188Y-84539407D01*
X158937812Y-84539407D01*
X159715200Y-85316795D01*
X160492588Y-84539407D01*
X164017812Y-84539407D01*
X164795200Y-85316795D01*
X165572588Y-84539407D01*
X165507063Y-84300540D01*
X165260084Y-84184640D01*
X164995240Y-84119150D01*
X164722708Y-84106588D01*
X164452962Y-84147435D01*
X164196368Y-84240123D01*
X164083337Y-84300540D01*
X164017812Y-84539407D01*
X160492588Y-84539407D01*
X160427063Y-84300540D01*
X160180084Y-84184640D01*
X159915240Y-84119150D01*
X159642708Y-84106588D01*
X159372962Y-84147435D01*
X159116368Y-84240123D01*
X159003337Y-84300540D01*
X158937812Y-84539407D01*
X153355188Y-84539407D01*
X153289663Y-84300540D01*
X153042684Y-84184640D01*
X152777840Y-84119150D01*
X152505308Y-84106588D01*
X152235562Y-84147435D01*
X151978968Y-84240123D01*
X151865937Y-84300540D01*
X151800412Y-84539407D01*
X148275188Y-84539407D01*
X148209663Y-84300540D01*
X147962684Y-84184640D01*
X147697840Y-84119150D01*
X147425308Y-84106588D01*
X147155562Y-84147435D01*
X146898968Y-84240123D01*
X146785937Y-84300540D01*
X146720412Y-84539407D01*
X137389619Y-84539407D01*
X137375663Y-84530082D01*
X137078112Y-84406832D01*
X136762233Y-84344000D01*
X136440167Y-84344000D01*
X136124288Y-84406832D01*
X135826737Y-84530082D01*
X135558948Y-84709013D01*
X135331213Y-84936748D01*
X135152282Y-85204537D01*
X135029032Y-85502088D01*
X134966200Y-85817967D01*
X132241800Y-85817967D01*
X132178968Y-85502088D01*
X132055718Y-85204537D01*
X131876787Y-84936748D01*
X131649052Y-84709013D01*
X131381263Y-84530082D01*
X131083712Y-84406832D01*
X130767833Y-84344000D01*
X130445767Y-84344000D01*
X130129888Y-84406832D01*
X129832337Y-84530082D01*
X129564548Y-84709013D01*
X129336813Y-84936748D01*
X129157882Y-85204537D01*
X129034632Y-85502088D01*
X128971800Y-85817967D01*
X126545419Y-85817967D01*
X126515161Y-85597325D01*
X126409995Y-85292912D01*
X126317014Y-85118956D01*
X126052613Y-85023192D01*
X125096805Y-85979000D01*
X124737595Y-85979000D01*
X123781787Y-85023192D01*
X123517386Y-85118956D01*
X123376496Y-85408571D01*
X123294816Y-85720108D01*
X123275482Y-86041595D01*
X120837200Y-86041595D01*
X120837200Y-85817967D01*
X120774368Y-85502088D01*
X120651118Y-85204537D01*
X120472187Y-84936748D01*
X120379026Y-84843587D01*
X123961392Y-84843587D01*
X124917200Y-85799395D01*
X125873008Y-84843587D01*
X125777244Y-84579186D01*
X125487629Y-84438296D01*
X125176092Y-84356616D01*
X124854605Y-84337282D01*
X124535525Y-84381039D01*
X124231112Y-84486205D01*
X124057156Y-84579186D01*
X123961392Y-84843587D01*
X120379026Y-84843587D01*
X120244452Y-84709013D01*
X119976663Y-84530082D01*
X119679112Y-84406832D01*
X119363233Y-84344000D01*
X119041167Y-84344000D01*
X118725288Y-84406832D01*
X118427737Y-84530082D01*
X118159948Y-84709013D01*
X117932213Y-84936748D01*
X117753282Y-85204537D01*
X117630032Y-85502088D01*
X117567200Y-85817967D01*
X115046000Y-85817967D01*
X114983168Y-85502088D01*
X114859918Y-85204537D01*
X114680987Y-84936748D01*
X114453252Y-84709013D01*
X114185463Y-84530082D01*
X113887912Y-84406832D01*
X113572033Y-84344000D01*
X113249967Y-84344000D01*
X112934088Y-84406832D01*
X112636537Y-84530082D01*
X112368748Y-84709013D01*
X112141013Y-84936748D01*
X111962082Y-85204537D01*
X111838832Y-85502088D01*
X111776000Y-85817967D01*
X104009439Y-85817967D01*
X104086130Y-85632821D01*
X104169503Y-85213677D01*
X104169503Y-84786323D01*
X104086130Y-84367179D01*
X103922588Y-83972355D01*
X103685163Y-83617023D01*
X103382977Y-83314837D01*
X103027645Y-83077412D01*
X102632821Y-82913870D01*
X102213677Y-82830497D01*
X101786323Y-82830497D01*
X101367179Y-82913870D01*
X100972355Y-83077412D01*
X100617023Y-83314837D01*
X100314837Y-83617023D01*
X100077412Y-83972355D01*
X99913870Y-84367179D01*
X99830497Y-84786323D01*
X98660000Y-84786323D01*
X98660000Y-81660000D01*
X172340000Y-81660000D01*
X172340001Y-123340000D01*
M02*
