G04 #@! TF.GenerationSoftware,KiCad,Pcbnew,(5.1.4-0-10_14)*
G04 #@! TF.CreationDate,2020-03-06T13:13:34+09:00*
G04 #@! TF.ProjectId,ReadoutBoard_v3_2,52656164-6f75-4744-926f-6172645f7633,rev?*
G04 #@! TF.SameCoordinates,Original*
G04 #@! TF.FileFunction,Legend,Top*
G04 #@! TF.FilePolarity,Positive*
%FSLAX46Y46*%
G04 Gerber Fmt 4.6, Leading zero omitted, Abs format (unit mm)*
G04 Created by KiCad (PCBNEW (5.1.4-0-10_14)) date 2020-03-06 13:13:34*
%MOMM*%
%LPD*%
G04 APERTURE LIST*
%ADD10C,0.250000*%
%ADD11C,0.200000*%
%ADD12C,0.120000*%
%ADD13C,0.150000*%
G04 APERTURE END LIST*
D10*
X121400914Y-96000914D02*
X121400914Y-97000914D01*
X121400914Y-96048533D02*
X121496152Y-96000914D01*
X121686628Y-96000914D01*
X121781866Y-96048533D01*
X121829485Y-96096152D01*
X121877104Y-96191390D01*
X121877104Y-96477104D01*
X121829485Y-96572342D01*
X121781866Y-96619961D01*
X121686628Y-96667580D01*
X121496152Y-96667580D01*
X121400914Y-96619961D01*
X118581514Y-96000914D02*
X118581514Y-96667580D01*
X118581514Y-96096152D02*
X118629133Y-96048533D01*
X118724371Y-96000914D01*
X118867228Y-96000914D01*
X118962466Y-96048533D01*
X119010085Y-96143771D01*
X119010085Y-96667580D01*
X108327914Y-97595980D02*
X108327914Y-96595980D01*
X108327914Y-97072171D02*
X108899342Y-97072171D01*
X108899342Y-97595980D02*
X108899342Y-96595980D01*
X109232676Y-96595980D02*
X109566009Y-97595980D01*
X109899342Y-96595980D01*
X108280295Y-98393600D02*
X108185057Y-98345980D01*
X108042200Y-98345980D01*
X107899342Y-98393600D01*
X107804104Y-98488838D01*
X107756485Y-98584076D01*
X107708866Y-98774552D01*
X107708866Y-98917409D01*
X107756485Y-99107885D01*
X107804104Y-99203123D01*
X107899342Y-99298361D01*
X108042200Y-99345980D01*
X108137438Y-99345980D01*
X108280295Y-99298361D01*
X108327914Y-99250742D01*
X108327914Y-98917409D01*
X108137438Y-98917409D01*
X108756485Y-99345980D02*
X108756485Y-98345980D01*
X109327914Y-99345980D01*
X109327914Y-98345980D01*
X109804104Y-99345980D02*
X109804104Y-98345980D01*
X110042200Y-98345980D01*
X110185057Y-98393600D01*
X110280295Y-98488838D01*
X110327914Y-98584076D01*
X110375533Y-98774552D01*
X110375533Y-98917409D01*
X110327914Y-99107885D01*
X110280295Y-99203123D01*
X110185057Y-99298361D01*
X110042200Y-99345980D01*
X109804104Y-99345980D01*
D11*
X106519714Y-105206580D02*
X106557809Y-105244676D01*
X106595904Y-105358961D01*
X106595904Y-105435152D01*
X106557809Y-105549438D01*
X106481619Y-105625628D01*
X106405428Y-105663723D01*
X106253047Y-105701819D01*
X106138761Y-105701819D01*
X105986380Y-105663723D01*
X105910190Y-105625628D01*
X105834000Y-105549438D01*
X105795904Y-105435152D01*
X105795904Y-105358961D01*
X105834000Y-105244676D01*
X105872095Y-105206580D01*
X106595904Y-104749438D02*
X106557809Y-104825628D01*
X106519714Y-104863723D01*
X106443523Y-104901819D01*
X106214952Y-104901819D01*
X106138761Y-104863723D01*
X106100666Y-104825628D01*
X106062571Y-104749438D01*
X106062571Y-104635152D01*
X106100666Y-104558961D01*
X106138761Y-104520866D01*
X106214952Y-104482771D01*
X106443523Y-104482771D01*
X106519714Y-104520866D01*
X106557809Y-104558961D01*
X106595904Y-104635152D01*
X106595904Y-104749438D01*
X106062571Y-104139914D02*
X106595904Y-104139914D01*
X106138761Y-104139914D02*
X106100666Y-104101819D01*
X106062571Y-104025628D01*
X106062571Y-103911342D01*
X106100666Y-103835152D01*
X106176857Y-103797057D01*
X106595904Y-103797057D01*
X106062571Y-103416104D02*
X106595904Y-103416104D01*
X106138761Y-103416104D02*
X106100666Y-103378009D01*
X106062571Y-103301819D01*
X106062571Y-103187533D01*
X106100666Y-103111342D01*
X106176857Y-103073247D01*
X106595904Y-103073247D01*
X106557809Y-102387533D02*
X106595904Y-102463723D01*
X106595904Y-102616104D01*
X106557809Y-102692295D01*
X106481619Y-102730390D01*
X106176857Y-102730390D01*
X106100666Y-102692295D01*
X106062571Y-102616104D01*
X106062571Y-102463723D01*
X106100666Y-102387533D01*
X106176857Y-102349438D01*
X106253047Y-102349438D01*
X106329238Y-102730390D01*
X106557809Y-101663723D02*
X106595904Y-101739914D01*
X106595904Y-101892295D01*
X106557809Y-101968485D01*
X106519714Y-102006580D01*
X106443523Y-102044676D01*
X106214952Y-102044676D01*
X106138761Y-102006580D01*
X106100666Y-101968485D01*
X106062571Y-101892295D01*
X106062571Y-101739914D01*
X106100666Y-101663723D01*
X106062571Y-101435152D02*
X106062571Y-101130390D01*
X105795904Y-101320866D02*
X106481619Y-101320866D01*
X106557809Y-101282771D01*
X106595904Y-101206580D01*
X106595904Y-101130390D01*
X107995904Y-106635152D02*
X107195904Y-106635152D01*
X107576857Y-106635152D02*
X107576857Y-106178009D01*
X107995904Y-106178009D02*
X107195904Y-106178009D01*
X107195904Y-105911342D02*
X107995904Y-105644676D01*
X107195904Y-105378009D01*
X107157809Y-104539914D02*
X108186380Y-105225628D01*
X107995904Y-103892295D02*
X107995904Y-104273247D01*
X107195904Y-104273247D01*
X107195904Y-103739914D02*
X107995904Y-103473247D01*
X107195904Y-103206580D01*
X107234000Y-101911342D02*
X107195904Y-101987533D01*
X107195904Y-102101819D01*
X107234000Y-102216104D01*
X107310190Y-102292295D01*
X107386380Y-102330390D01*
X107538761Y-102368485D01*
X107653047Y-102368485D01*
X107805428Y-102330390D01*
X107881619Y-102292295D01*
X107957809Y-102216104D01*
X107995904Y-102101819D01*
X107995904Y-102025628D01*
X107957809Y-101911342D01*
X107919714Y-101873247D01*
X107653047Y-101873247D01*
X107653047Y-102025628D01*
X107995904Y-101530390D02*
X107195904Y-101530390D01*
X107995904Y-101073247D01*
X107195904Y-101073247D01*
X107995904Y-100692295D02*
X107195904Y-100692295D01*
X107195904Y-100501819D01*
X107234000Y-100387533D01*
X107310190Y-100311342D01*
X107386380Y-100273247D01*
X107538761Y-100235152D01*
X107653047Y-100235152D01*
X107805428Y-100273247D01*
X107881619Y-100311342D01*
X107957809Y-100387533D01*
X107995904Y-100501819D01*
X107995904Y-100692295D01*
D10*
X107426285Y-116733628D02*
X108188190Y-116733628D01*
X109140571Y-116114580D02*
X108664380Y-116114580D01*
X108616761Y-116590771D01*
X108664380Y-116543152D01*
X108759619Y-116495533D01*
X108997714Y-116495533D01*
X109092952Y-116543152D01*
X109140571Y-116590771D01*
X109188190Y-116686009D01*
X109188190Y-116924104D01*
X109140571Y-117019342D01*
X109092952Y-117066961D01*
X108997714Y-117114580D01*
X108759619Y-117114580D01*
X108664380Y-117066961D01*
X108616761Y-117019342D01*
X109473904Y-116114580D02*
X109807238Y-117114580D01*
X110140571Y-116114580D01*
X107400885Y-109088228D02*
X108162790Y-109088228D01*
X107781838Y-109469180D02*
X107781838Y-108707276D01*
X109115171Y-108469180D02*
X108638980Y-108469180D01*
X108591361Y-108945371D01*
X108638980Y-108897752D01*
X108734219Y-108850133D01*
X108972314Y-108850133D01*
X109067552Y-108897752D01*
X109115171Y-108945371D01*
X109162790Y-109040609D01*
X109162790Y-109278704D01*
X109115171Y-109373942D01*
X109067552Y-109421561D01*
X108972314Y-109469180D01*
X108734219Y-109469180D01*
X108638980Y-109421561D01*
X108591361Y-109373942D01*
X109448504Y-108469180D02*
X109781838Y-109469180D01*
X110115171Y-108469180D01*
X107988266Y-89327028D02*
X108750171Y-89327028D01*
X108369219Y-89707980D02*
X108369219Y-88946076D01*
X109226361Y-89707980D02*
X109226361Y-88707980D01*
X109226361Y-89184171D02*
X109797790Y-89184171D01*
X109797790Y-89707980D02*
X109797790Y-88707980D01*
X110131123Y-88707980D02*
X110464457Y-89707980D01*
X110797790Y-88707980D01*
X167919180Y-112386047D02*
X167919180Y-112195571D01*
X167966800Y-112100333D01*
X168062038Y-112005095D01*
X168252514Y-111957476D01*
X168585847Y-111957476D01*
X168776323Y-112005095D01*
X168871561Y-112100333D01*
X168919180Y-112195571D01*
X168919180Y-112386047D01*
X168871561Y-112481285D01*
X168776323Y-112576523D01*
X168585847Y-112624142D01*
X168252514Y-112624142D01*
X168062038Y-112576523D01*
X167966800Y-112481285D01*
X167919180Y-112386047D01*
X168871561Y-111100333D02*
X168919180Y-111195571D01*
X168919180Y-111386047D01*
X168871561Y-111481285D01*
X168823942Y-111528904D01*
X168728704Y-111576523D01*
X168442990Y-111576523D01*
X168347752Y-111528904D01*
X168300133Y-111481285D01*
X168252514Y-111386047D01*
X168252514Y-111195571D01*
X168300133Y-111100333D01*
X168919180Y-110671761D02*
X167919180Y-110671761D01*
X168919180Y-110243190D02*
X168395371Y-110243190D01*
X168300133Y-110290809D01*
X168252514Y-110386047D01*
X168252514Y-110528904D01*
X168300133Y-110624142D01*
X168347752Y-110671761D01*
X168919180Y-109338428D02*
X168395371Y-109338428D01*
X168300133Y-109386047D01*
X168252514Y-109481285D01*
X168252514Y-109671761D01*
X168300133Y-109767000D01*
X168871561Y-109338428D02*
X168919180Y-109433666D01*
X168919180Y-109671761D01*
X168871561Y-109767000D01*
X168776323Y-109814619D01*
X168681085Y-109814619D01*
X168585847Y-109767000D01*
X168538228Y-109671761D01*
X168538228Y-109433666D01*
X168490609Y-109338428D01*
X168252514Y-108862238D02*
X168919180Y-108862238D01*
X168347752Y-108862238D02*
X168300133Y-108814619D01*
X168252514Y-108719380D01*
X168252514Y-108576523D01*
X168300133Y-108481285D01*
X168395371Y-108433666D01*
X168919180Y-108433666D01*
X168919180Y-107814619D02*
X168871561Y-107909857D01*
X168823942Y-107957476D01*
X168728704Y-108005095D01*
X168442990Y-108005095D01*
X168347752Y-107957476D01*
X168300133Y-107909857D01*
X168252514Y-107814619D01*
X168252514Y-107671761D01*
X168300133Y-107576523D01*
X168347752Y-107528904D01*
X168442990Y-107481285D01*
X168728704Y-107481285D01*
X168823942Y-107528904D01*
X168871561Y-107576523D01*
X168919180Y-107671761D01*
X168919180Y-107814619D01*
X168919180Y-107052714D02*
X168252514Y-107052714D01*
X168347752Y-107052714D02*
X168300133Y-107005095D01*
X168252514Y-106909857D01*
X168252514Y-106767000D01*
X168300133Y-106671761D01*
X168395371Y-106624142D01*
X168919180Y-106624142D01*
X168395371Y-106624142D02*
X168300133Y-106576523D01*
X168252514Y-106481285D01*
X168252514Y-106338428D01*
X168300133Y-106243190D01*
X168395371Y-106195571D01*
X168919180Y-106195571D01*
X168919180Y-105719380D02*
X168252514Y-105719380D01*
X167919180Y-105719380D02*
X167966800Y-105767000D01*
X168014419Y-105719380D01*
X167966800Y-105671761D01*
X167919180Y-105719380D01*
X168014419Y-105719380D01*
X168252514Y-105338428D02*
X168252514Y-104814619D01*
X168919180Y-105338428D01*
X168919180Y-104814619D01*
X168252514Y-104005095D02*
X168919180Y-104005095D01*
X168252514Y-104433666D02*
X168776323Y-104433666D01*
X168871561Y-104386047D01*
X168919180Y-104290809D01*
X168919180Y-104147952D01*
X168871561Y-104052714D01*
X168823942Y-104005095D01*
X167919180Y-102767000D02*
X168728704Y-102767000D01*
X168823942Y-102719380D01*
X168871561Y-102671761D01*
X168919180Y-102576523D01*
X168919180Y-102386047D01*
X168871561Y-102290809D01*
X168823942Y-102243190D01*
X168728704Y-102195571D01*
X167919180Y-102195571D01*
X168252514Y-101719380D02*
X168919180Y-101719380D01*
X168347752Y-101719380D02*
X168300133Y-101671761D01*
X168252514Y-101576523D01*
X168252514Y-101433666D01*
X168300133Y-101338428D01*
X168395371Y-101290809D01*
X168919180Y-101290809D01*
X168919180Y-100814619D02*
X168252514Y-100814619D01*
X167919180Y-100814619D02*
X167966800Y-100862238D01*
X168014419Y-100814619D01*
X167966800Y-100767000D01*
X167919180Y-100814619D01*
X168014419Y-100814619D01*
X168252514Y-100433666D02*
X168919180Y-100195571D01*
X168252514Y-99957476D01*
X168871561Y-99195571D02*
X168919180Y-99290809D01*
X168919180Y-99481285D01*
X168871561Y-99576523D01*
X168776323Y-99624142D01*
X168395371Y-99624142D01*
X168300133Y-99576523D01*
X168252514Y-99481285D01*
X168252514Y-99290809D01*
X168300133Y-99195571D01*
X168395371Y-99147952D01*
X168490609Y-99147952D01*
X168585847Y-99624142D01*
X168919180Y-98719380D02*
X168252514Y-98719380D01*
X168442990Y-98719380D02*
X168347752Y-98671761D01*
X168300133Y-98624142D01*
X168252514Y-98528904D01*
X168252514Y-98433666D01*
X168871561Y-98147952D02*
X168919180Y-98052714D01*
X168919180Y-97862238D01*
X168871561Y-97767000D01*
X168776323Y-97719380D01*
X168728704Y-97719380D01*
X168633466Y-97767000D01*
X168585847Y-97862238D01*
X168585847Y-98005095D01*
X168538228Y-98100333D01*
X168442990Y-98147952D01*
X168395371Y-98147952D01*
X168300133Y-98100333D01*
X168252514Y-98005095D01*
X168252514Y-97862238D01*
X168300133Y-97767000D01*
X168919180Y-97290809D02*
X168252514Y-97290809D01*
X167919180Y-97290809D02*
X167966800Y-97338428D01*
X168014419Y-97290809D01*
X167966800Y-97243190D01*
X167919180Y-97290809D01*
X168014419Y-97290809D01*
X168252514Y-96957476D02*
X168252514Y-96576523D01*
X167919180Y-96814619D02*
X168776323Y-96814619D01*
X168871561Y-96767000D01*
X168919180Y-96671761D01*
X168919180Y-96576523D01*
X168252514Y-96338428D02*
X168919180Y-96100333D01*
X168252514Y-95862238D02*
X168919180Y-96100333D01*
X169157276Y-96195571D01*
X169204895Y-96243190D01*
X169252514Y-96338428D01*
X170669180Y-116338428D02*
X169669180Y-116338428D01*
X170383466Y-116005095D01*
X169669180Y-115671761D01*
X170669180Y-115671761D01*
X170669180Y-115195571D02*
X169669180Y-115195571D01*
X169669180Y-114814619D01*
X169716800Y-114719380D01*
X169764419Y-114671761D01*
X169859657Y-114624142D01*
X170002514Y-114624142D01*
X170097752Y-114671761D01*
X170145371Y-114719380D01*
X170192990Y-114814619D01*
X170192990Y-115195571D01*
X170669180Y-114195571D02*
X169669180Y-114195571D01*
X169669180Y-113814619D01*
X169716800Y-113719380D01*
X169764419Y-113671761D01*
X169859657Y-113624142D01*
X170002514Y-113624142D01*
X170097752Y-113671761D01*
X170145371Y-113719380D01*
X170192990Y-113814619D01*
X170192990Y-114195571D01*
X170573942Y-112624142D02*
X170621561Y-112671761D01*
X170669180Y-112814619D01*
X170669180Y-112909857D01*
X170621561Y-113052714D01*
X170526323Y-113147952D01*
X170431085Y-113195571D01*
X170240609Y-113243190D01*
X170097752Y-113243190D01*
X169907276Y-113195571D01*
X169812038Y-113147952D01*
X169716800Y-113052714D01*
X169669180Y-112909857D01*
X169669180Y-112814619D01*
X169716800Y-112671761D01*
X169764419Y-112624142D01*
X170669180Y-110862238D02*
X170192990Y-111195571D01*
X170669180Y-111433666D02*
X169669180Y-111433666D01*
X169669180Y-111052714D01*
X169716800Y-110957476D01*
X169764419Y-110909857D01*
X169859657Y-110862238D01*
X170002514Y-110862238D01*
X170097752Y-110909857D01*
X170145371Y-110957476D01*
X170192990Y-111052714D01*
X170192990Y-111433666D01*
X170621561Y-110052714D02*
X170669180Y-110147952D01*
X170669180Y-110338428D01*
X170621561Y-110433666D01*
X170526323Y-110481285D01*
X170145371Y-110481285D01*
X170050133Y-110433666D01*
X170002514Y-110338428D01*
X170002514Y-110147952D01*
X170050133Y-110052714D01*
X170145371Y-110005095D01*
X170240609Y-110005095D01*
X170335847Y-110481285D01*
X170669180Y-109147952D02*
X170145371Y-109147952D01*
X170050133Y-109195571D01*
X170002514Y-109290809D01*
X170002514Y-109481285D01*
X170050133Y-109576523D01*
X170621561Y-109147952D02*
X170669180Y-109243190D01*
X170669180Y-109481285D01*
X170621561Y-109576523D01*
X170526323Y-109624142D01*
X170431085Y-109624142D01*
X170335847Y-109576523D01*
X170288228Y-109481285D01*
X170288228Y-109243190D01*
X170240609Y-109147952D01*
X170669180Y-108243190D02*
X169669180Y-108243190D01*
X170621561Y-108243190D02*
X170669180Y-108338428D01*
X170669180Y-108528904D01*
X170621561Y-108624142D01*
X170573942Y-108671761D01*
X170478704Y-108719380D01*
X170192990Y-108719380D01*
X170097752Y-108671761D01*
X170050133Y-108624142D01*
X170002514Y-108528904D01*
X170002514Y-108338428D01*
X170050133Y-108243190D01*
X170669180Y-107624142D02*
X170621561Y-107719380D01*
X170573942Y-107767000D01*
X170478704Y-107814619D01*
X170192990Y-107814619D01*
X170097752Y-107767000D01*
X170050133Y-107719380D01*
X170002514Y-107624142D01*
X170002514Y-107481285D01*
X170050133Y-107386047D01*
X170097752Y-107338428D01*
X170192990Y-107290809D01*
X170478704Y-107290809D01*
X170573942Y-107338428D01*
X170621561Y-107386047D01*
X170669180Y-107481285D01*
X170669180Y-107624142D01*
X170002514Y-106433666D02*
X170669180Y-106433666D01*
X170002514Y-106862238D02*
X170526323Y-106862238D01*
X170621561Y-106814619D01*
X170669180Y-106719380D01*
X170669180Y-106576523D01*
X170621561Y-106481285D01*
X170573942Y-106433666D01*
X170002514Y-106100333D02*
X170002514Y-105719380D01*
X169669180Y-105957476D02*
X170526323Y-105957476D01*
X170621561Y-105909857D01*
X170669180Y-105814619D01*
X170669180Y-105719380D01*
X170145371Y-104290809D02*
X170192990Y-104147952D01*
X170240609Y-104100333D01*
X170335847Y-104052714D01*
X170478704Y-104052714D01*
X170573942Y-104100333D01*
X170621561Y-104147952D01*
X170669180Y-104243190D01*
X170669180Y-104624142D01*
X169669180Y-104624142D01*
X169669180Y-104290809D01*
X169716800Y-104195571D01*
X169764419Y-104147952D01*
X169859657Y-104100333D01*
X169954895Y-104100333D01*
X170050133Y-104147952D01*
X170097752Y-104195571D01*
X170145371Y-104290809D01*
X170145371Y-104624142D01*
X170669180Y-103481285D02*
X170621561Y-103576523D01*
X170573942Y-103624142D01*
X170478704Y-103671761D01*
X170192990Y-103671761D01*
X170097752Y-103624142D01*
X170050133Y-103576523D01*
X170002514Y-103481285D01*
X170002514Y-103338428D01*
X170050133Y-103243190D01*
X170097752Y-103195571D01*
X170192990Y-103147952D01*
X170478704Y-103147952D01*
X170573942Y-103195571D01*
X170621561Y-103243190D01*
X170669180Y-103338428D01*
X170669180Y-103481285D01*
X170669180Y-102290809D02*
X170145371Y-102290809D01*
X170050133Y-102338428D01*
X170002514Y-102433666D01*
X170002514Y-102624142D01*
X170050133Y-102719380D01*
X170621561Y-102290809D02*
X170669180Y-102386047D01*
X170669180Y-102624142D01*
X170621561Y-102719380D01*
X170526323Y-102767000D01*
X170431085Y-102767000D01*
X170335847Y-102719380D01*
X170288228Y-102624142D01*
X170288228Y-102386047D01*
X170240609Y-102290809D01*
X170669180Y-101814619D02*
X170002514Y-101814619D01*
X170192990Y-101814619D02*
X170097752Y-101767000D01*
X170050133Y-101719380D01*
X170002514Y-101624142D01*
X170002514Y-101528904D01*
X170669180Y-100767000D02*
X169669180Y-100767000D01*
X170621561Y-100767000D02*
X170669180Y-100862238D01*
X170669180Y-101052714D01*
X170621561Y-101147952D01*
X170573942Y-101195571D01*
X170478704Y-101243190D01*
X170192990Y-101243190D01*
X170097752Y-101195571D01*
X170050133Y-101147952D01*
X170002514Y-101052714D01*
X170002514Y-100862238D01*
X170050133Y-100767000D01*
X169669180Y-99671761D02*
X170669180Y-99338428D01*
X169669180Y-99005095D01*
X170621561Y-98290809D02*
X170669180Y-98386047D01*
X170669180Y-98576523D01*
X170621561Y-98671761D01*
X170526323Y-98719380D01*
X170145371Y-98719380D01*
X170050133Y-98671761D01*
X170002514Y-98576523D01*
X170002514Y-98386047D01*
X170050133Y-98290809D01*
X170145371Y-98243190D01*
X170240609Y-98243190D01*
X170335847Y-98719380D01*
X170669180Y-97814619D02*
X170002514Y-97814619D01*
X170192990Y-97814619D02*
X170097752Y-97767000D01*
X170050133Y-97719380D01*
X170002514Y-97624142D01*
X170002514Y-97528904D01*
X170621561Y-97243190D02*
X170669180Y-97147952D01*
X170669180Y-96957476D01*
X170621561Y-96862238D01*
X170526323Y-96814619D01*
X170478704Y-96814619D01*
X170383466Y-96862238D01*
X170335847Y-96957476D01*
X170335847Y-97100333D01*
X170288228Y-97195571D01*
X170192990Y-97243190D01*
X170145371Y-97243190D01*
X170050133Y-97195571D01*
X170002514Y-97100333D01*
X170002514Y-96957476D01*
X170050133Y-96862238D01*
X170669180Y-96386047D02*
X170002514Y-96386047D01*
X169669180Y-96386047D02*
X169716800Y-96433666D01*
X169764419Y-96386047D01*
X169716800Y-96338428D01*
X169669180Y-96386047D01*
X169764419Y-96386047D01*
X170669180Y-95767000D02*
X170621561Y-95862238D01*
X170573942Y-95909857D01*
X170478704Y-95957476D01*
X170192990Y-95957476D01*
X170097752Y-95909857D01*
X170050133Y-95862238D01*
X170002514Y-95767000D01*
X170002514Y-95624142D01*
X170050133Y-95528904D01*
X170097752Y-95481285D01*
X170192990Y-95433666D01*
X170478704Y-95433666D01*
X170573942Y-95481285D01*
X170621561Y-95528904D01*
X170669180Y-95624142D01*
X170669180Y-95767000D01*
X170002514Y-95005095D02*
X170669180Y-95005095D01*
X170097752Y-95005095D02*
X170050133Y-94957476D01*
X170002514Y-94862238D01*
X170002514Y-94719380D01*
X170050133Y-94624142D01*
X170145371Y-94576523D01*
X170669180Y-94576523D01*
X169669180Y-94195571D02*
X169669180Y-93576523D01*
X170050133Y-93909857D01*
X170050133Y-93767000D01*
X170097752Y-93671761D01*
X170145371Y-93624142D01*
X170240609Y-93576523D01*
X170478704Y-93576523D01*
X170573942Y-93624142D01*
X170621561Y-93671761D01*
X170669180Y-93767000D01*
X170669180Y-94052714D01*
X170621561Y-94147952D01*
X170573942Y-94195571D01*
X170573942Y-93147952D02*
X170621561Y-93100333D01*
X170669180Y-93147952D01*
X170621561Y-93195571D01*
X170573942Y-93147952D01*
X170669180Y-93147952D01*
X169669180Y-92481285D02*
X169669180Y-92386047D01*
X169716800Y-92290809D01*
X169764419Y-92243190D01*
X169859657Y-92195571D01*
X170050133Y-92147952D01*
X170288228Y-92147952D01*
X170478704Y-92195571D01*
X170573942Y-92243190D01*
X170621561Y-92290809D01*
X170669180Y-92386047D01*
X170669180Y-92481285D01*
X170621561Y-92576523D01*
X170573942Y-92624142D01*
X170478704Y-92671761D01*
X170288228Y-92719380D01*
X170050133Y-92719380D01*
X169859657Y-92671761D01*
X169764419Y-92624142D01*
X169716800Y-92576523D01*
X169669180Y-92481285D01*
X160969485Y-93563742D02*
X160921866Y-93611361D01*
X160779009Y-93658980D01*
X160683771Y-93658980D01*
X160540914Y-93611361D01*
X160445676Y-93516123D01*
X160398057Y-93420885D01*
X160350438Y-93230409D01*
X160350438Y-93087552D01*
X160398057Y-92897076D01*
X160445676Y-92801838D01*
X160540914Y-92706600D01*
X160683771Y-92658980D01*
X160779009Y-92658980D01*
X160921866Y-92706600D01*
X160969485Y-92754219D01*
X161588533Y-92658980D02*
X161779009Y-92658980D01*
X161874247Y-92706600D01*
X161969485Y-92801838D01*
X162017104Y-92992314D01*
X162017104Y-93325647D01*
X161969485Y-93516123D01*
X161874247Y-93611361D01*
X161779009Y-93658980D01*
X161588533Y-93658980D01*
X161493295Y-93611361D01*
X161398057Y-93516123D01*
X161350438Y-93325647D01*
X161350438Y-92992314D01*
X161398057Y-92801838D01*
X161493295Y-92706600D01*
X161588533Y-92658980D01*
X162445676Y-93658980D02*
X162445676Y-92658980D01*
X162779009Y-93373266D01*
X163112342Y-92658980D01*
X163112342Y-93658980D01*
X163588533Y-93658980D02*
X163588533Y-92658980D01*
X163969485Y-92658980D01*
X164064723Y-92706600D01*
X164112342Y-92754219D01*
X164159961Y-92849457D01*
X164159961Y-92992314D01*
X164112342Y-93087552D01*
X164064723Y-93135171D01*
X163969485Y-93182790D01*
X163588533Y-93182790D01*
X161731390Y-95408980D02*
X161731390Y-94408980D01*
X162207580Y-95408980D02*
X162207580Y-94408980D01*
X162779009Y-95408980D01*
X162779009Y-94408980D01*
X148752085Y-93614542D02*
X148704466Y-93662161D01*
X148561609Y-93709780D01*
X148466371Y-93709780D01*
X148323514Y-93662161D01*
X148228276Y-93566923D01*
X148180657Y-93471685D01*
X148133038Y-93281209D01*
X148133038Y-93138352D01*
X148180657Y-92947876D01*
X148228276Y-92852638D01*
X148323514Y-92757400D01*
X148466371Y-92709780D01*
X148561609Y-92709780D01*
X148704466Y-92757400D01*
X148752085Y-92805019D01*
X149371133Y-92709780D02*
X149561609Y-92709780D01*
X149656847Y-92757400D01*
X149752085Y-92852638D01*
X149799704Y-93043114D01*
X149799704Y-93376447D01*
X149752085Y-93566923D01*
X149656847Y-93662161D01*
X149561609Y-93709780D01*
X149371133Y-93709780D01*
X149275895Y-93662161D01*
X149180657Y-93566923D01*
X149133038Y-93376447D01*
X149133038Y-93043114D01*
X149180657Y-92852638D01*
X149275895Y-92757400D01*
X149371133Y-92709780D01*
X150228276Y-93709780D02*
X150228276Y-92709780D01*
X150561609Y-93424066D01*
X150894942Y-92709780D01*
X150894942Y-93709780D01*
X151371133Y-93709780D02*
X151371133Y-92709780D01*
X151752085Y-92709780D01*
X151847323Y-92757400D01*
X151894942Y-92805019D01*
X151942561Y-92900257D01*
X151942561Y-93043114D01*
X151894942Y-93138352D01*
X151847323Y-93185971D01*
X151752085Y-93233590D01*
X151371133Y-93233590D01*
X149037800Y-94459780D02*
X149228276Y-94459780D01*
X149323514Y-94507400D01*
X149418752Y-94602638D01*
X149466371Y-94793114D01*
X149466371Y-95126447D01*
X149418752Y-95316923D01*
X149323514Y-95412161D01*
X149228276Y-95459780D01*
X149037800Y-95459780D01*
X148942561Y-95412161D01*
X148847323Y-95316923D01*
X148799704Y-95126447D01*
X148799704Y-94793114D01*
X148847323Y-94602638D01*
X148942561Y-94507400D01*
X149037800Y-94459780D01*
X149894942Y-94459780D02*
X149894942Y-95269304D01*
X149942561Y-95364542D01*
X149990180Y-95412161D01*
X150085419Y-95459780D01*
X150275895Y-95459780D01*
X150371133Y-95412161D01*
X150418752Y-95364542D01*
X150466371Y-95269304D01*
X150466371Y-94459780D01*
X150799704Y-94459780D02*
X151371133Y-94459780D01*
X151085419Y-95459780D02*
X151085419Y-94459780D01*
X135493285Y-89042542D02*
X135445666Y-89090161D01*
X135302809Y-89137780D01*
X135207571Y-89137780D01*
X135064714Y-89090161D01*
X134969476Y-88994923D01*
X134921857Y-88899685D01*
X134874238Y-88709209D01*
X134874238Y-88566352D01*
X134921857Y-88375876D01*
X134969476Y-88280638D01*
X135064714Y-88185400D01*
X135207571Y-88137780D01*
X135302809Y-88137780D01*
X135445666Y-88185400D01*
X135493285Y-88233019D01*
X136112333Y-88137780D02*
X136302809Y-88137780D01*
X136398047Y-88185400D01*
X136493285Y-88280638D01*
X136540904Y-88471114D01*
X136540904Y-88804447D01*
X136493285Y-88994923D01*
X136398047Y-89090161D01*
X136302809Y-89137780D01*
X136112333Y-89137780D01*
X136017095Y-89090161D01*
X135921857Y-88994923D01*
X135874238Y-88804447D01*
X135874238Y-88471114D01*
X135921857Y-88280638D01*
X136017095Y-88185400D01*
X136112333Y-88137780D01*
X136969476Y-89137780D02*
X136969476Y-88137780D01*
X137302809Y-88852066D01*
X137636142Y-88137780D01*
X137636142Y-89137780D01*
X138112333Y-89137780D02*
X138112333Y-88137780D01*
X138493285Y-88137780D01*
X138588523Y-88185400D01*
X138636142Y-88233019D01*
X138683761Y-88328257D01*
X138683761Y-88471114D01*
X138636142Y-88566352D01*
X138588523Y-88613971D01*
X138493285Y-88661590D01*
X138112333Y-88661590D01*
X135731380Y-89887780D02*
X136302809Y-89887780D01*
X136017095Y-90887780D02*
X136017095Y-89887780D01*
X136636142Y-90887780D02*
X136636142Y-89887780D01*
X137064714Y-90887780D02*
X137064714Y-90363971D01*
X137017095Y-90268733D01*
X136921857Y-90221114D01*
X136779000Y-90221114D01*
X136683761Y-90268733D01*
X136636142Y-90316352D01*
X137540904Y-90887780D02*
X137540904Y-90221114D01*
X137540904Y-90411590D02*
X137588523Y-90316352D01*
X137636142Y-90268733D01*
X137731380Y-90221114D01*
X137826619Y-90221114D01*
X128773466Y-90012780D02*
X128773466Y-89012780D01*
X129106800Y-89727066D01*
X129440133Y-89012780D01*
X129440133Y-90012780D01*
X129916323Y-90012780D02*
X129916323Y-89012780D01*
X130297276Y-89012780D01*
X130392514Y-89060400D01*
X130440133Y-89108019D01*
X130487752Y-89203257D01*
X130487752Y-89346114D01*
X130440133Y-89441352D01*
X130392514Y-89488971D01*
X130297276Y-89536590D01*
X129916323Y-89536590D01*
X130916323Y-90012780D02*
X130916323Y-89012780D01*
X131297276Y-89012780D01*
X131392514Y-89060400D01*
X131440133Y-89108019D01*
X131487752Y-89203257D01*
X131487752Y-89346114D01*
X131440133Y-89441352D01*
X131392514Y-89488971D01*
X131297276Y-89536590D01*
X130916323Y-89536590D01*
X132487752Y-89917542D02*
X132440133Y-89965161D01*
X132297276Y-90012780D01*
X132202038Y-90012780D01*
X132059180Y-89965161D01*
X131963942Y-89869923D01*
X131916323Y-89774685D01*
X131868704Y-89584209D01*
X131868704Y-89441352D01*
X131916323Y-89250876D01*
X131963942Y-89155638D01*
X132059180Y-89060400D01*
X132202038Y-89012780D01*
X132297276Y-89012780D01*
X132440133Y-89060400D01*
X132487752Y-89108019D01*
X124823552Y-89137780D02*
X124347361Y-89137780D01*
X124347361Y-88137780D01*
X125014028Y-88137780D02*
X125347361Y-89137780D01*
X125680695Y-88137780D01*
X124180695Y-89935400D02*
X124085457Y-89887780D01*
X123942600Y-89887780D01*
X123799742Y-89935400D01*
X123704504Y-90030638D01*
X123656885Y-90125876D01*
X123609266Y-90316352D01*
X123609266Y-90459209D01*
X123656885Y-90649685D01*
X123704504Y-90744923D01*
X123799742Y-90840161D01*
X123942600Y-90887780D01*
X124037838Y-90887780D01*
X124180695Y-90840161D01*
X124228314Y-90792542D01*
X124228314Y-90459209D01*
X124037838Y-90459209D01*
X124656885Y-90887780D02*
X124656885Y-89887780D01*
X125228314Y-90887780D01*
X125228314Y-89887780D01*
X125704504Y-90887780D02*
X125704504Y-89887780D01*
X125942600Y-89887780D01*
X126085457Y-89935400D01*
X126180695Y-90030638D01*
X126228314Y-90125876D01*
X126275933Y-90316352D01*
X126275933Y-90459209D01*
X126228314Y-90649685D01*
X126180695Y-90744923D01*
X126085457Y-90840161D01*
X125942600Y-90887780D01*
X125704504Y-90887780D01*
X112620514Y-89987380D02*
X112620514Y-88987380D01*
X112620514Y-89463571D02*
X113191942Y-89463571D01*
X113191942Y-89987380D02*
X113191942Y-88987380D01*
X113525276Y-88987380D02*
X113858609Y-89987380D01*
X114191942Y-88987380D01*
X118513314Y-89137780D02*
X118513314Y-88137780D01*
X118513314Y-88613971D02*
X119084742Y-88613971D01*
X119084742Y-89137780D02*
X119084742Y-88137780D01*
X119418076Y-88137780D02*
X119751409Y-89137780D01*
X120084742Y-88137780D01*
X118465695Y-89935400D02*
X118370457Y-89887780D01*
X118227600Y-89887780D01*
X118084742Y-89935400D01*
X117989504Y-90030638D01*
X117941885Y-90125876D01*
X117894266Y-90316352D01*
X117894266Y-90459209D01*
X117941885Y-90649685D01*
X117989504Y-90744923D01*
X118084742Y-90840161D01*
X118227600Y-90887780D01*
X118322838Y-90887780D01*
X118465695Y-90840161D01*
X118513314Y-90792542D01*
X118513314Y-90459209D01*
X118322838Y-90459209D01*
X118941885Y-90887780D02*
X118941885Y-89887780D01*
X119513314Y-90887780D01*
X119513314Y-89887780D01*
X119989504Y-90887780D02*
X119989504Y-89887780D01*
X120227600Y-89887780D01*
X120370457Y-89935400D01*
X120465695Y-90030638D01*
X120513314Y-90125876D01*
X120560933Y-90316352D01*
X120560933Y-90459209D01*
X120513314Y-90649685D01*
X120465695Y-90744923D01*
X120370457Y-90840161D01*
X120227600Y-90887780D01*
X119989504Y-90887780D01*
D12*
X110743400Y-119310000D02*
G75*
G03X110043400Y-119310000I-350000J0D01*
G01*
X110743400Y-120410000D02*
G75*
G02X110043400Y-120410000I-350000J0D01*
G01*
X110043400Y-119310000D02*
X110043400Y-120410000D01*
X110743400Y-119310000D02*
X110743400Y-120410000D01*
X127253400Y-112230000D02*
G75*
G03X126553400Y-112230000I-350000J0D01*
G01*
X127253400Y-113830000D02*
G75*
G02X126553400Y-113830000I-350000J0D01*
G01*
X127253400Y-113830000D02*
X127253400Y-112230000D01*
X126553400Y-113830000D02*
X126553400Y-112230000D01*
X110743400Y-112230000D02*
G75*
G03X110043400Y-112230000I-350000J0D01*
G01*
X110743400Y-113830000D02*
G75*
G02X110043400Y-113830000I-350000J0D01*
G01*
X110743400Y-113830000D02*
X110743400Y-112230000D01*
X110043400Y-113830000D02*
X110043400Y-112230000D01*
X110393400Y-123990000D02*
X110393400Y-110430000D01*
X126893400Y-123990000D02*
X110393400Y-123990000D01*
X126893400Y-110430000D02*
X126893400Y-123990000D01*
X110393400Y-110430000D02*
X126893400Y-110430000D01*
X127253400Y-120410000D02*
G75*
G02X126553400Y-120410000I-350000J0D01*
G01*
X126553400Y-119310000D02*
X126553400Y-120410000D01*
X127253400Y-119310000D02*
G75*
G03X126553400Y-119310000I-350000J0D01*
G01*
X127253400Y-119310000D02*
X127253400Y-120410000D01*
X111065000Y-101393300D02*
X113725000Y-101393300D01*
X111065000Y-98793300D02*
X111065000Y-101393300D01*
X113725000Y-98793300D02*
X113725000Y-101393300D01*
X111065000Y-98793300D02*
X113725000Y-98793300D01*
X111065000Y-97523300D02*
X111065000Y-96193300D01*
X111065000Y-96193300D02*
X112395000Y-96193300D01*
X118239000Y-101843621D02*
X118239000Y-102169179D01*
X117219000Y-101843621D02*
X117219000Y-102169179D01*
X121744200Y-99100421D02*
X121744200Y-99425979D01*
X120724200Y-99100421D02*
X120724200Y-99425979D01*
X126062200Y-102453221D02*
X126062200Y-102778779D01*
X125042200Y-102453221D02*
X125042200Y-102778779D01*
X138224800Y-95798421D02*
X138224800Y-96123979D01*
X139244800Y-95798421D02*
X139244800Y-96123979D01*
X139194000Y-100345021D02*
X139194000Y-100670579D01*
X138174000Y-100345021D02*
X138174000Y-100670579D01*
X162739800Y-104683779D02*
X162739800Y-104358221D01*
X161719800Y-104683779D02*
X161719800Y-104358221D01*
X155005821Y-115923600D02*
X155331379Y-115923600D01*
X155005821Y-116943600D02*
X155331379Y-116943600D01*
X143918400Y-99654579D02*
X143918400Y-99329021D01*
X142898400Y-99654579D02*
X142898400Y-99329021D01*
X157761400Y-98643221D02*
X157761400Y-98968779D01*
X156741400Y-98643221D02*
X156741400Y-98968779D01*
X143025400Y-103418421D02*
X143025400Y-103743979D01*
X144045400Y-103418421D02*
X144045400Y-103743979D01*
X138990800Y-117739379D02*
X138990800Y-117413821D01*
X137970800Y-117739379D02*
X137970800Y-117413821D01*
X122678500Y-95106800D02*
X122678500Y-92446800D01*
X120078500Y-95106800D02*
X122678500Y-95106800D01*
X120078500Y-92446800D02*
X122678500Y-92446800D01*
X120078500Y-95106800D02*
X120078500Y-92446800D01*
X118808500Y-95106800D02*
X117478500Y-95106800D01*
X117478500Y-95106800D02*
X117478500Y-93776800D01*
X101219000Y-98425000D02*
X101219000Y-88265000D01*
X99949000Y-98425000D02*
X107569000Y-98425000D01*
X107569000Y-98425000D02*
X107569000Y-88265000D01*
X107569000Y-88265000D02*
X99949000Y-88265000D01*
X99949000Y-88265000D02*
X99949000Y-98425000D01*
X100105000Y-108911400D02*
X106155000Y-108911400D01*
X106155000Y-108911400D02*
X106155000Y-116711400D01*
X106155000Y-116711400D02*
X100105000Y-116711400D01*
X100105000Y-116711400D02*
X100105000Y-108911400D01*
X100205000Y-110261400D02*
X101215000Y-110261400D01*
X101215000Y-110261400D02*
X101215000Y-115341400D01*
X101215000Y-115341400D02*
X100205000Y-115341400D01*
X160455200Y-84356400D02*
X164055200Y-84356400D01*
X160455200Y-91716400D02*
X164055200Y-91716400D01*
X165935200Y-86236400D02*
X165935200Y-89836400D01*
X158575200Y-86236400D02*
X158575200Y-89836400D01*
X146357800Y-86236400D02*
X146357800Y-89836400D01*
X153717800Y-86236400D02*
X153717800Y-89836400D01*
X148237800Y-91716400D02*
X151837800Y-91716400D01*
X148237800Y-84356400D02*
X151837800Y-84356400D01*
X102175000Y-100841500D02*
X103505000Y-100841500D01*
X102175000Y-102171500D02*
X102175000Y-100841500D01*
X102175000Y-103441500D02*
X104835000Y-103441500D01*
X104835000Y-103441500D02*
X104835000Y-106041500D01*
X102175000Y-103441500D02*
X102175000Y-106041500D01*
X102175000Y-106041500D02*
X104835000Y-106041500D01*
X163236600Y-116925400D02*
X165896600Y-116925400D01*
X163236600Y-111785400D02*
X163236600Y-116925400D01*
X165896600Y-111785400D02*
X165896600Y-116925400D01*
X163236600Y-111785400D02*
X165896600Y-111785400D01*
X163236600Y-110515400D02*
X163236600Y-109185400D01*
X163236600Y-109185400D02*
X164566600Y-109185400D01*
X114911000Y-85979000D02*
G75*
G03X114911000Y-85979000I-1500000J0D01*
G01*
X120702200Y-85979000D02*
G75*
G03X120702200Y-85979000I-1500000J0D01*
G01*
X126417200Y-85979000D02*
G75*
G03X126417200Y-85979000I-1500000J0D01*
G01*
X132106800Y-85979000D02*
G75*
G03X132106800Y-85979000I-1500000J0D01*
G01*
X138101200Y-85979000D02*
G75*
G03X138101200Y-85979000I-1500000J0D01*
G01*
X131775200Y-100756400D02*
X133725200Y-100756400D01*
X131775200Y-100756400D02*
X129825200Y-100756400D01*
X131775200Y-95636400D02*
X133725200Y-95636400D01*
X131775200Y-95636400D02*
X128325200Y-95636400D01*
X151180800Y-100030600D02*
X147730800Y-100030600D01*
X151180800Y-100030600D02*
X153130800Y-100030600D01*
X151180800Y-105150600D02*
X149230800Y-105150600D01*
X151180800Y-105150600D02*
X153130800Y-105150600D01*
X134112000Y-113710400D02*
X137562000Y-113710400D01*
X134112000Y-113710400D02*
X132162000Y-113710400D01*
X134112000Y-108590400D02*
X136062000Y-108590400D01*
X134112000Y-108590400D02*
X132162000Y-108590400D01*
X157378400Y-108895200D02*
X155428400Y-108895200D01*
X157378400Y-108895200D02*
X159328400Y-108895200D01*
X157378400Y-114015200D02*
X155428400Y-114015200D01*
X157378400Y-114015200D02*
X160828400Y-114015200D01*
X134516400Y-119055000D02*
X134516400Y-118125000D01*
X134516400Y-115895000D02*
X134516400Y-116825000D01*
X134516400Y-115895000D02*
X132356400Y-115895000D01*
X134516400Y-119055000D02*
X133056400Y-119055000D01*
X147853400Y-108782800D02*
X145903400Y-108782800D01*
X147853400Y-108782800D02*
X149803400Y-108782800D01*
X147853400Y-118902800D02*
X145903400Y-118902800D01*
X147853400Y-118902800D02*
X151303400Y-118902800D01*
X142140400Y-113527621D02*
X142140400Y-113853179D01*
X141120400Y-113527621D02*
X141120400Y-113853179D01*
X159146021Y-115923600D02*
X159471579Y-115923600D01*
X159146021Y-116943600D02*
X159471579Y-116943600D01*
D13*
X100666666Y-116963180D02*
X100333333Y-116486990D01*
X100095238Y-116963180D02*
X100095238Y-115963180D01*
X100476190Y-115963180D01*
X100571428Y-116010800D01*
X100619047Y-116058419D01*
X100666666Y-116153657D01*
X100666666Y-116296514D01*
X100619047Y-116391752D01*
X100571428Y-116439371D01*
X100476190Y-116486990D01*
X100095238Y-116486990D01*
X101095238Y-116439371D02*
X101428571Y-116439371D01*
X101571428Y-116963180D02*
X101095238Y-116963180D01*
X101095238Y-115963180D01*
X101571428Y-115963180D01*
X102333333Y-116439371D02*
X102000000Y-116439371D01*
X102000000Y-116963180D02*
X102000000Y-115963180D01*
X102476190Y-115963180D01*
X103000000Y-115963180D02*
X103000000Y-116201276D01*
X102761904Y-116106038D02*
X103000000Y-116201276D01*
X103238095Y-116106038D01*
X102857142Y-116391752D02*
X103000000Y-116201276D01*
X103142857Y-116391752D01*
X103761904Y-115963180D02*
X103761904Y-116201276D01*
X103523809Y-116106038D02*
X103761904Y-116201276D01*
X104000000Y-116106038D01*
X103619047Y-116391752D02*
X103761904Y-116201276D01*
X103904761Y-116391752D01*
X167666666Y-116963180D02*
X167333333Y-116486990D01*
X167095238Y-116963180D02*
X167095238Y-115963180D01*
X167476190Y-115963180D01*
X167571428Y-116010800D01*
X167619047Y-116058419D01*
X167666666Y-116153657D01*
X167666666Y-116296514D01*
X167619047Y-116391752D01*
X167571428Y-116439371D01*
X167476190Y-116486990D01*
X167095238Y-116486990D01*
X168095238Y-116439371D02*
X168428571Y-116439371D01*
X168571428Y-116963180D02*
X168095238Y-116963180D01*
X168095238Y-115963180D01*
X168571428Y-115963180D01*
X169333333Y-116439371D02*
X169000000Y-116439371D01*
X169000000Y-116963180D02*
X169000000Y-115963180D01*
X169476190Y-115963180D01*
X170000000Y-115963180D02*
X170000000Y-116201276D01*
X169761904Y-116106038D02*
X170000000Y-116201276D01*
X170238095Y-116106038D01*
X169857142Y-116391752D02*
X170000000Y-116201276D01*
X170142857Y-116391752D01*
X170761904Y-115963180D02*
X170761904Y-116201276D01*
X170523809Y-116106038D02*
X170761904Y-116201276D01*
X171000000Y-116106038D01*
X170619047Y-116391752D02*
X170761904Y-116201276D01*
X170904761Y-116391752D01*
X167666666Y-81452380D02*
X167333333Y-80976190D01*
X167095238Y-81452380D02*
X167095238Y-80452380D01*
X167476190Y-80452380D01*
X167571428Y-80500000D01*
X167619047Y-80547619D01*
X167666666Y-80642857D01*
X167666666Y-80785714D01*
X167619047Y-80880952D01*
X167571428Y-80928571D01*
X167476190Y-80976190D01*
X167095238Y-80976190D01*
X168095238Y-80928571D02*
X168428571Y-80928571D01*
X168571428Y-81452380D02*
X168095238Y-81452380D01*
X168095238Y-80452380D01*
X168571428Y-80452380D01*
X169333333Y-80928571D02*
X169000000Y-80928571D01*
X169000000Y-81452380D02*
X169000000Y-80452380D01*
X169476190Y-80452380D01*
X170000000Y-80452380D02*
X170000000Y-80690476D01*
X169761904Y-80595238D02*
X170000000Y-80690476D01*
X170238095Y-80595238D01*
X169857142Y-80880952D02*
X170000000Y-80690476D01*
X170142857Y-80880952D01*
X170761904Y-80452380D02*
X170761904Y-80690476D01*
X170523809Y-80595238D02*
X170761904Y-80690476D01*
X171000000Y-80595238D01*
X170619047Y-80880952D02*
X170761904Y-80690476D01*
X170904761Y-80880952D01*
X100666666Y-81452380D02*
X100333333Y-80976190D01*
X100095238Y-81452380D02*
X100095238Y-80452380D01*
X100476190Y-80452380D01*
X100571428Y-80500000D01*
X100619047Y-80547619D01*
X100666666Y-80642857D01*
X100666666Y-80785714D01*
X100619047Y-80880952D01*
X100571428Y-80928571D01*
X100476190Y-80976190D01*
X100095238Y-80976190D01*
X101095238Y-80928571D02*
X101428571Y-80928571D01*
X101571428Y-81452380D02*
X101095238Y-81452380D01*
X101095238Y-80452380D01*
X101571428Y-80452380D01*
X102333333Y-80928571D02*
X102000000Y-80928571D01*
X102000000Y-81452380D02*
X102000000Y-80452380D01*
X102476190Y-80452380D01*
X103000000Y-80452380D02*
X103000000Y-80690476D01*
X102761904Y-80595238D02*
X103000000Y-80690476D01*
X103238095Y-80595238D01*
X102857142Y-80880952D02*
X103000000Y-80690476D01*
X103142857Y-80880952D01*
X103761904Y-80452380D02*
X103761904Y-80690476D01*
X103523809Y-80595238D02*
X103761904Y-80690476D01*
X104000000Y-80595238D01*
X103619047Y-80880952D02*
X103761904Y-80690476D01*
X103904761Y-80880952D01*
X118310066Y-112982380D02*
X118310066Y-113696666D01*
X118262447Y-113839523D01*
X118167209Y-113934761D01*
X118024352Y-113982380D01*
X117929114Y-113982380D01*
X119214828Y-113315714D02*
X119214828Y-113982380D01*
X118976733Y-112934761D02*
X118738638Y-113649047D01*
X119357685Y-113649047D01*
X112228333Y-95550442D02*
X112180714Y-95598061D01*
X112037857Y-95645680D01*
X111942619Y-95645680D01*
X111799761Y-95598061D01*
X111704523Y-95502823D01*
X111656904Y-95407585D01*
X111609285Y-95217109D01*
X111609285Y-95074252D01*
X111656904Y-94883776D01*
X111704523Y-94788538D01*
X111799761Y-94693300D01*
X111942619Y-94645680D01*
X112037857Y-94645680D01*
X112180714Y-94693300D01*
X112228333Y-94740919D01*
X113180714Y-95645680D02*
X112609285Y-95645680D01*
X112895000Y-95645680D02*
X112895000Y-94645680D01*
X112799761Y-94788538D01*
X112704523Y-94883776D01*
X112609285Y-94931395D01*
X119516142Y-102173066D02*
X119563761Y-102220685D01*
X119611380Y-102363542D01*
X119611380Y-102458780D01*
X119563761Y-102601638D01*
X119468523Y-102696876D01*
X119373285Y-102744495D01*
X119182809Y-102792114D01*
X119039952Y-102792114D01*
X118849476Y-102744495D01*
X118754238Y-102696876D01*
X118659000Y-102601638D01*
X118611380Y-102458780D01*
X118611380Y-102363542D01*
X118659000Y-102220685D01*
X118706619Y-102173066D01*
X118706619Y-101792114D02*
X118659000Y-101744495D01*
X118611380Y-101649257D01*
X118611380Y-101411161D01*
X118659000Y-101315923D01*
X118706619Y-101268304D01*
X118801857Y-101220685D01*
X118897095Y-101220685D01*
X119039952Y-101268304D01*
X119611380Y-101839733D01*
X119611380Y-101220685D01*
X123021342Y-99429866D02*
X123068961Y-99477485D01*
X123116580Y-99620342D01*
X123116580Y-99715580D01*
X123068961Y-99858438D01*
X122973723Y-99953676D01*
X122878485Y-100001295D01*
X122688009Y-100048914D01*
X122545152Y-100048914D01*
X122354676Y-100001295D01*
X122259438Y-99953676D01*
X122164200Y-99858438D01*
X122116580Y-99715580D01*
X122116580Y-99620342D01*
X122164200Y-99477485D01*
X122211819Y-99429866D01*
X122116580Y-99096533D02*
X122116580Y-98477485D01*
X122497533Y-98810819D01*
X122497533Y-98667961D01*
X122545152Y-98572723D01*
X122592771Y-98525104D01*
X122688009Y-98477485D01*
X122926104Y-98477485D01*
X123021342Y-98525104D01*
X123068961Y-98572723D01*
X123116580Y-98667961D01*
X123116580Y-98953676D01*
X123068961Y-99048914D01*
X123021342Y-99096533D01*
X127339342Y-102782666D02*
X127386961Y-102830285D01*
X127434580Y-102973142D01*
X127434580Y-103068380D01*
X127386961Y-103211238D01*
X127291723Y-103306476D01*
X127196485Y-103354095D01*
X127006009Y-103401714D01*
X126863152Y-103401714D01*
X126672676Y-103354095D01*
X126577438Y-103306476D01*
X126482200Y-103211238D01*
X126434580Y-103068380D01*
X126434580Y-102973142D01*
X126482200Y-102830285D01*
X126529819Y-102782666D01*
X126767914Y-101925523D02*
X127434580Y-101925523D01*
X126386961Y-102163619D02*
X127101247Y-102401714D01*
X127101247Y-101782666D01*
X140521942Y-96127866D02*
X140569561Y-96175485D01*
X140617180Y-96318342D01*
X140617180Y-96413580D01*
X140569561Y-96556438D01*
X140474323Y-96651676D01*
X140379085Y-96699295D01*
X140188609Y-96746914D01*
X140045752Y-96746914D01*
X139855276Y-96699295D01*
X139760038Y-96651676D01*
X139664800Y-96556438D01*
X139617180Y-96413580D01*
X139617180Y-96318342D01*
X139664800Y-96175485D01*
X139712419Y-96127866D01*
X139617180Y-95223104D02*
X139617180Y-95699295D01*
X140093371Y-95746914D01*
X140045752Y-95699295D01*
X139998133Y-95604057D01*
X139998133Y-95365961D01*
X140045752Y-95270723D01*
X140093371Y-95223104D01*
X140188609Y-95175485D01*
X140426704Y-95175485D01*
X140521942Y-95223104D01*
X140569561Y-95270723D01*
X140617180Y-95365961D01*
X140617180Y-95604057D01*
X140569561Y-95699295D01*
X140521942Y-95746914D01*
X140471142Y-100674466D02*
X140518761Y-100722085D01*
X140566380Y-100864942D01*
X140566380Y-100960180D01*
X140518761Y-101103038D01*
X140423523Y-101198276D01*
X140328285Y-101245895D01*
X140137809Y-101293514D01*
X139994952Y-101293514D01*
X139804476Y-101245895D01*
X139709238Y-101198276D01*
X139614000Y-101103038D01*
X139566380Y-100960180D01*
X139566380Y-100864942D01*
X139614000Y-100722085D01*
X139661619Y-100674466D01*
X139566380Y-99817323D02*
X139566380Y-100007800D01*
X139614000Y-100103038D01*
X139661619Y-100150657D01*
X139804476Y-100245895D01*
X139994952Y-100293514D01*
X140375904Y-100293514D01*
X140471142Y-100245895D01*
X140518761Y-100198276D01*
X140566380Y-100103038D01*
X140566380Y-99912561D01*
X140518761Y-99817323D01*
X140471142Y-99769704D01*
X140375904Y-99722085D01*
X140137809Y-99722085D01*
X140042571Y-99769704D01*
X139994952Y-99817323D01*
X139947333Y-99912561D01*
X139947333Y-100103038D01*
X139994952Y-100198276D01*
X140042571Y-100245895D01*
X140137809Y-100293514D01*
X161156942Y-104687666D02*
X161204561Y-104735285D01*
X161252180Y-104878142D01*
X161252180Y-104973380D01*
X161204561Y-105116238D01*
X161109323Y-105211476D01*
X161014085Y-105259095D01*
X160823609Y-105306714D01*
X160680752Y-105306714D01*
X160490276Y-105259095D01*
X160395038Y-105211476D01*
X160299800Y-105116238D01*
X160252180Y-104973380D01*
X160252180Y-104878142D01*
X160299800Y-104735285D01*
X160347419Y-104687666D01*
X160252180Y-104354333D02*
X160252180Y-103687666D01*
X161252180Y-104116238D01*
X154951133Y-118517942D02*
X154903514Y-118565561D01*
X154760657Y-118613180D01*
X154665419Y-118613180D01*
X154522561Y-118565561D01*
X154427323Y-118470323D01*
X154379704Y-118375085D01*
X154332085Y-118184609D01*
X154332085Y-118041752D01*
X154379704Y-117851276D01*
X154427323Y-117756038D01*
X154522561Y-117660800D01*
X154665419Y-117613180D01*
X154760657Y-117613180D01*
X154903514Y-117660800D01*
X154951133Y-117708419D01*
X155522561Y-118041752D02*
X155427323Y-117994133D01*
X155379704Y-117946514D01*
X155332085Y-117851276D01*
X155332085Y-117803657D01*
X155379704Y-117708419D01*
X155427323Y-117660800D01*
X155522561Y-117613180D01*
X155713038Y-117613180D01*
X155808276Y-117660800D01*
X155855895Y-117708419D01*
X155903514Y-117803657D01*
X155903514Y-117851276D01*
X155855895Y-117946514D01*
X155808276Y-117994133D01*
X155713038Y-118041752D01*
X155522561Y-118041752D01*
X155427323Y-118089371D01*
X155379704Y-118136990D01*
X155332085Y-118232228D01*
X155332085Y-118422704D01*
X155379704Y-118517942D01*
X155427323Y-118565561D01*
X155522561Y-118613180D01*
X155713038Y-118613180D01*
X155808276Y-118565561D01*
X155855895Y-118517942D01*
X155903514Y-118422704D01*
X155903514Y-118232228D01*
X155855895Y-118136990D01*
X155808276Y-118089371D01*
X155713038Y-118041752D01*
X142335542Y-99658466D02*
X142383161Y-99706085D01*
X142430780Y-99848942D01*
X142430780Y-99944180D01*
X142383161Y-100087038D01*
X142287923Y-100182276D01*
X142192685Y-100229895D01*
X142002209Y-100277514D01*
X141859352Y-100277514D01*
X141668876Y-100229895D01*
X141573638Y-100182276D01*
X141478400Y-100087038D01*
X141430780Y-99944180D01*
X141430780Y-99848942D01*
X141478400Y-99706085D01*
X141526019Y-99658466D01*
X142430780Y-99182276D02*
X142430780Y-98991800D01*
X142383161Y-98896561D01*
X142335542Y-98848942D01*
X142192685Y-98753704D01*
X142002209Y-98706085D01*
X141621257Y-98706085D01*
X141526019Y-98753704D01*
X141478400Y-98801323D01*
X141430780Y-98896561D01*
X141430780Y-99087038D01*
X141478400Y-99182276D01*
X141526019Y-99229895D01*
X141621257Y-99277514D01*
X141859352Y-99277514D01*
X141954590Y-99229895D01*
X142002209Y-99182276D01*
X142049828Y-99087038D01*
X142049828Y-98896561D01*
X142002209Y-98801323D01*
X141954590Y-98753704D01*
X141859352Y-98706085D01*
X159038542Y-99448857D02*
X159086161Y-99496476D01*
X159133780Y-99639333D01*
X159133780Y-99734571D01*
X159086161Y-99877428D01*
X158990923Y-99972666D01*
X158895685Y-100020285D01*
X158705209Y-100067904D01*
X158562352Y-100067904D01*
X158371876Y-100020285D01*
X158276638Y-99972666D01*
X158181400Y-99877428D01*
X158133780Y-99734571D01*
X158133780Y-99639333D01*
X158181400Y-99496476D01*
X158229019Y-99448857D01*
X159133780Y-98496476D02*
X159133780Y-99067904D01*
X159133780Y-98782190D02*
X158133780Y-98782190D01*
X158276638Y-98877428D01*
X158371876Y-98972666D01*
X158419495Y-99067904D01*
X158133780Y-97877428D02*
X158133780Y-97782190D01*
X158181400Y-97686952D01*
X158229019Y-97639333D01*
X158324257Y-97591714D01*
X158514733Y-97544095D01*
X158752828Y-97544095D01*
X158943304Y-97591714D01*
X159038542Y-97639333D01*
X159086161Y-97686952D01*
X159133780Y-97782190D01*
X159133780Y-97877428D01*
X159086161Y-97972666D01*
X159038542Y-98020285D01*
X158943304Y-98067904D01*
X158752828Y-98115523D01*
X158514733Y-98115523D01*
X158324257Y-98067904D01*
X158229019Y-98020285D01*
X158181400Y-97972666D01*
X158133780Y-97877428D01*
X145322542Y-104224057D02*
X145370161Y-104271676D01*
X145417780Y-104414533D01*
X145417780Y-104509771D01*
X145370161Y-104652628D01*
X145274923Y-104747866D01*
X145179685Y-104795485D01*
X144989209Y-104843104D01*
X144846352Y-104843104D01*
X144655876Y-104795485D01*
X144560638Y-104747866D01*
X144465400Y-104652628D01*
X144417780Y-104509771D01*
X144417780Y-104414533D01*
X144465400Y-104271676D01*
X144513019Y-104224057D01*
X145417780Y-103271676D02*
X145417780Y-103843104D01*
X145417780Y-103557390D02*
X144417780Y-103557390D01*
X144560638Y-103652628D01*
X144655876Y-103747866D01*
X144703495Y-103843104D01*
X145417780Y-102319295D02*
X145417780Y-102890723D01*
X145417780Y-102605009D02*
X144417780Y-102605009D01*
X144560638Y-102700247D01*
X144655876Y-102795485D01*
X144703495Y-102890723D01*
X137407942Y-118219457D02*
X137455561Y-118267076D01*
X137503180Y-118409933D01*
X137503180Y-118505171D01*
X137455561Y-118648028D01*
X137360323Y-118743266D01*
X137265085Y-118790885D01*
X137074609Y-118838504D01*
X136931752Y-118838504D01*
X136741276Y-118790885D01*
X136646038Y-118743266D01*
X136550800Y-118648028D01*
X136503180Y-118505171D01*
X136503180Y-118409933D01*
X136550800Y-118267076D01*
X136598419Y-118219457D01*
X137503180Y-117267076D02*
X137503180Y-117838504D01*
X137503180Y-117552790D02*
X136503180Y-117552790D01*
X136646038Y-117648028D01*
X136741276Y-117743266D01*
X136788895Y-117838504D01*
X136598419Y-116886123D02*
X136550800Y-116838504D01*
X136503180Y-116743266D01*
X136503180Y-116505171D01*
X136550800Y-116409933D01*
X136598419Y-116362314D01*
X136693657Y-116314695D01*
X136788895Y-116314695D01*
X136931752Y-116362314D01*
X137503180Y-116933742D01*
X137503180Y-116314695D01*
X116930880Y-94514895D02*
X115930880Y-94514895D01*
X115930880Y-94276800D01*
X115978500Y-94133942D01*
X116073738Y-94038704D01*
X116168976Y-93991085D01*
X116359452Y-93943466D01*
X116502309Y-93943466D01*
X116692785Y-93991085D01*
X116788023Y-94038704D01*
X116883261Y-94133942D01*
X116930880Y-94276800D01*
X116930880Y-94514895D01*
X116930880Y-92991085D02*
X116930880Y-93562514D01*
X116930880Y-93276800D02*
X115930880Y-93276800D01*
X116073738Y-93372038D01*
X116168976Y-93467276D01*
X116216595Y-93562514D01*
X108291380Y-93678333D02*
X109005666Y-93678333D01*
X109148523Y-93725952D01*
X109243761Y-93821190D01*
X109291380Y-93964047D01*
X109291380Y-94059285D01*
X109291380Y-92678333D02*
X109291380Y-93249761D01*
X109291380Y-92964047D02*
X108291380Y-92964047D01*
X108434238Y-93059285D01*
X108529476Y-93154523D01*
X108577095Y-93249761D01*
X106357380Y-113094733D02*
X107071666Y-113094733D01*
X107214523Y-113142352D01*
X107309761Y-113237590D01*
X107357380Y-113380447D01*
X107357380Y-113475685D01*
X106452619Y-112666161D02*
X106405000Y-112618542D01*
X106357380Y-112523304D01*
X106357380Y-112285209D01*
X106405000Y-112189971D01*
X106452619Y-112142352D01*
X106547857Y-112094733D01*
X106643095Y-112094733D01*
X106785952Y-112142352D01*
X107357380Y-112713780D01*
X107357380Y-112094733D01*
X161921866Y-82738780D02*
X161921866Y-83453066D01*
X161874247Y-83595923D01*
X161779009Y-83691161D01*
X161636152Y-83738780D01*
X161540914Y-83738780D01*
X162302819Y-82738780D02*
X162921866Y-82738780D01*
X162588533Y-83119733D01*
X162731390Y-83119733D01*
X162826628Y-83167352D01*
X162874247Y-83214971D01*
X162921866Y-83310209D01*
X162921866Y-83548304D01*
X162874247Y-83643542D01*
X162826628Y-83691161D01*
X162731390Y-83738780D01*
X162445676Y-83738780D01*
X162350438Y-83691161D01*
X162302819Y-83643542D01*
X149704466Y-82738780D02*
X149704466Y-83453066D01*
X149656847Y-83595923D01*
X149561609Y-83691161D01*
X149418752Y-83738780D01*
X149323514Y-83738780D01*
X150085419Y-82738780D02*
X150752085Y-82738780D01*
X150323514Y-83738780D01*
X102671666Y-99293880D02*
X102671666Y-100008166D01*
X102624047Y-100151023D01*
X102528809Y-100246261D01*
X102385952Y-100293880D01*
X102290714Y-100293880D01*
X103147857Y-100293880D02*
X103147857Y-99293880D01*
X103528809Y-99293880D01*
X103624047Y-99341500D01*
X103671666Y-99389119D01*
X103719285Y-99484357D01*
X103719285Y-99627214D01*
X103671666Y-99722452D01*
X103624047Y-99770071D01*
X103528809Y-99817690D01*
X103147857Y-99817690D01*
X104671666Y-100293880D02*
X104100238Y-100293880D01*
X104385952Y-100293880D02*
X104385952Y-99293880D01*
X104290714Y-99436738D01*
X104195476Y-99531976D01*
X104100238Y-99579595D01*
X111740880Y-93308466D02*
X111264690Y-93641800D01*
X111740880Y-93879895D02*
X110740880Y-93879895D01*
X110740880Y-93498942D01*
X110788500Y-93403704D01*
X110836119Y-93356085D01*
X110931357Y-93308466D01*
X111074214Y-93308466D01*
X111169452Y-93356085D01*
X111217071Y-93403704D01*
X111264690Y-93498942D01*
X111264690Y-93879895D01*
X111740880Y-92356085D02*
X111740880Y-92927514D01*
X111740880Y-92641800D02*
X110740880Y-92641800D01*
X110883738Y-92737038D01*
X110978976Y-92832276D01*
X111026595Y-92927514D01*
X117087580Y-99099666D02*
X116611390Y-99433000D01*
X117087580Y-99671095D02*
X116087580Y-99671095D01*
X116087580Y-99290142D01*
X116135200Y-99194904D01*
X116182819Y-99147285D01*
X116278057Y-99099666D01*
X116420914Y-99099666D01*
X116516152Y-99147285D01*
X116563771Y-99194904D01*
X116611390Y-99290142D01*
X116611390Y-99671095D01*
X116182819Y-98718714D02*
X116135200Y-98671095D01*
X116087580Y-98575857D01*
X116087580Y-98337761D01*
X116135200Y-98242523D01*
X116182819Y-98194904D01*
X116278057Y-98147285D01*
X116373295Y-98147285D01*
X116516152Y-98194904D01*
X117087580Y-98766333D01*
X117087580Y-98147285D01*
X122907380Y-103392266D02*
X122431190Y-103725600D01*
X122907380Y-103963695D02*
X121907380Y-103963695D01*
X121907380Y-103582742D01*
X121955000Y-103487504D01*
X122002619Y-103439885D01*
X122097857Y-103392266D01*
X122240714Y-103392266D01*
X122335952Y-103439885D01*
X122383571Y-103487504D01*
X122431190Y-103582742D01*
X122431190Y-103963695D01*
X121907380Y-103058933D02*
X121907380Y-102439885D01*
X122288333Y-102773219D01*
X122288333Y-102630361D01*
X122335952Y-102535123D01*
X122383571Y-102487504D01*
X122478809Y-102439885D01*
X122716904Y-102439885D01*
X122812142Y-102487504D01*
X122859761Y-102535123D01*
X122907380Y-102630361D01*
X122907380Y-102916076D01*
X122859761Y-103011314D01*
X122812142Y-103058933D01*
X126996780Y-98972666D02*
X126520590Y-99306000D01*
X126996780Y-99544095D02*
X125996780Y-99544095D01*
X125996780Y-99163142D01*
X126044400Y-99067904D01*
X126092019Y-99020285D01*
X126187257Y-98972666D01*
X126330114Y-98972666D01*
X126425352Y-99020285D01*
X126472971Y-99067904D01*
X126520590Y-99163142D01*
X126520590Y-99544095D01*
X126330114Y-98115523D02*
X126996780Y-98115523D01*
X125949161Y-98353619D02*
X126663447Y-98591714D01*
X126663447Y-97972666D01*
X131710133Y-94687980D02*
X131376800Y-94211790D01*
X131138704Y-94687980D02*
X131138704Y-93687980D01*
X131519657Y-93687980D01*
X131614895Y-93735600D01*
X131662514Y-93783219D01*
X131710133Y-93878457D01*
X131710133Y-94021314D01*
X131662514Y-94116552D01*
X131614895Y-94164171D01*
X131519657Y-94211790D01*
X131138704Y-94211790D01*
X132614895Y-93687980D02*
X132138704Y-93687980D01*
X132091085Y-94164171D01*
X132138704Y-94116552D01*
X132233942Y-94068933D01*
X132472038Y-94068933D01*
X132567276Y-94116552D01*
X132614895Y-94164171D01*
X132662514Y-94259409D01*
X132662514Y-94497504D01*
X132614895Y-94592742D01*
X132567276Y-94640361D01*
X132472038Y-94687980D01*
X132233942Y-94687980D01*
X132138704Y-94640361D01*
X132091085Y-94592742D01*
X138017180Y-104078066D02*
X137540990Y-104411400D01*
X138017180Y-104649495D02*
X137017180Y-104649495D01*
X137017180Y-104268542D01*
X137064800Y-104173304D01*
X137112419Y-104125685D01*
X137207657Y-104078066D01*
X137350514Y-104078066D01*
X137445752Y-104125685D01*
X137493371Y-104173304D01*
X137540990Y-104268542D01*
X137540990Y-104649495D01*
X137017180Y-103220923D02*
X137017180Y-103411400D01*
X137064800Y-103506638D01*
X137112419Y-103554257D01*
X137255276Y-103649495D01*
X137445752Y-103697114D01*
X137826704Y-103697114D01*
X137921942Y-103649495D01*
X137969561Y-103601876D01*
X138017180Y-103506638D01*
X138017180Y-103316161D01*
X137969561Y-103220923D01*
X137921942Y-103173304D01*
X137826704Y-103125685D01*
X137588609Y-103125685D01*
X137493371Y-103173304D01*
X137445752Y-103220923D01*
X137398133Y-103316161D01*
X137398133Y-103506638D01*
X137445752Y-103601876D01*
X137493371Y-103649495D01*
X137588609Y-103697114D01*
X143419533Y-106903780D02*
X143086200Y-106427590D01*
X142848104Y-106903780D02*
X142848104Y-105903780D01*
X143229057Y-105903780D01*
X143324295Y-105951400D01*
X143371914Y-105999019D01*
X143419533Y-106094257D01*
X143419533Y-106237114D01*
X143371914Y-106332352D01*
X143324295Y-106379971D01*
X143229057Y-106427590D01*
X142848104Y-106427590D01*
X143752866Y-105903780D02*
X144419533Y-105903780D01*
X143990961Y-106903780D01*
X163775980Y-99480666D02*
X163299790Y-99814000D01*
X163775980Y-100052095D02*
X162775980Y-100052095D01*
X162775980Y-99671142D01*
X162823600Y-99575904D01*
X162871219Y-99528285D01*
X162966457Y-99480666D01*
X163109314Y-99480666D01*
X163204552Y-99528285D01*
X163252171Y-99575904D01*
X163299790Y-99671142D01*
X163299790Y-100052095D01*
X163204552Y-98909238D02*
X163156933Y-99004476D01*
X163109314Y-99052095D01*
X163014076Y-99099714D01*
X162966457Y-99099714D01*
X162871219Y-99052095D01*
X162823600Y-99004476D01*
X162775980Y-98909238D01*
X162775980Y-98718761D01*
X162823600Y-98623523D01*
X162871219Y-98575904D01*
X162966457Y-98528285D01*
X163014076Y-98528285D01*
X163109314Y-98575904D01*
X163156933Y-98623523D01*
X163204552Y-98718761D01*
X163204552Y-98909238D01*
X163252171Y-99004476D01*
X163299790Y-99052095D01*
X163395028Y-99099714D01*
X163585504Y-99099714D01*
X163680742Y-99052095D01*
X163728361Y-99004476D01*
X163775980Y-98909238D01*
X163775980Y-98718761D01*
X163728361Y-98623523D01*
X163680742Y-98575904D01*
X163585504Y-98528285D01*
X163395028Y-98528285D01*
X163299790Y-98575904D01*
X163252171Y-98623523D01*
X163204552Y-98718761D01*
X164399933Y-108637780D02*
X164066600Y-108161590D01*
X163828504Y-108637780D02*
X163828504Y-107637780D01*
X164209457Y-107637780D01*
X164304695Y-107685400D01*
X164352314Y-107733019D01*
X164399933Y-107828257D01*
X164399933Y-107971114D01*
X164352314Y-108066352D01*
X164304695Y-108113971D01*
X164209457Y-108161590D01*
X163828504Y-108161590D01*
X164876123Y-108637780D02*
X165066600Y-108637780D01*
X165161838Y-108590161D01*
X165209457Y-108542542D01*
X165304695Y-108399685D01*
X165352314Y-108209209D01*
X165352314Y-107828257D01*
X165304695Y-107733019D01*
X165257076Y-107685400D01*
X165161838Y-107637780D01*
X164971361Y-107637780D01*
X164876123Y-107685400D01*
X164828504Y-107733019D01*
X164780885Y-107828257D01*
X164780885Y-108066352D01*
X164828504Y-108161590D01*
X164876123Y-108209209D01*
X164971361Y-108256828D01*
X165161838Y-108256828D01*
X165257076Y-108209209D01*
X165304695Y-108161590D01*
X165352314Y-108066352D01*
X140887380Y-110472457D02*
X140411190Y-110805790D01*
X140887380Y-111043885D02*
X139887380Y-111043885D01*
X139887380Y-110662933D01*
X139935000Y-110567695D01*
X139982619Y-110520076D01*
X140077857Y-110472457D01*
X140220714Y-110472457D01*
X140315952Y-110520076D01*
X140363571Y-110567695D01*
X140411190Y-110662933D01*
X140411190Y-111043885D01*
X140887380Y-109520076D02*
X140887380Y-110091504D01*
X140887380Y-109805790D02*
X139887380Y-109805790D01*
X140030238Y-109901028D01*
X140125476Y-109996266D01*
X140173095Y-110091504D01*
X139887380Y-108901028D02*
X139887380Y-108805790D01*
X139935000Y-108710552D01*
X139982619Y-108662933D01*
X140077857Y-108615314D01*
X140268333Y-108567695D01*
X140506428Y-108567695D01*
X140696904Y-108615314D01*
X140792142Y-108662933D01*
X140839761Y-108710552D01*
X140887380Y-108805790D01*
X140887380Y-108901028D01*
X140839761Y-108996266D01*
X140792142Y-109043885D01*
X140696904Y-109091504D01*
X140506428Y-109139123D01*
X140268333Y-109139123D01*
X140077857Y-109091504D01*
X139982619Y-109043885D01*
X139935000Y-108996266D01*
X139887380Y-108901028D01*
X155568580Y-88653857D02*
X155092390Y-88987190D01*
X155568580Y-89225285D02*
X154568580Y-89225285D01*
X154568580Y-88844333D01*
X154616200Y-88749095D01*
X154663819Y-88701476D01*
X154759057Y-88653857D01*
X154901914Y-88653857D01*
X154997152Y-88701476D01*
X155044771Y-88749095D01*
X155092390Y-88844333D01*
X155092390Y-89225285D01*
X155568580Y-87701476D02*
X155568580Y-88272904D01*
X155568580Y-87987190D02*
X154568580Y-87987190D01*
X154711438Y-88082428D01*
X154806676Y-88177666D01*
X154854295Y-88272904D01*
X155568580Y-86749095D02*
X155568580Y-87320523D01*
X155568580Y-87034809D02*
X154568580Y-87034809D01*
X154711438Y-87130047D01*
X154806676Y-87225285D01*
X154854295Y-87320523D01*
X142538380Y-96400857D02*
X142062190Y-96734190D01*
X142538380Y-96972285D02*
X141538380Y-96972285D01*
X141538380Y-96591333D01*
X141586000Y-96496095D01*
X141633619Y-96448476D01*
X141728857Y-96400857D01*
X141871714Y-96400857D01*
X141966952Y-96448476D01*
X142014571Y-96496095D01*
X142062190Y-96591333D01*
X142062190Y-96972285D01*
X142538380Y-95448476D02*
X142538380Y-96019904D01*
X142538380Y-95734190D02*
X141538380Y-95734190D01*
X141681238Y-95829428D01*
X141776476Y-95924666D01*
X141824095Y-96019904D01*
X141633619Y-95067523D02*
X141586000Y-95019904D01*
X141538380Y-94924666D01*
X141538380Y-94686571D01*
X141586000Y-94591333D01*
X141633619Y-94543714D01*
X141728857Y-94496095D01*
X141824095Y-94496095D01*
X141966952Y-94543714D01*
X142538380Y-95115142D01*
X142538380Y-94496095D01*
X147439142Y-97810580D02*
X147105809Y-97334390D01*
X146867714Y-97810580D02*
X146867714Y-96810580D01*
X147248666Y-96810580D01*
X147343904Y-96858200D01*
X147391523Y-96905819D01*
X147439142Y-97001057D01*
X147439142Y-97143914D01*
X147391523Y-97239152D01*
X147343904Y-97286771D01*
X147248666Y-97334390D01*
X146867714Y-97334390D01*
X148391523Y-97810580D02*
X147820095Y-97810580D01*
X148105809Y-97810580D02*
X148105809Y-96810580D01*
X148010571Y-96953438D01*
X147915333Y-97048676D01*
X147820095Y-97096295D01*
X148724857Y-96810580D02*
X149343904Y-96810580D01*
X149010571Y-97191533D01*
X149153428Y-97191533D01*
X149248666Y-97239152D01*
X149296285Y-97286771D01*
X149343904Y-97382009D01*
X149343904Y-97620104D01*
X149296285Y-97715342D01*
X149248666Y-97762961D01*
X149153428Y-97810580D01*
X148867714Y-97810580D01*
X148772476Y-97762961D01*
X148724857Y-97715342D01*
X142665380Y-88577657D02*
X142189190Y-88910990D01*
X142665380Y-89149085D02*
X141665380Y-89149085D01*
X141665380Y-88768133D01*
X141713000Y-88672895D01*
X141760619Y-88625276D01*
X141855857Y-88577657D01*
X141998714Y-88577657D01*
X142093952Y-88625276D01*
X142141571Y-88672895D01*
X142189190Y-88768133D01*
X142189190Y-89149085D01*
X142665380Y-87625276D02*
X142665380Y-88196704D01*
X142665380Y-87910990D02*
X141665380Y-87910990D01*
X141808238Y-88006228D01*
X141903476Y-88101466D01*
X141951095Y-88196704D01*
X141998714Y-86768133D02*
X142665380Y-86768133D01*
X141617761Y-87006228D02*
X142332047Y-87244323D01*
X142332047Y-86625276D01*
X131013295Y-94248780D02*
X131013295Y-95058304D01*
X131060914Y-95153542D01*
X131108533Y-95201161D01*
X131203771Y-95248780D01*
X131394247Y-95248780D01*
X131489485Y-95201161D01*
X131537104Y-95153542D01*
X131584723Y-95058304D01*
X131584723Y-94248780D01*
X132584723Y-95248780D02*
X132013295Y-95248780D01*
X132299009Y-95248780D02*
X132299009Y-94248780D01*
X132203771Y-94391638D01*
X132108533Y-94486876D01*
X132013295Y-94534495D01*
X150418895Y-98642980D02*
X150418895Y-99452504D01*
X150466514Y-99547742D01*
X150514133Y-99595361D01*
X150609371Y-99642980D01*
X150799847Y-99642980D01*
X150895085Y-99595361D01*
X150942704Y-99547742D01*
X150990323Y-99452504D01*
X150990323Y-98642980D01*
X151418895Y-98738219D02*
X151466514Y-98690600D01*
X151561752Y-98642980D01*
X151799847Y-98642980D01*
X151895085Y-98690600D01*
X151942704Y-98738219D01*
X151990323Y-98833457D01*
X151990323Y-98928695D01*
X151942704Y-99071552D01*
X151371276Y-99642980D01*
X151990323Y-99642980D01*
X133477095Y-107046780D02*
X133477095Y-107856304D01*
X133524714Y-107951542D01*
X133572333Y-107999161D01*
X133667571Y-108046780D01*
X133858047Y-108046780D01*
X133953285Y-107999161D01*
X134000904Y-107951542D01*
X134048523Y-107856304D01*
X134048523Y-107046780D01*
X134429476Y-107046780D02*
X135048523Y-107046780D01*
X134715190Y-107427733D01*
X134858047Y-107427733D01*
X134953285Y-107475352D01*
X135000904Y-107522971D01*
X135048523Y-107618209D01*
X135048523Y-107856304D01*
X135000904Y-107951542D01*
X134953285Y-107999161D01*
X134858047Y-108046780D01*
X134572333Y-108046780D01*
X134477095Y-107999161D01*
X134429476Y-107951542D01*
X156616495Y-114307580D02*
X156616495Y-115117104D01*
X156664114Y-115212342D01*
X156711733Y-115259961D01*
X156806971Y-115307580D01*
X156997447Y-115307580D01*
X157092685Y-115259961D01*
X157140304Y-115212342D01*
X157187923Y-115117104D01*
X157187923Y-114307580D01*
X158092685Y-114640914D02*
X158092685Y-115307580D01*
X157854590Y-114259961D02*
X157616495Y-114974247D01*
X158235542Y-114974247D01*
X132994495Y-114427380D02*
X132994495Y-115236904D01*
X133042114Y-115332142D01*
X133089733Y-115379761D01*
X133184971Y-115427380D01*
X133375447Y-115427380D01*
X133470685Y-115379761D01*
X133518304Y-115332142D01*
X133565923Y-115236904D01*
X133565923Y-114427380D01*
X134518304Y-114427380D02*
X134042114Y-114427380D01*
X133994495Y-114903571D01*
X134042114Y-114855952D01*
X134137352Y-114808333D01*
X134375447Y-114808333D01*
X134470685Y-114855952D01*
X134518304Y-114903571D01*
X134565923Y-114998809D01*
X134565923Y-115236904D01*
X134518304Y-115332142D01*
X134470685Y-115379761D01*
X134375447Y-115427380D01*
X134137352Y-115427380D01*
X134042114Y-115379761D01*
X133994495Y-115332142D01*
X147091495Y-119195180D02*
X147091495Y-120004704D01*
X147139114Y-120099942D01*
X147186733Y-120147561D01*
X147281971Y-120195180D01*
X147472447Y-120195180D01*
X147567685Y-120147561D01*
X147615304Y-120099942D01*
X147662923Y-120004704D01*
X147662923Y-119195180D01*
X148567685Y-119195180D02*
X148377209Y-119195180D01*
X148281971Y-119242800D01*
X148234352Y-119290419D01*
X148139114Y-119433276D01*
X148091495Y-119623752D01*
X148091495Y-120004704D01*
X148139114Y-120099942D01*
X148186733Y-120147561D01*
X148281971Y-120195180D01*
X148472447Y-120195180D01*
X148567685Y-120147561D01*
X148615304Y-120099942D01*
X148662923Y-120004704D01*
X148662923Y-119766609D01*
X148615304Y-119671371D01*
X148567685Y-119623752D01*
X148472447Y-119576133D01*
X148281971Y-119576133D01*
X148186733Y-119623752D01*
X148139114Y-119671371D01*
X148091495Y-119766609D01*
X143417542Y-114333257D02*
X143465161Y-114380876D01*
X143512780Y-114523733D01*
X143512780Y-114618971D01*
X143465161Y-114761828D01*
X143369923Y-114857066D01*
X143274685Y-114904685D01*
X143084209Y-114952304D01*
X142941352Y-114952304D01*
X142750876Y-114904685D01*
X142655638Y-114857066D01*
X142560400Y-114761828D01*
X142512780Y-114618971D01*
X142512780Y-114523733D01*
X142560400Y-114380876D01*
X142608019Y-114333257D01*
X143512780Y-113380876D02*
X143512780Y-113952304D01*
X143512780Y-113666590D02*
X142512780Y-113666590D01*
X142655638Y-113761828D01*
X142750876Y-113857066D01*
X142798495Y-113952304D01*
X142512780Y-113047542D02*
X142512780Y-112428495D01*
X142893733Y-112761828D01*
X142893733Y-112618971D01*
X142941352Y-112523733D01*
X142988971Y-112476114D01*
X143084209Y-112428495D01*
X143322304Y-112428495D01*
X143417542Y-112476114D01*
X143465161Y-112523733D01*
X143512780Y-112618971D01*
X143512780Y-112904685D01*
X143465161Y-112999923D01*
X143417542Y-113047542D01*
X158665942Y-115360742D02*
X158618323Y-115408361D01*
X158475466Y-115455980D01*
X158380228Y-115455980D01*
X158237371Y-115408361D01*
X158142133Y-115313123D01*
X158094514Y-115217885D01*
X158046895Y-115027409D01*
X158046895Y-114884552D01*
X158094514Y-114694076D01*
X158142133Y-114598838D01*
X158237371Y-114503600D01*
X158380228Y-114455980D01*
X158475466Y-114455980D01*
X158618323Y-114503600D01*
X158665942Y-114551219D01*
X159618323Y-115455980D02*
X159046895Y-115455980D01*
X159332609Y-115455980D02*
X159332609Y-114455980D01*
X159237371Y-114598838D01*
X159142133Y-114694076D01*
X159046895Y-114741695D01*
X160475466Y-114789314D02*
X160475466Y-115455980D01*
X160237371Y-114408361D02*
X159999276Y-115122647D01*
X160618323Y-115122647D01*
M02*
