M48
; DRILL file {KiCad (5.1.4-0-10_14)} date 2020 March 06, Friday 13:14:02
; FORMAT={-:-/ absolute / inch / decimal}
; #@! TF.CreationDate,2020-03-06T13:14:02+09:00
; #@! TF.GenerationSoftware,Kicad,Pcbnew,(5.1.4-0-10_14)
FMAT,2
INCH
T1C0.0157
T2C0.0276
T3C0.0354
T4C0.0394
T5C0.0402
T6C0.0598
T7C0.0551
T8C0.1181
%
G90
G05
T1
X4.245Y-4.419
X4.786Y-4.135
X4.892Y-3.876
X5.267Y-4.03
X5.369Y-3.874
X5.4893Y-4.3883
X5.5178Y-4.5302
X5.553Y-3.9176
X5.561Y-3.978
X5.567Y-3.432
X5.632Y-4.51
X5.636Y-4.404
X5.845Y-4.193
X5.951Y-4.111
X6.023Y-4.365
X6.107Y-4.237
X6.175Y-3.742
X6.196Y-4.4079
X6.244Y-4.184
X6.276Y-3.86
X6.2923Y-4.074
X6.315Y-3.953
T3
X6.288Y-3.366
X6.288Y-3.566
X6.388Y-3.466
X6.488Y-3.366
X6.488Y-3.566
X5.807Y-3.366
X5.807Y-3.566
X5.907Y-3.466
X6.007Y-3.366
X6.007Y-3.566
T4
X6.479Y-4.351
X6.479Y-4.451
X6.479Y-4.551
X4.693Y-3.385
X4.465Y-3.385
X5.378Y-3.385
X4.075Y-4.0225
X4.075Y-4.1225
X4.918Y-3.385
X4.425Y-3.8395
X4.425Y-3.9395
X4.6775Y-3.692
X4.7775Y-3.692
X5.142Y-3.385
T5
X4.075Y-4.341
X4.075Y-4.441
X4.075Y-4.541
T6
X4.085Y-3.575
X4.085Y-3.775
T7
X4.671Y-4.7524
T8
X6.6535Y-3.3465
X4.0157Y-4.7445
X6.6535Y-4.7445
X4.0157Y-3.3465
T2
G00X4.3462Y-4.4185
M15
G01X4.3462Y-4.4815
M16
G05
G00X4.3462Y-4.6953
M15
G01X4.3462Y-4.7386
M16
G05
G00X4.9962Y-4.4185
M15
G01X4.9962Y-4.4815
M16
G05
G00X4.9962Y-4.6953
M15
G01X4.9962Y-4.7386
M16
G05
T0
M30
