G04 #@! TF.GenerationSoftware,KiCad,Pcbnew,(5.1.4-0-10_14)*
G04 #@! TF.CreationDate,2020-03-06T13:13:34+09:00*
G04 #@! TF.ProjectId,ReadoutBoard_v3_2,52656164-6f75-4744-926f-6172645f7633,rev?*
G04 #@! TF.SameCoordinates,Original*
G04 #@! TF.FileFunction,Profile,NP*
%FSLAX46Y46*%
G04 Gerber Fmt 4.6, Leading zero omitted, Abs format (unit mm)*
G04 Created by KiCad (PCBNEW (5.1.4-0-10_14)) date 2020-03-06 13:13:34*
%MOMM*%
%LPD*%
G04 APERTURE LIST*
%ADD10C,0.050000*%
G04 APERTURE END LIST*
D10*
X127279400Y-119202200D02*
X127279400Y-120408700D01*
X127279400Y-119202200D02*
G75*
G03X126517400Y-119202200I-381000J0D01*
G01*
X126517400Y-119202200D02*
X126517400Y-120408700D01*
X127279400Y-120408700D02*
G75*
G02X126517400Y-120408700I-381000J0D01*
G01*
X127279400Y-112293400D02*
G75*
G03X126517400Y-112293400I-381000J0D01*
G01*
X127279400Y-112293400D02*
X127279400Y-113795200D01*
X127279400Y-113795200D02*
G75*
G02X126517400Y-113795200I-381000J0D01*
G01*
X126517400Y-112293400D02*
X126517400Y-113795200D01*
X110769400Y-112268000D02*
X110769400Y-113769800D01*
X110769400Y-112268000D02*
G75*
G03X110007400Y-112268000I-381000J0D01*
G01*
X110769400Y-113769800D02*
G75*
G02X110007400Y-113769800I-381000J0D01*
G01*
X110007400Y-112268000D02*
X110007400Y-113769800D01*
X110769400Y-119202200D02*
X110769400Y-120408700D01*
X110007400Y-119202200D02*
X110007400Y-120408700D01*
X110769400Y-119202200D02*
G75*
G03X110007400Y-119202200I-381000J0D01*
G01*
X110769400Y-120408700D02*
G75*
G02X110007400Y-120408700I-381000J0D01*
G01*
X98000000Y-124000000D02*
X98000000Y-81000000D01*
X98000000Y-124000000D02*
X173000000Y-124000000D01*
X173000000Y-81000000D02*
X173000000Y-124000000D01*
X98000000Y-81000000D02*
X173000000Y-81000000D01*
M02*
