G04 #@! TF.GenerationSoftware,KiCad,Pcbnew,(5.1.4-0-10_14)*
G04 #@! TF.CreationDate,2020-03-06T13:13:34+09:00*
G04 #@! TF.ProjectId,ReadoutBoard_v3_2,52656164-6f75-4744-926f-6172645f7633,rev?*
G04 #@! TF.SameCoordinates,Original*
G04 #@! TF.FileFunction,Soldermask,Bot*
G04 #@! TF.FilePolarity,Negative*
%FSLAX46Y46*%
G04 Gerber Fmt 4.6, Leading zero omitted, Abs format (unit mm)*
G04 Created by KiCad (PCBNEW (5.1.4-0-10_14)) date 2020-03-06 13:13:34*
%MOMM*%
%LPD*%
G04 APERTURE LIST*
%ADD10C,0.100000*%
G04 APERTURE END LIST*
D10*
G36*
X169302585Y-118989602D02*
G01*
X169452410Y-119019404D01*
X169734674Y-119136321D01*
X169988705Y-119306059D01*
X170204741Y-119522095D01*
X170374479Y-119776126D01*
X170491396Y-120058390D01*
X170551000Y-120358040D01*
X170551000Y-120663560D01*
X170491396Y-120963210D01*
X170374479Y-121245474D01*
X170204741Y-121499505D01*
X169988705Y-121715541D01*
X169734674Y-121885279D01*
X169452410Y-122002196D01*
X169302585Y-122031998D01*
X169152761Y-122061800D01*
X168847239Y-122061800D01*
X168697415Y-122031998D01*
X168547590Y-122002196D01*
X168265326Y-121885279D01*
X168011295Y-121715541D01*
X167795259Y-121499505D01*
X167625521Y-121245474D01*
X167508604Y-120963210D01*
X167449000Y-120663560D01*
X167449000Y-120358040D01*
X167508604Y-120058390D01*
X167625521Y-119776126D01*
X167795259Y-119522095D01*
X168011295Y-119306059D01*
X168265326Y-119136321D01*
X168547590Y-119019404D01*
X168697415Y-118989602D01*
X168847239Y-118959800D01*
X169152761Y-118959800D01*
X169302585Y-118989602D01*
X169302585Y-118989602D01*
G37*
G36*
X102302585Y-118989602D02*
G01*
X102452410Y-119019404D01*
X102734674Y-119136321D01*
X102988705Y-119306059D01*
X103204741Y-119522095D01*
X103374479Y-119776126D01*
X103491396Y-120058390D01*
X103551000Y-120358040D01*
X103551000Y-120663560D01*
X103491396Y-120963210D01*
X103374479Y-121245474D01*
X103204741Y-121499505D01*
X102988705Y-121715541D01*
X102734674Y-121885279D01*
X102452410Y-122002196D01*
X102302585Y-122031998D01*
X102152761Y-122061800D01*
X101847239Y-122061800D01*
X101697415Y-122031998D01*
X101547590Y-122002196D01*
X101265326Y-121885279D01*
X101011295Y-121715541D01*
X100795259Y-121499505D01*
X100625521Y-121245474D01*
X100508604Y-120963210D01*
X100449000Y-120663560D01*
X100449000Y-120358040D01*
X100508604Y-120058390D01*
X100625521Y-119776126D01*
X100795259Y-119522095D01*
X101011295Y-119306059D01*
X101265326Y-119136321D01*
X101547590Y-119019404D01*
X101697415Y-118989602D01*
X101847239Y-118959800D01*
X102152761Y-118959800D01*
X102302585Y-118989602D01*
X102302585Y-118989602D01*
G37*
G36*
X118920795Y-119795546D02*
G01*
X119093866Y-119867234D01*
X119093867Y-119867235D01*
X119249627Y-119971310D01*
X119382090Y-120103773D01*
X119382091Y-120103775D01*
X119486166Y-120259534D01*
X119557854Y-120432605D01*
X119594400Y-120616333D01*
X119594400Y-120803667D01*
X119557854Y-120987395D01*
X119486166Y-121160466D01*
X119486165Y-121160467D01*
X119382090Y-121316227D01*
X119249627Y-121448690D01*
X119173578Y-121499504D01*
X119093866Y-121552766D01*
X118920795Y-121624454D01*
X118737067Y-121661000D01*
X118549733Y-121661000D01*
X118366005Y-121624454D01*
X118192934Y-121552766D01*
X118113222Y-121499504D01*
X118037173Y-121448690D01*
X117904710Y-121316227D01*
X117800635Y-121160467D01*
X117800634Y-121160466D01*
X117728946Y-120987395D01*
X117692400Y-120803667D01*
X117692400Y-120616333D01*
X117728946Y-120432605D01*
X117800634Y-120259534D01*
X117904709Y-120103775D01*
X117904710Y-120103773D01*
X118037173Y-119971310D01*
X118192933Y-119867235D01*
X118192934Y-119867234D01*
X118366005Y-119795546D01*
X118549733Y-119759000D01*
X118737067Y-119759000D01*
X118920795Y-119795546D01*
X118920795Y-119795546D01*
G37*
G36*
X127031017Y-118618420D02*
G01*
X127121803Y-118645960D01*
X127153735Y-118655646D01*
X127266824Y-118716094D01*
X127365954Y-118797447D01*
X127447306Y-118896575D01*
X127507754Y-119009664D01*
X127517440Y-119041596D01*
X127544980Y-119132382D01*
X127554400Y-119228027D01*
X127554400Y-120391973D01*
X127544980Y-120487618D01*
X127517440Y-120578404D01*
X127507754Y-120610336D01*
X127447306Y-120723425D01*
X127365954Y-120822554D01*
X127266825Y-120903906D01*
X127153736Y-120964354D01*
X127121804Y-120974040D01*
X127031018Y-121001580D01*
X126903400Y-121014149D01*
X126775783Y-121001580D01*
X126684997Y-120974040D01*
X126653065Y-120964354D01*
X126539976Y-120903906D01*
X126440847Y-120822554D01*
X126359495Y-120723425D01*
X126299047Y-120610336D01*
X126289361Y-120578404D01*
X126261821Y-120487618D01*
X126252401Y-120391973D01*
X126252400Y-119228028D01*
X126261820Y-119132383D01*
X126299045Y-119009669D01*
X126299046Y-119009665D01*
X126359494Y-118896576D01*
X126440847Y-118797446D01*
X126539975Y-118716094D01*
X126653064Y-118655646D01*
X126684996Y-118645960D01*
X126775782Y-118618420D01*
X126903400Y-118605851D01*
X127031017Y-118618420D01*
X127031017Y-118618420D01*
G37*
G36*
X110521017Y-118618420D02*
G01*
X110611803Y-118645960D01*
X110643735Y-118655646D01*
X110756824Y-118716094D01*
X110855954Y-118797447D01*
X110937306Y-118896575D01*
X110997754Y-119009664D01*
X111007440Y-119041596D01*
X111034980Y-119132382D01*
X111044400Y-119228027D01*
X111044400Y-120391973D01*
X111034980Y-120487618D01*
X111007440Y-120578404D01*
X110997754Y-120610336D01*
X110937306Y-120723425D01*
X110855954Y-120822554D01*
X110756825Y-120903906D01*
X110643736Y-120964354D01*
X110611804Y-120974040D01*
X110521018Y-121001580D01*
X110393400Y-121014149D01*
X110265783Y-121001580D01*
X110174997Y-120974040D01*
X110143065Y-120964354D01*
X110029976Y-120903906D01*
X109930847Y-120822554D01*
X109849495Y-120723425D01*
X109789047Y-120610336D01*
X109779361Y-120578404D01*
X109751821Y-120487618D01*
X109742401Y-120391973D01*
X109742400Y-119228028D01*
X109751820Y-119132383D01*
X109789045Y-119009669D01*
X109789046Y-119009665D01*
X109849494Y-118896576D01*
X109930847Y-118797446D01*
X110029975Y-118716094D01*
X110143064Y-118655646D01*
X110174996Y-118645960D01*
X110265782Y-118618420D01*
X110393400Y-118605851D01*
X110521017Y-118618420D01*
X110521017Y-118618420D01*
G37*
G36*
X164677043Y-114700919D02*
G01*
X164743227Y-114707437D01*
X164913066Y-114758957D01*
X165069591Y-114842622D01*
X165105329Y-114871952D01*
X165206786Y-114955214D01*
X165290048Y-115056671D01*
X165319378Y-115092409D01*
X165403043Y-115248934D01*
X165454563Y-115418773D01*
X165471959Y-115595400D01*
X165454563Y-115772027D01*
X165403043Y-115941866D01*
X165319378Y-116098391D01*
X165290048Y-116134129D01*
X165206786Y-116235586D01*
X165105329Y-116318848D01*
X165069591Y-116348178D01*
X164913066Y-116431843D01*
X164743227Y-116483363D01*
X164677042Y-116489882D01*
X164610860Y-116496400D01*
X164522340Y-116496400D01*
X164456158Y-116489882D01*
X164389973Y-116483363D01*
X164220134Y-116431843D01*
X164063609Y-116348178D01*
X164027871Y-116318848D01*
X163926414Y-116235586D01*
X163843152Y-116134129D01*
X163813822Y-116098391D01*
X163730157Y-115941866D01*
X163678637Y-115772027D01*
X163661241Y-115595400D01*
X163678637Y-115418773D01*
X163730157Y-115248934D01*
X163813822Y-115092409D01*
X163843152Y-115056671D01*
X163926414Y-114955214D01*
X164027871Y-114871952D01*
X164063609Y-114842622D01*
X164220134Y-114758957D01*
X164389973Y-114707437D01*
X164456157Y-114700919D01*
X164522340Y-114694400D01*
X164610860Y-114694400D01*
X164677043Y-114700919D01*
X164677043Y-114700919D01*
G37*
G36*
X103815343Y-114436761D02*
G01*
X103834568Y-114438654D01*
X104007234Y-114491032D01*
X104166365Y-114576089D01*
X104305844Y-114690556D01*
X104420311Y-114830035D01*
X104505368Y-114989166D01*
X104505368Y-114989167D01*
X104536687Y-115092409D01*
X104557746Y-115161833D01*
X104575432Y-115341400D01*
X104557746Y-115520967D01*
X104505368Y-115693634D01*
X104420311Y-115852765D01*
X104305844Y-115992244D01*
X104166365Y-116106711D01*
X104007234Y-116191768D01*
X103920900Y-116217957D01*
X103834568Y-116244146D01*
X103815343Y-116246039D01*
X103699998Y-116257400D01*
X103310002Y-116257400D01*
X103194657Y-116246039D01*
X103175432Y-116244146D01*
X103089100Y-116217957D01*
X103002766Y-116191768D01*
X102843635Y-116106711D01*
X102704156Y-115992244D01*
X102589689Y-115852765D01*
X102504632Y-115693634D01*
X102452254Y-115520967D01*
X102434568Y-115341400D01*
X102452254Y-115161833D01*
X102473314Y-115092409D01*
X102504632Y-114989167D01*
X102504632Y-114989166D01*
X102589689Y-114830035D01*
X102704156Y-114690556D01*
X102843635Y-114576089D01*
X103002766Y-114491032D01*
X103175432Y-114438654D01*
X103194657Y-114436761D01*
X103310002Y-114425400D01*
X103699998Y-114425400D01*
X103815343Y-114436761D01*
X103815343Y-114436761D01*
G37*
G36*
X110521017Y-111588420D02*
G01*
X110611803Y-111615960D01*
X110643735Y-111625646D01*
X110756824Y-111686094D01*
X110855954Y-111767447D01*
X110937306Y-111866575D01*
X110997754Y-111979664D01*
X111007440Y-112011596D01*
X111034980Y-112102382D01*
X111044400Y-112198027D01*
X111044400Y-113861973D01*
X111034980Y-113957618D01*
X111007440Y-114048404D01*
X110997754Y-114080336D01*
X110937306Y-114193425D01*
X110855954Y-114292554D01*
X110756825Y-114373906D01*
X110643736Y-114434354D01*
X110611804Y-114444040D01*
X110521018Y-114471580D01*
X110393400Y-114484149D01*
X110265783Y-114471580D01*
X110174997Y-114444040D01*
X110143065Y-114434354D01*
X110029976Y-114373906D01*
X109930847Y-114292554D01*
X109849495Y-114193425D01*
X109789047Y-114080336D01*
X109779361Y-114048404D01*
X109751821Y-113957618D01*
X109742401Y-113861973D01*
X109742400Y-112198028D01*
X109751820Y-112102383D01*
X109789045Y-111979669D01*
X109789046Y-111979665D01*
X109849494Y-111866576D01*
X109930847Y-111767446D01*
X110029975Y-111686094D01*
X110143064Y-111625646D01*
X110174996Y-111615960D01*
X110265782Y-111588420D01*
X110393400Y-111575851D01*
X110521017Y-111588420D01*
X110521017Y-111588420D01*
G37*
G36*
X127031017Y-111588420D02*
G01*
X127121803Y-111615960D01*
X127153735Y-111625646D01*
X127266824Y-111686094D01*
X127365954Y-111767447D01*
X127447306Y-111866575D01*
X127507754Y-111979664D01*
X127517440Y-112011596D01*
X127544980Y-112102382D01*
X127554400Y-112198027D01*
X127554400Y-113861973D01*
X127544980Y-113957618D01*
X127517440Y-114048404D01*
X127507754Y-114080336D01*
X127447306Y-114193425D01*
X127365954Y-114292554D01*
X127266825Y-114373906D01*
X127153736Y-114434354D01*
X127121804Y-114444040D01*
X127031018Y-114471580D01*
X126903400Y-114484149D01*
X126775783Y-114471580D01*
X126684997Y-114444040D01*
X126653065Y-114434354D01*
X126539976Y-114373906D01*
X126440847Y-114292554D01*
X126359495Y-114193425D01*
X126299047Y-114080336D01*
X126289361Y-114048404D01*
X126261821Y-113957618D01*
X126252401Y-113861973D01*
X126252400Y-112198028D01*
X126261820Y-112102383D01*
X126299045Y-111979669D01*
X126299046Y-111979665D01*
X126359494Y-111866576D01*
X126440847Y-111767446D01*
X126539975Y-111686094D01*
X126653064Y-111625646D01*
X126684996Y-111615960D01*
X126775782Y-111588420D01*
X126903400Y-111575851D01*
X127031017Y-111588420D01*
X127031017Y-111588420D01*
G37*
G36*
X164677043Y-112160919D02*
G01*
X164743227Y-112167437D01*
X164913066Y-112218957D01*
X165069591Y-112302622D01*
X165105329Y-112331952D01*
X165206786Y-112415214D01*
X165290048Y-112516671D01*
X165319378Y-112552409D01*
X165403043Y-112708934D01*
X165454563Y-112878773D01*
X165471959Y-113055400D01*
X165454563Y-113232027D01*
X165403043Y-113401866D01*
X165319378Y-113558391D01*
X165290048Y-113594129D01*
X165206786Y-113695586D01*
X165105329Y-113778848D01*
X165069591Y-113808178D01*
X164913066Y-113891843D01*
X164743227Y-113943363D01*
X164677043Y-113949881D01*
X164610860Y-113956400D01*
X164522340Y-113956400D01*
X164456157Y-113949881D01*
X164389973Y-113943363D01*
X164220134Y-113891843D01*
X164063609Y-113808178D01*
X164027871Y-113778848D01*
X163926414Y-113695586D01*
X163843152Y-113594129D01*
X163813822Y-113558391D01*
X163730157Y-113401866D01*
X163678637Y-113232027D01*
X163661241Y-113055400D01*
X163678637Y-112878773D01*
X163730157Y-112708934D01*
X163813822Y-112552409D01*
X163843152Y-112516671D01*
X163926414Y-112415214D01*
X164027871Y-112331952D01*
X164063609Y-112302622D01*
X164220134Y-112218957D01*
X164389973Y-112167437D01*
X164456157Y-112160919D01*
X164522340Y-112154400D01*
X164610860Y-112154400D01*
X164677043Y-112160919D01*
X164677043Y-112160919D01*
G37*
G36*
X103815343Y-111896761D02*
G01*
X103834568Y-111898654D01*
X104007234Y-111951032D01*
X104166365Y-112036089D01*
X104305844Y-112150556D01*
X104420311Y-112290035D01*
X104505368Y-112449166D01*
X104505368Y-112449167D01*
X104536687Y-112552409D01*
X104557746Y-112621833D01*
X104575432Y-112801400D01*
X104557746Y-112980967D01*
X104505368Y-113153634D01*
X104420311Y-113312765D01*
X104305844Y-113452244D01*
X104166365Y-113566711D01*
X104007234Y-113651768D01*
X103920900Y-113677957D01*
X103834568Y-113704146D01*
X103815343Y-113706039D01*
X103699998Y-113717400D01*
X103310002Y-113717400D01*
X103194657Y-113706039D01*
X103175432Y-113704146D01*
X103089100Y-113677957D01*
X103002766Y-113651768D01*
X102843635Y-113566711D01*
X102704156Y-113452244D01*
X102589689Y-113312765D01*
X102504632Y-113153634D01*
X102452254Y-112980967D01*
X102434568Y-112801400D01*
X102452254Y-112621833D01*
X102473314Y-112552409D01*
X102504632Y-112449167D01*
X102504632Y-112449166D01*
X102589689Y-112290035D01*
X102704156Y-112150556D01*
X102843635Y-112036089D01*
X103002766Y-111951032D01*
X103175432Y-111898654D01*
X103194657Y-111896761D01*
X103310002Y-111885400D01*
X103699998Y-111885400D01*
X103815343Y-111896761D01*
X103815343Y-111896761D01*
G37*
G36*
X165467600Y-111416400D02*
G01*
X163665600Y-111416400D01*
X163665600Y-109614400D01*
X165467600Y-109614400D01*
X165467600Y-111416400D01*
X165467600Y-111416400D01*
G37*
G36*
X104571000Y-111177400D02*
G01*
X102439000Y-111177400D01*
X102439000Y-109345400D01*
X104571000Y-109345400D01*
X104571000Y-111177400D01*
X104571000Y-111177400D01*
G37*
G36*
X103615443Y-103817019D02*
G01*
X103681627Y-103823537D01*
X103851466Y-103875057D01*
X104007991Y-103958722D01*
X104043729Y-103988052D01*
X104145186Y-104071314D01*
X104228448Y-104172771D01*
X104257778Y-104208509D01*
X104341443Y-104365034D01*
X104392963Y-104534873D01*
X104410359Y-104711500D01*
X104392963Y-104888127D01*
X104341443Y-105057966D01*
X104257778Y-105214491D01*
X104228448Y-105250229D01*
X104145186Y-105351686D01*
X104043729Y-105434948D01*
X104007991Y-105464278D01*
X103851466Y-105547943D01*
X103681627Y-105599463D01*
X103615443Y-105605981D01*
X103549260Y-105612500D01*
X103460740Y-105612500D01*
X103394557Y-105605981D01*
X103328373Y-105599463D01*
X103158534Y-105547943D01*
X103002009Y-105464278D01*
X102966271Y-105434948D01*
X102864814Y-105351686D01*
X102781552Y-105250229D01*
X102752222Y-105214491D01*
X102668557Y-105057966D01*
X102617037Y-104888127D01*
X102599641Y-104711500D01*
X102617037Y-104534873D01*
X102668557Y-104365034D01*
X102752222Y-104208509D01*
X102781552Y-104172771D01*
X102864814Y-104071314D01*
X102966271Y-103988052D01*
X103002009Y-103958722D01*
X103158534Y-103875057D01*
X103328373Y-103823537D01*
X103394558Y-103817018D01*
X103460740Y-103810500D01*
X103549260Y-103810500D01*
X103615443Y-103817019D01*
X103615443Y-103817019D01*
G37*
G36*
X104406000Y-103072500D02*
G01*
X102604000Y-103072500D01*
X102604000Y-101270500D01*
X104406000Y-101270500D01*
X104406000Y-103072500D01*
X104406000Y-103072500D01*
G37*
G36*
X112505442Y-99168818D02*
G01*
X112571627Y-99175337D01*
X112741466Y-99226857D01*
X112897991Y-99310522D01*
X112933729Y-99339852D01*
X113035186Y-99423114D01*
X113118448Y-99524571D01*
X113147778Y-99560309D01*
X113231443Y-99716834D01*
X113282963Y-99886673D01*
X113300359Y-100063300D01*
X113282963Y-100239927D01*
X113231443Y-100409766D01*
X113147778Y-100566291D01*
X113118448Y-100602029D01*
X113035186Y-100703486D01*
X112933729Y-100786748D01*
X112897991Y-100816078D01*
X112741466Y-100899743D01*
X112571627Y-100951263D01*
X112505443Y-100957781D01*
X112439260Y-100964300D01*
X112350740Y-100964300D01*
X112284557Y-100957781D01*
X112218373Y-100951263D01*
X112048534Y-100899743D01*
X111892009Y-100816078D01*
X111856271Y-100786748D01*
X111754814Y-100703486D01*
X111671552Y-100602029D01*
X111642222Y-100566291D01*
X111558557Y-100409766D01*
X111507037Y-100239927D01*
X111489641Y-100063300D01*
X111507037Y-99886673D01*
X111558557Y-99716834D01*
X111642222Y-99560309D01*
X111671552Y-99524571D01*
X111754814Y-99423114D01*
X111856271Y-99339852D01*
X111892009Y-99310522D01*
X112048534Y-99226857D01*
X112218373Y-99175337D01*
X112284557Y-99168819D01*
X112350740Y-99162300D01*
X112439260Y-99162300D01*
X112505442Y-99168818D01*
X112505442Y-99168818D01*
G37*
G36*
X113296000Y-98424300D02*
G01*
X111494000Y-98424300D01*
X111494000Y-96622300D01*
X113296000Y-96622300D01*
X113296000Y-98424300D01*
X113296000Y-98424300D01*
G37*
G36*
X104061585Y-94363802D02*
G01*
X104211410Y-94393604D01*
X104493674Y-94510521D01*
X104747705Y-94680259D01*
X104963741Y-94896295D01*
X105133479Y-95150326D01*
X105250396Y-95432590D01*
X105310000Y-95732240D01*
X105310000Y-96037760D01*
X105250396Y-96337410D01*
X105133479Y-96619674D01*
X104963741Y-96873705D01*
X104747705Y-97089741D01*
X104493674Y-97259479D01*
X104211410Y-97376396D01*
X104061585Y-97406198D01*
X103911761Y-97436000D01*
X103606239Y-97436000D01*
X103456415Y-97406198D01*
X103306590Y-97376396D01*
X103024326Y-97259479D01*
X102770295Y-97089741D01*
X102554259Y-96873705D01*
X102384521Y-96619674D01*
X102267604Y-96337410D01*
X102208000Y-96037760D01*
X102208000Y-95732240D01*
X102267604Y-95432590D01*
X102384521Y-95150326D01*
X102554259Y-94896295D01*
X102770295Y-94680259D01*
X103024326Y-94510521D01*
X103306590Y-94393604D01*
X103456415Y-94363802D01*
X103606239Y-94334000D01*
X103911761Y-94334000D01*
X104061585Y-94363802D01*
X104061585Y-94363802D01*
G37*
G36*
X119709500Y-94677800D02*
G01*
X117907500Y-94677800D01*
X117907500Y-92875800D01*
X119709500Y-92875800D01*
X119709500Y-94677800D01*
X119709500Y-94677800D01*
G37*
G36*
X121458942Y-92882318D02*
G01*
X121525127Y-92888837D01*
X121694966Y-92940357D01*
X121851491Y-93024022D01*
X121887229Y-93053352D01*
X121988686Y-93136614D01*
X122071948Y-93238071D01*
X122101278Y-93273809D01*
X122184943Y-93430334D01*
X122236463Y-93600173D01*
X122253859Y-93776800D01*
X122236463Y-93953427D01*
X122184943Y-94123266D01*
X122101278Y-94279791D01*
X122071948Y-94315529D01*
X121988686Y-94416986D01*
X121887229Y-94500248D01*
X121851491Y-94529578D01*
X121694966Y-94613243D01*
X121525127Y-94664763D01*
X121458943Y-94671281D01*
X121392760Y-94677800D01*
X121304240Y-94677800D01*
X121238057Y-94671281D01*
X121171873Y-94664763D01*
X121002034Y-94613243D01*
X120845509Y-94529578D01*
X120809771Y-94500248D01*
X120708314Y-94416986D01*
X120625052Y-94315529D01*
X120595722Y-94279791D01*
X120512057Y-94123266D01*
X120460537Y-93953427D01*
X120443141Y-93776800D01*
X120460537Y-93600173D01*
X120512057Y-93430334D01*
X120595722Y-93273809D01*
X120625052Y-93238071D01*
X120708314Y-93136614D01*
X120809771Y-93053352D01*
X120845509Y-93024022D01*
X121002034Y-92940357D01*
X121171873Y-92888837D01*
X121238058Y-92882318D01*
X121304240Y-92875800D01*
X121392760Y-92875800D01*
X121458942Y-92882318D01*
X121458942Y-92882318D01*
G37*
G36*
X105310000Y-92356000D02*
G01*
X102208000Y-92356000D01*
X102208000Y-89254000D01*
X105310000Y-89254000D01*
X105310000Y-92356000D01*
X105310000Y-92356000D01*
G37*
G36*
X159948842Y-89806181D02*
G01*
X160094614Y-89866562D01*
X160094616Y-89866563D01*
X160225808Y-89954222D01*
X160337378Y-90065792D01*
X160425037Y-90196984D01*
X160425038Y-90196986D01*
X160485419Y-90342758D01*
X160516200Y-90497507D01*
X160516200Y-90655293D01*
X160485419Y-90810042D01*
X160425038Y-90955814D01*
X160425037Y-90955816D01*
X160337378Y-91087008D01*
X160225808Y-91198578D01*
X160094616Y-91286237D01*
X160094615Y-91286238D01*
X160094614Y-91286238D01*
X159948842Y-91346619D01*
X159794093Y-91377400D01*
X159636307Y-91377400D01*
X159481558Y-91346619D01*
X159335786Y-91286238D01*
X159335785Y-91286238D01*
X159335784Y-91286237D01*
X159204592Y-91198578D01*
X159093022Y-91087008D01*
X159005363Y-90955816D01*
X159005362Y-90955814D01*
X158944981Y-90810042D01*
X158914200Y-90655293D01*
X158914200Y-90497507D01*
X158944981Y-90342758D01*
X159005362Y-90196986D01*
X159005363Y-90196984D01*
X159093022Y-90065792D01*
X159204592Y-89954222D01*
X159335784Y-89866563D01*
X159335786Y-89866562D01*
X159481558Y-89806181D01*
X159636307Y-89775400D01*
X159794093Y-89775400D01*
X159948842Y-89806181D01*
X159948842Y-89806181D01*
G37*
G36*
X165028842Y-89806181D02*
G01*
X165174614Y-89866562D01*
X165174616Y-89866563D01*
X165305808Y-89954222D01*
X165417378Y-90065792D01*
X165505037Y-90196984D01*
X165505038Y-90196986D01*
X165565419Y-90342758D01*
X165596200Y-90497507D01*
X165596200Y-90655293D01*
X165565419Y-90810042D01*
X165505038Y-90955814D01*
X165505037Y-90955816D01*
X165417378Y-91087008D01*
X165305808Y-91198578D01*
X165174616Y-91286237D01*
X165174615Y-91286238D01*
X165174614Y-91286238D01*
X165028842Y-91346619D01*
X164874093Y-91377400D01*
X164716307Y-91377400D01*
X164561558Y-91346619D01*
X164415786Y-91286238D01*
X164415785Y-91286238D01*
X164415784Y-91286237D01*
X164284592Y-91198578D01*
X164173022Y-91087008D01*
X164085363Y-90955816D01*
X164085362Y-90955814D01*
X164024981Y-90810042D01*
X163994200Y-90655293D01*
X163994200Y-90497507D01*
X164024981Y-90342758D01*
X164085362Y-90196986D01*
X164085363Y-90196984D01*
X164173022Y-90065792D01*
X164284592Y-89954222D01*
X164415784Y-89866563D01*
X164415786Y-89866562D01*
X164561558Y-89806181D01*
X164716307Y-89775400D01*
X164874093Y-89775400D01*
X165028842Y-89806181D01*
X165028842Y-89806181D01*
G37*
G36*
X152811442Y-89806181D02*
G01*
X152957214Y-89866562D01*
X152957216Y-89866563D01*
X153088408Y-89954222D01*
X153199978Y-90065792D01*
X153287637Y-90196984D01*
X153287638Y-90196986D01*
X153348019Y-90342758D01*
X153378800Y-90497507D01*
X153378800Y-90655293D01*
X153348019Y-90810042D01*
X153287638Y-90955814D01*
X153287637Y-90955816D01*
X153199978Y-91087008D01*
X153088408Y-91198578D01*
X152957216Y-91286237D01*
X152957215Y-91286238D01*
X152957214Y-91286238D01*
X152811442Y-91346619D01*
X152656693Y-91377400D01*
X152498907Y-91377400D01*
X152344158Y-91346619D01*
X152198386Y-91286238D01*
X152198385Y-91286238D01*
X152198384Y-91286237D01*
X152067192Y-91198578D01*
X151955622Y-91087008D01*
X151867963Y-90955816D01*
X151867962Y-90955814D01*
X151807581Y-90810042D01*
X151776800Y-90655293D01*
X151776800Y-90497507D01*
X151807581Y-90342758D01*
X151867962Y-90196986D01*
X151867963Y-90196984D01*
X151955622Y-90065792D01*
X152067192Y-89954222D01*
X152198384Y-89866563D01*
X152198386Y-89866562D01*
X152344158Y-89806181D01*
X152498907Y-89775400D01*
X152656693Y-89775400D01*
X152811442Y-89806181D01*
X152811442Y-89806181D01*
G37*
G36*
X147731442Y-89806181D02*
G01*
X147877214Y-89866562D01*
X147877216Y-89866563D01*
X148008408Y-89954222D01*
X148119978Y-90065792D01*
X148207637Y-90196984D01*
X148207638Y-90196986D01*
X148268019Y-90342758D01*
X148298800Y-90497507D01*
X148298800Y-90655293D01*
X148268019Y-90810042D01*
X148207638Y-90955814D01*
X148207637Y-90955816D01*
X148119978Y-91087008D01*
X148008408Y-91198578D01*
X147877216Y-91286237D01*
X147877215Y-91286238D01*
X147877214Y-91286238D01*
X147731442Y-91346619D01*
X147576693Y-91377400D01*
X147418907Y-91377400D01*
X147264158Y-91346619D01*
X147118386Y-91286238D01*
X147118385Y-91286238D01*
X147118384Y-91286237D01*
X146987192Y-91198578D01*
X146875622Y-91087008D01*
X146787963Y-90955816D01*
X146787962Y-90955814D01*
X146727581Y-90810042D01*
X146696800Y-90655293D01*
X146696800Y-90497507D01*
X146727581Y-90342758D01*
X146787962Y-90196986D01*
X146787963Y-90196984D01*
X146875622Y-90065792D01*
X146987192Y-89954222D01*
X147118384Y-89866563D01*
X147118386Y-89866562D01*
X147264158Y-89806181D01*
X147418907Y-89775400D01*
X147576693Y-89775400D01*
X147731442Y-89806181D01*
X147731442Y-89806181D01*
G37*
G36*
X162488842Y-87266181D02*
G01*
X162634614Y-87326562D01*
X162634616Y-87326563D01*
X162765808Y-87414222D01*
X162877378Y-87525792D01*
X162965037Y-87656984D01*
X162965038Y-87656986D01*
X163025419Y-87802758D01*
X163056200Y-87957507D01*
X163056200Y-88115293D01*
X163025419Y-88270042D01*
X162965038Y-88415814D01*
X162965037Y-88415816D01*
X162877378Y-88547008D01*
X162765808Y-88658578D01*
X162634616Y-88746237D01*
X162634615Y-88746238D01*
X162634614Y-88746238D01*
X162488842Y-88806619D01*
X162334093Y-88837400D01*
X162176307Y-88837400D01*
X162021558Y-88806619D01*
X161875786Y-88746238D01*
X161875785Y-88746238D01*
X161875784Y-88746237D01*
X161744592Y-88658578D01*
X161633022Y-88547008D01*
X161545363Y-88415816D01*
X161545362Y-88415814D01*
X161484981Y-88270042D01*
X161454200Y-88115293D01*
X161454200Y-87957507D01*
X161484981Y-87802758D01*
X161545362Y-87656986D01*
X161545363Y-87656984D01*
X161633022Y-87525792D01*
X161744592Y-87414222D01*
X161875784Y-87326563D01*
X161875786Y-87326562D01*
X162021558Y-87266181D01*
X162176307Y-87235400D01*
X162334093Y-87235400D01*
X162488842Y-87266181D01*
X162488842Y-87266181D01*
G37*
G36*
X150271442Y-87266181D02*
G01*
X150417214Y-87326562D01*
X150417216Y-87326563D01*
X150548408Y-87414222D01*
X150659978Y-87525792D01*
X150747637Y-87656984D01*
X150747638Y-87656986D01*
X150808019Y-87802758D01*
X150838800Y-87957507D01*
X150838800Y-88115293D01*
X150808019Y-88270042D01*
X150747638Y-88415814D01*
X150747637Y-88415816D01*
X150659978Y-88547008D01*
X150548408Y-88658578D01*
X150417216Y-88746237D01*
X150417215Y-88746238D01*
X150417214Y-88746238D01*
X150271442Y-88806619D01*
X150116693Y-88837400D01*
X149958907Y-88837400D01*
X149804158Y-88806619D01*
X149658386Y-88746238D01*
X149658385Y-88746238D01*
X149658384Y-88746237D01*
X149527192Y-88658578D01*
X149415622Y-88547008D01*
X149327963Y-88415816D01*
X149327962Y-88415814D01*
X149267581Y-88270042D01*
X149236800Y-88115293D01*
X149236800Y-87957507D01*
X149267581Y-87802758D01*
X149327962Y-87656986D01*
X149327963Y-87656984D01*
X149415622Y-87525792D01*
X149527192Y-87414222D01*
X149658384Y-87326563D01*
X149658386Y-87326562D01*
X149804158Y-87266181D01*
X149958907Y-87235400D01*
X150116693Y-87235400D01*
X150271442Y-87266181D01*
X150271442Y-87266181D01*
G37*
G36*
X136907764Y-84968389D02*
G01*
X137099033Y-85047615D01*
X137099035Y-85047616D01*
X137271173Y-85162635D01*
X137417565Y-85309027D01*
X137513371Y-85452410D01*
X137532585Y-85481167D01*
X137611811Y-85672436D01*
X137652200Y-85875484D01*
X137652200Y-86082516D01*
X137611811Y-86285564D01*
X137606908Y-86297400D01*
X137532584Y-86476835D01*
X137417565Y-86648973D01*
X137271173Y-86795365D01*
X137099035Y-86910384D01*
X137099034Y-86910385D01*
X137099033Y-86910385D01*
X136907764Y-86989611D01*
X136704716Y-87030000D01*
X136497684Y-87030000D01*
X136294636Y-86989611D01*
X136103367Y-86910385D01*
X136103366Y-86910385D01*
X136103365Y-86910384D01*
X135931227Y-86795365D01*
X135784835Y-86648973D01*
X135669816Y-86476835D01*
X135595492Y-86297400D01*
X135590589Y-86285564D01*
X135550200Y-86082516D01*
X135550200Y-85875484D01*
X135590589Y-85672436D01*
X135669815Y-85481167D01*
X135689030Y-85452410D01*
X135784835Y-85309027D01*
X135931227Y-85162635D01*
X136103365Y-85047616D01*
X136103367Y-85047615D01*
X136294636Y-84968389D01*
X136497684Y-84928000D01*
X136704716Y-84928000D01*
X136907764Y-84968389D01*
X136907764Y-84968389D01*
G37*
G36*
X113717564Y-84968389D02*
G01*
X113908833Y-85047615D01*
X113908835Y-85047616D01*
X114080973Y-85162635D01*
X114227365Y-85309027D01*
X114323171Y-85452410D01*
X114342385Y-85481167D01*
X114421611Y-85672436D01*
X114462000Y-85875484D01*
X114462000Y-86082516D01*
X114421611Y-86285564D01*
X114416708Y-86297400D01*
X114342384Y-86476835D01*
X114227365Y-86648973D01*
X114080973Y-86795365D01*
X113908835Y-86910384D01*
X113908834Y-86910385D01*
X113908833Y-86910385D01*
X113717564Y-86989611D01*
X113514516Y-87030000D01*
X113307484Y-87030000D01*
X113104436Y-86989611D01*
X112913167Y-86910385D01*
X112913166Y-86910385D01*
X112913165Y-86910384D01*
X112741027Y-86795365D01*
X112594635Y-86648973D01*
X112479616Y-86476835D01*
X112405292Y-86297400D01*
X112400389Y-86285564D01*
X112360000Y-86082516D01*
X112360000Y-85875484D01*
X112400389Y-85672436D01*
X112479615Y-85481167D01*
X112498830Y-85452410D01*
X112594635Y-85309027D01*
X112741027Y-85162635D01*
X112913165Y-85047616D01*
X112913167Y-85047615D01*
X113104436Y-84968389D01*
X113307484Y-84928000D01*
X113514516Y-84928000D01*
X113717564Y-84968389D01*
X113717564Y-84968389D01*
G37*
G36*
X119508764Y-84968389D02*
G01*
X119700033Y-85047615D01*
X119700035Y-85047616D01*
X119872173Y-85162635D01*
X120018565Y-85309027D01*
X120114371Y-85452410D01*
X120133585Y-85481167D01*
X120212811Y-85672436D01*
X120253200Y-85875484D01*
X120253200Y-86082516D01*
X120212811Y-86285564D01*
X120207908Y-86297400D01*
X120133584Y-86476835D01*
X120018565Y-86648973D01*
X119872173Y-86795365D01*
X119700035Y-86910384D01*
X119700034Y-86910385D01*
X119700033Y-86910385D01*
X119508764Y-86989611D01*
X119305716Y-87030000D01*
X119098684Y-87030000D01*
X118895636Y-86989611D01*
X118704367Y-86910385D01*
X118704366Y-86910385D01*
X118704365Y-86910384D01*
X118532227Y-86795365D01*
X118385835Y-86648973D01*
X118270816Y-86476835D01*
X118196492Y-86297400D01*
X118191589Y-86285564D01*
X118151200Y-86082516D01*
X118151200Y-85875484D01*
X118191589Y-85672436D01*
X118270815Y-85481167D01*
X118290030Y-85452410D01*
X118385835Y-85309027D01*
X118532227Y-85162635D01*
X118704365Y-85047616D01*
X118704367Y-85047615D01*
X118895636Y-84968389D01*
X119098684Y-84928000D01*
X119305716Y-84928000D01*
X119508764Y-84968389D01*
X119508764Y-84968389D01*
G37*
G36*
X125223764Y-84968389D02*
G01*
X125415033Y-85047615D01*
X125415035Y-85047616D01*
X125587173Y-85162635D01*
X125733565Y-85309027D01*
X125829371Y-85452410D01*
X125848585Y-85481167D01*
X125927811Y-85672436D01*
X125968200Y-85875484D01*
X125968200Y-86082516D01*
X125927811Y-86285564D01*
X125922908Y-86297400D01*
X125848584Y-86476835D01*
X125733565Y-86648973D01*
X125587173Y-86795365D01*
X125415035Y-86910384D01*
X125415034Y-86910385D01*
X125415033Y-86910385D01*
X125223764Y-86989611D01*
X125020716Y-87030000D01*
X124813684Y-87030000D01*
X124610636Y-86989611D01*
X124419367Y-86910385D01*
X124419366Y-86910385D01*
X124419365Y-86910384D01*
X124247227Y-86795365D01*
X124100835Y-86648973D01*
X123985816Y-86476835D01*
X123911492Y-86297400D01*
X123906589Y-86285564D01*
X123866200Y-86082516D01*
X123866200Y-85875484D01*
X123906589Y-85672436D01*
X123985815Y-85481167D01*
X124005030Y-85452410D01*
X124100835Y-85309027D01*
X124247227Y-85162635D01*
X124419365Y-85047616D01*
X124419367Y-85047615D01*
X124610636Y-84968389D01*
X124813684Y-84928000D01*
X125020716Y-84928000D01*
X125223764Y-84968389D01*
X125223764Y-84968389D01*
G37*
G36*
X130913364Y-84968389D02*
G01*
X131104633Y-85047615D01*
X131104635Y-85047616D01*
X131276773Y-85162635D01*
X131423165Y-85309027D01*
X131518971Y-85452410D01*
X131538185Y-85481167D01*
X131617411Y-85672436D01*
X131657800Y-85875484D01*
X131657800Y-86082516D01*
X131617411Y-86285564D01*
X131612508Y-86297400D01*
X131538184Y-86476835D01*
X131423165Y-86648973D01*
X131276773Y-86795365D01*
X131104635Y-86910384D01*
X131104634Y-86910385D01*
X131104633Y-86910385D01*
X130913364Y-86989611D01*
X130710316Y-87030000D01*
X130503284Y-87030000D01*
X130300236Y-86989611D01*
X130108967Y-86910385D01*
X130108966Y-86910385D01*
X130108965Y-86910384D01*
X129936827Y-86795365D01*
X129790435Y-86648973D01*
X129675416Y-86476835D01*
X129601092Y-86297400D01*
X129596189Y-86285564D01*
X129555800Y-86082516D01*
X129555800Y-85875484D01*
X129596189Y-85672436D01*
X129675415Y-85481167D01*
X129694630Y-85452410D01*
X129790435Y-85309027D01*
X129936827Y-85162635D01*
X130108965Y-85047616D01*
X130108967Y-85047615D01*
X130300236Y-84968389D01*
X130503284Y-84928000D01*
X130710316Y-84928000D01*
X130913364Y-84968389D01*
X130913364Y-84968389D01*
G37*
G36*
X102302585Y-83478802D02*
G01*
X102452410Y-83508604D01*
X102734674Y-83625521D01*
X102988705Y-83795259D01*
X103204741Y-84011295D01*
X103374479Y-84265326D01*
X103491396Y-84547590D01*
X103491396Y-84547591D01*
X103538931Y-84786562D01*
X103551000Y-84847240D01*
X103551000Y-85152760D01*
X103491396Y-85452410D01*
X103374479Y-85734674D01*
X103204741Y-85988705D01*
X102988705Y-86204741D01*
X102734674Y-86374479D01*
X102452410Y-86491396D01*
X102302585Y-86521198D01*
X102152761Y-86551000D01*
X101847239Y-86551000D01*
X101697415Y-86521198D01*
X101547590Y-86491396D01*
X101265326Y-86374479D01*
X101011295Y-86204741D01*
X100795259Y-85988705D01*
X100625521Y-85734674D01*
X100508604Y-85452410D01*
X100449000Y-85152760D01*
X100449000Y-84847240D01*
X100461070Y-84786562D01*
X100508604Y-84547591D01*
X100508604Y-84547590D01*
X100625521Y-84265326D01*
X100795259Y-84011295D01*
X101011295Y-83795259D01*
X101265326Y-83625521D01*
X101547590Y-83508604D01*
X101697415Y-83478802D01*
X101847239Y-83449000D01*
X102152761Y-83449000D01*
X102302585Y-83478802D01*
X102302585Y-83478802D01*
G37*
G36*
X169302585Y-83478802D02*
G01*
X169452410Y-83508604D01*
X169734674Y-83625521D01*
X169988705Y-83795259D01*
X170204741Y-84011295D01*
X170374479Y-84265326D01*
X170491396Y-84547590D01*
X170491396Y-84547591D01*
X170538931Y-84786562D01*
X170551000Y-84847240D01*
X170551000Y-85152760D01*
X170491396Y-85452410D01*
X170374479Y-85734674D01*
X170204741Y-85988705D01*
X169988705Y-86204741D01*
X169734674Y-86374479D01*
X169452410Y-86491396D01*
X169302585Y-86521198D01*
X169152761Y-86551000D01*
X168847239Y-86551000D01*
X168697415Y-86521198D01*
X168547590Y-86491396D01*
X168265326Y-86374479D01*
X168011295Y-86204741D01*
X167795259Y-85988705D01*
X167625521Y-85734674D01*
X167508604Y-85452410D01*
X167449000Y-85152760D01*
X167449000Y-84847240D01*
X167461070Y-84786562D01*
X167508604Y-84547591D01*
X167508604Y-84547590D01*
X167625521Y-84265326D01*
X167795259Y-84011295D01*
X168011295Y-83795259D01*
X168265326Y-83625521D01*
X168547590Y-83508604D01*
X168697415Y-83478802D01*
X168847239Y-83449000D01*
X169152761Y-83449000D01*
X169302585Y-83478802D01*
X169302585Y-83478802D01*
G37*
G36*
X147731442Y-84726181D02*
G01*
X147877214Y-84786562D01*
X147877216Y-84786563D01*
X148008408Y-84874222D01*
X148119978Y-84985792D01*
X148161286Y-85047615D01*
X148207638Y-85116986D01*
X148268019Y-85262758D01*
X148298800Y-85417507D01*
X148298800Y-85575293D01*
X148268019Y-85730042D01*
X148266101Y-85734672D01*
X148207637Y-85875816D01*
X148119978Y-86007008D01*
X148008408Y-86118578D01*
X147877216Y-86206237D01*
X147877215Y-86206238D01*
X147877214Y-86206238D01*
X147731442Y-86266619D01*
X147576693Y-86297400D01*
X147418907Y-86297400D01*
X147264158Y-86266619D01*
X147118386Y-86206238D01*
X147118385Y-86206238D01*
X147118384Y-86206237D01*
X146987192Y-86118578D01*
X146875622Y-86007008D01*
X146787963Y-85875816D01*
X146729499Y-85734672D01*
X146727581Y-85730042D01*
X146696800Y-85575293D01*
X146696800Y-85417507D01*
X146727581Y-85262758D01*
X146787962Y-85116986D01*
X146834314Y-85047615D01*
X146875622Y-84985792D01*
X146987192Y-84874222D01*
X147118384Y-84786563D01*
X147118386Y-84786562D01*
X147264158Y-84726181D01*
X147418907Y-84695400D01*
X147576693Y-84695400D01*
X147731442Y-84726181D01*
X147731442Y-84726181D01*
G37*
G36*
X159948842Y-84726181D02*
G01*
X160094614Y-84786562D01*
X160094616Y-84786563D01*
X160225808Y-84874222D01*
X160337378Y-84985792D01*
X160378686Y-85047615D01*
X160425038Y-85116986D01*
X160485419Y-85262758D01*
X160516200Y-85417507D01*
X160516200Y-85575293D01*
X160485419Y-85730042D01*
X160483501Y-85734672D01*
X160425037Y-85875816D01*
X160337378Y-86007008D01*
X160225808Y-86118578D01*
X160094616Y-86206237D01*
X160094615Y-86206238D01*
X160094614Y-86206238D01*
X159948842Y-86266619D01*
X159794093Y-86297400D01*
X159636307Y-86297400D01*
X159481558Y-86266619D01*
X159335786Y-86206238D01*
X159335785Y-86206238D01*
X159335784Y-86206237D01*
X159204592Y-86118578D01*
X159093022Y-86007008D01*
X159005363Y-85875816D01*
X158946899Y-85734672D01*
X158944981Y-85730042D01*
X158914200Y-85575293D01*
X158914200Y-85417507D01*
X158944981Y-85262758D01*
X159005362Y-85116986D01*
X159051714Y-85047615D01*
X159093022Y-84985792D01*
X159204592Y-84874222D01*
X159335784Y-84786563D01*
X159335786Y-84786562D01*
X159481558Y-84726181D01*
X159636307Y-84695400D01*
X159794093Y-84695400D01*
X159948842Y-84726181D01*
X159948842Y-84726181D01*
G37*
G36*
X165028842Y-84726181D02*
G01*
X165174614Y-84786562D01*
X165174616Y-84786563D01*
X165305808Y-84874222D01*
X165417378Y-84985792D01*
X165458686Y-85047615D01*
X165505038Y-85116986D01*
X165565419Y-85262758D01*
X165596200Y-85417507D01*
X165596200Y-85575293D01*
X165565419Y-85730042D01*
X165563501Y-85734672D01*
X165505037Y-85875816D01*
X165417378Y-86007008D01*
X165305808Y-86118578D01*
X165174616Y-86206237D01*
X165174615Y-86206238D01*
X165174614Y-86206238D01*
X165028842Y-86266619D01*
X164874093Y-86297400D01*
X164716307Y-86297400D01*
X164561558Y-86266619D01*
X164415786Y-86206238D01*
X164415785Y-86206238D01*
X164415784Y-86206237D01*
X164284592Y-86118578D01*
X164173022Y-86007008D01*
X164085363Y-85875816D01*
X164026899Y-85734672D01*
X164024981Y-85730042D01*
X163994200Y-85575293D01*
X163994200Y-85417507D01*
X164024981Y-85262758D01*
X164085362Y-85116986D01*
X164131714Y-85047615D01*
X164173022Y-84985792D01*
X164284592Y-84874222D01*
X164415784Y-84786563D01*
X164415786Y-84786562D01*
X164561558Y-84726181D01*
X164716307Y-84695400D01*
X164874093Y-84695400D01*
X165028842Y-84726181D01*
X165028842Y-84726181D01*
G37*
G36*
X152811442Y-84726181D02*
G01*
X152957214Y-84786562D01*
X152957216Y-84786563D01*
X153088408Y-84874222D01*
X153199978Y-84985792D01*
X153241286Y-85047615D01*
X153287638Y-85116986D01*
X153348019Y-85262758D01*
X153378800Y-85417507D01*
X153378800Y-85575293D01*
X153348019Y-85730042D01*
X153346101Y-85734672D01*
X153287637Y-85875816D01*
X153199978Y-86007008D01*
X153088408Y-86118578D01*
X152957216Y-86206237D01*
X152957215Y-86206238D01*
X152957214Y-86206238D01*
X152811442Y-86266619D01*
X152656693Y-86297400D01*
X152498907Y-86297400D01*
X152344158Y-86266619D01*
X152198386Y-86206238D01*
X152198385Y-86206238D01*
X152198384Y-86206237D01*
X152067192Y-86118578D01*
X151955622Y-86007008D01*
X151867963Y-85875816D01*
X151809499Y-85734672D01*
X151807581Y-85730042D01*
X151776800Y-85575293D01*
X151776800Y-85417507D01*
X151807581Y-85262758D01*
X151867962Y-85116986D01*
X151914314Y-85047615D01*
X151955622Y-84985792D01*
X152067192Y-84874222D01*
X152198384Y-84786563D01*
X152198386Y-84786562D01*
X152344158Y-84726181D01*
X152498907Y-84695400D01*
X152656693Y-84695400D01*
X152811442Y-84726181D01*
X152811442Y-84726181D01*
G37*
M02*
